<svg width="29" height="25" viewBox="0 0 29 25" fill="none" xmlns="http://www.w3.org/2000/svg">
<path d="M1 1H4.62953C5.47526 1 6.22957 1.53197 6.51347 2.32863L10.52 13.5714M10.52 13.5714H22.7266C23.4827 13.5714 24.1743 13.145 24.5137 12.4693L27.5441 6.43754C28.2123 5.10752 27.2454 3.53968 25.757 3.53968H13.88M10.52 13.5714L11.1895 15.621C11.4582 16.4436 12.2254 17 13.0907 17H23.96M16 22C16 23.1046 15.1046 24 14 24C12.8954 24 12 23.1046 12 22C12 20.8954 12.8954 20 14 20C15.1046 20 16 20.8954 16 22ZM23 22C23 23.1046 22.1046 24 21 24C19.8954 24 19 23.1046 19 22C19 20.8954 19.8954 20 21 20C22.1046 20 23 20.8954 23 22Z" stroke="#246990" stroke-width="2" stroke-linecap="round"/>
</svg>
