<svg width="156" height="135" viewBox="0 0 156 135" fill="none" xmlns="http://www.w3.org/2000/svg">
<path fill-rule="evenodd" clip-rule="evenodd" d="M3 0C1.34315 0 0 1.34315 0 3C0 4.65685 1.34315 6 3 6H23.2096C26.6364 6 29.7108 8.17203 30.8714 11.4525L53.1669 74.4725L56.8827 85.9304C58.7763 91.7693 64.192 95.7391 70.3221 95.7391H130.844C132.501 95.7391 133.844 94.396 133.844 92.7391C133.844 91.0823 132.501 89.7391 130.844 89.7391H70.3221C66.8162 89.7391 63.6887 87.4671 62.5901 84.0795L60.1351 76.5093H123.976C129.332 76.5093 134.217 73.4667 136.611 68.6668L153.485 34.8365C158.184 25.4143 151.402 14.2443 140.849 14.2443H74.7172C73.0603 14.2443 71.7172 15.5875 71.7172 17.2443C71.7172 18.9012 73.0603 20.2443 74.7172 20.2443H140.849C146.873 20.2443 150.857 26.6614 148.116 32.1585L131.242 65.9888C129.856 68.7682 127.04 70.5093 123.976 70.5093H58.1292L36.5278 9.4513C34.5268 3.79528 29.201 0 23.2096 0H3ZM67.2491 120.783C67.2491 116.224 70.9123 112.565 75.3853 112.565C79.8583 112.565 83.5216 116.224 83.5216 120.783C83.5216 125.342 79.8583 129 75.3853 129C70.9123 129 67.2491 125.342 67.2491 120.783ZM75.3853 106.565C67.5576 106.565 61.2491 112.951 61.2491 120.783C61.2491 128.614 67.5576 135 75.3853 135C83.2131 135 89.5216 128.614 89.5216 120.783C89.5216 112.951 83.2131 106.565 75.3853 106.565ZM106.226 120.783C106.226 116.224 109.889 112.565 114.362 112.565C118.835 112.565 122.498 116.224 122.498 120.783C122.498 125.342 118.835 129 114.362 129C109.889 129 106.226 125.342 106.226 120.783ZM114.362 106.565C106.534 106.565 100.226 112.951 100.226 120.783C100.226 128.614 106.534 135 114.362 135C122.19 135 128.498 128.614 128.498 120.783C128.498 112.951 122.19 106.565 114.362 106.565ZM90.9996 37C90.9996 38.6569 89.6565 40 87.9996 40C86.3428 40 84.9996 38.6569 84.9996 37C84.9996 35.3431 86.3428 34 87.9996 34C89.6565 34 90.9996 35.3431 90.9996 37ZM94.9997 55C91.9881 55 89.3273 55.6643 87.3693 56.6691C85.8953 57.4255 84.087 56.8438 83.3306 55.3697C82.5741 53.8956 83.1559 52.0874 84.63 51.3309C87.5361 49.8396 91.1552 49 94.9997 49C98.8442 49 102.463 49.8396 105.369 51.3309C106.843 52.0874 107.425 53.8956 106.669 55.3697C105.912 56.8438 104.104 57.4255 102.63 56.6691C100.672 55.6643 98.0113 55 94.9997 55ZM101 40C102.657 40 104 38.6569 104 37C104 35.3431 102.657 34 101 34C99.3428 34 97.9996 35.3431 97.9996 37C97.9996 38.6569 99.3428 40 101 40Z" fill="#657176"/>
</svg>
