<svg width="159" height="20" viewBox="0 0 159 20" fill="none" xmlns="http://www.w3.org/2000/svg">
<path d="M6.84066 8.23382C8.53807 8.23382 9.61011 9.3149 9.68669 11.0748H3.87978C4.0074 9.35261 5.18155 8.23382 6.84066 8.23382ZM9.78879 15.5123C9.40591 16.3922 8.42321 16.895 6.99381 16.895C5.10497 16.895 3.91807 15.6757 3.86702 13.7021V13.4884H13.5027V12.3319C13.5027 7.90698 11.0267 5.29227 6.8279 5.29227C2.60354 5.29227 0 8.09554 0 12.6461C0 17.1842 2.53972 19.8366 6.87895 19.8366C10.3759 19.8366 12.8518 18.1647 13.3878 15.5123H9.78879Z" fill="black"/>
<path d="M15.2144 1.38278V19.5223H19.26V14.0038H22.7697C26.7005 14.0038 29.4189 11.4896 29.4189 7.71842C29.4189 3.89692 26.8154 1.38278 22.9867 1.38278H15.2144ZM19.26 4.66373H21.9146C24.0715 4.66373 25.3222 5.71967 25.3222 7.73099C25.3222 9.70459 24.046 10.7731 21.8891 10.7731H19.26V4.66373Z" fill="black"/>
<path d="M30.8371 19.5223H34.7296V11.9547C34.7296 9.99371 36.108 8.84978 38.0862 8.84978C38.6349 8.84978 39.5538 8.95035 39.8601 9.07605V5.5814C39.5283 5.45569 38.903 5.39283 38.3925 5.39283C36.644 5.39283 35.2146 6.46134 34.8445 7.85669H34.6148V5.60654H30.8371V19.5223Z" fill="black"/>
<path d="M40.7295 19.5223H44.6221V5.60654H40.7295V19.5223ZM42.6694 3.78378C44.0733 3.78378 44.9539 3.01697 44.9539 1.88561C44.9539 0.766813 44.0733 0 42.6694 0C41.2783 0 40.3977 0.766813 40.3977 1.88561C40.3977 3.01697 41.2783 3.78378 42.6694 3.78378Z" fill="black"/>
<path d="M46.6401 19.5223H50.5326V11.5273C50.5326 9.78001 51.6812 8.63608 53.4424 8.63608C55.1526 8.63608 56.046 9.61659 56.046 11.4393V19.5223H59.9513V10.5217C59.9513 7.20302 58.1645 5.29227 55.025 5.29227C52.9575 5.29227 51.2983 6.28536 50.6475 7.85669H50.4177V5.60654H46.6401V19.5223Z" fill="black"/>
<path d="M62.8499 2.40101V5.76996H60.6292V8.7995H62.8499V15.7385C62.8499 18.4538 64.2282 19.56 67.7251 19.56C68.4781 19.56 69.18 19.4846 69.6395 19.3966V16.4676C69.2949 16.5053 69.0397 16.5179 68.5547 16.5179C67.304 16.5179 66.7424 15.9774 66.7424 14.8209V8.7995H69.7161V5.76996H66.7424V2.40101H62.8499Z" fill="black"/>
<path d="M79.3022 20C83.8073 20 87.0873 17.2093 87.368 13.1992H83.45C83.0926 15.1854 81.4718 16.4551 79.3022 16.4551C76.4689 16.4551 74.7205 14.1672 74.7205 10.4463C74.7205 6.7379 76.4689 4.45003 79.2894 4.45003C81.459 4.45003 83.0799 5.7951 83.4372 7.84412H87.3553C87.1 3.83407 83.718 0.905091 79.2894 0.905091C73.9037 0.905091 70.5982 4.53803 70.5982 10.4463C70.5982 16.3545 73.9164 20 79.3022 20Z" fill="black"/>
<path d="M88.799 19.5223H92.6915V11.9547C92.6915 9.99371 94.0698 8.84978 96.048 8.84978C96.5968 8.84978 97.5157 8.95035 97.822 9.07605V5.5814C97.4902 5.45569 96.8648 5.39283 96.3543 5.39283C94.6059 5.39283 93.1765 6.46134 92.8064 7.85669H92.5766V5.60654H88.799V19.5223Z" fill="black"/>
<path d="M104.409 8.23382C106.106 8.23382 107.178 9.3149 107.255 11.0748H101.448C101.576 9.35261 102.75 8.23382 104.409 8.23382ZM107.357 15.5123C106.974 16.3922 105.991 16.895 104.562 16.895C102.673 16.895 101.486 15.6757 101.435 13.7021V13.4884H111.071V12.3319C111.071 7.90698 108.595 5.29227 104.396 5.29227C100.172 5.29227 97.5683 8.09554 97.5683 12.6461C97.5683 17.1842 100.108 19.8366 104.447 19.8366C107.944 19.8366 110.42 18.1647 110.956 15.5123H107.357Z" fill="black"/>
<path d="M117.581 16.8448C116.318 16.8448 115.45 16.2539 115.45 15.2734C115.45 14.3306 116.216 13.7775 117.747 13.6895L120.491 13.5135V14.494C120.491 15.8265 119.228 16.8448 117.581 16.8448ZM116.254 19.736C118.079 19.736 119.611 18.9818 120.312 17.7373H120.555V19.5223H124.333V10.0314C124.333 7.0396 122.201 5.29227 118.424 5.29227C114.825 5.29227 112.4 6.93903 112.17 9.56631H115.744C116.037 8.74921 116.905 8.33438 118.207 8.33438C119.687 8.33438 120.491 8.95035 120.491 10.0314V11.1502L117.16 11.3388C113.612 11.5399 111.66 13.0107 111.66 15.5374C111.66 18.0893 113.548 19.736 116.254 19.736Z" fill="black"/>
<path d="M127.295 2.40101V5.76996H125.074V8.7995H127.295V15.7385C127.295 18.4538 128.673 19.56 132.17 19.56C132.923 19.56 133.625 19.4846 134.085 19.3966V16.4676C133.74 16.5053 133.485 16.5179 133 16.5179C131.749 16.5179 131.188 15.9774 131.188 14.8209V8.7995H134.161V5.76996H131.188V2.40101H127.295Z" fill="black"/>
<path d="M141.68 16.6939C139.765 16.6939 138.681 15.1854 138.681 12.5707C138.681 9.98114 139.778 8.43495 141.68 8.43495C143.581 8.43495 144.679 9.98114 144.679 12.5707C144.679 15.1728 143.594 16.6939 141.68 16.6939ZM141.68 19.8366C146.057 19.8366 148.686 17.1339 148.686 12.5581C148.686 8.04525 146.019 5.29227 141.68 5.29227C137.353 5.29227 134.686 8.05783 134.686 12.5581C134.686 17.1213 137.302 19.8366 141.68 19.8366Z" fill="black"/>
<path d="M149.977 19.5223H153.87V11.9547C153.87 9.99371 155.248 8.84978 157.226 8.84978C157.775 8.84978 158.694 8.95035 159 9.07605V5.5814C158.668 5.45569 158.043 5.39283 157.532 5.39283C155.784 5.39283 154.354 6.46134 153.984 7.85669H153.755V5.60654H149.977V19.5223Z" fill="black"/>
</svg>
