<svg width="24" height="24" viewBox="0 0 24 24" fill="none" xmlns="http://www.w3.org/2000/svg">
<path d="M12 0.684082C8.74 0.684082 8.333 0.698315 7.053 0.752401C5.775 0.809333 4.905 1.00006 4.14 1.28187C3.351 1.57222 2.681 1.96221 2.014 2.5951C1.347 3.228 0.935 3.86279 0.63 4.61239C0.333 5.33828 0.131 6.16379 0.072 7.37645C0.012 8.591 0 8.97719 0 12.0705C0 15.1638 0.015 15.55 0.072 16.7645C0.132 17.9762 0.333 18.8027 0.63 19.5286C0.936 20.2763 1.347 20.913 2.014 21.5459C2.681 22.1778 3.35 22.5697 4.14 22.8591C4.906 23.14 5.776 23.3326 7.053 23.3886C8.333 23.4455 8.74 23.4569 12 23.4569C15.26 23.4569 15.667 23.4427 16.947 23.3886C18.224 23.3317 19.095 23.14 19.86 22.8591C20.648 22.5688 21.319 22.1778 21.986 21.5459C22.652 20.913 23.065 20.2792 23.37 19.5286C23.666 18.8027 23.869 17.9762 23.928 16.7645C23.988 15.55 24 15.1638 24 12.0705C24 8.97719 23.985 8.591 23.928 7.37645C23.868 6.16474 23.666 5.33733 23.37 4.61239C23.064 3.86374 22.652 3.228 21.986 2.5951C21.319 1.96221 20.651 1.57127 19.86 1.28187C19.095 1.00006 18.224 0.808384 16.947 0.752401C15.667 0.695468 15.26 0.684082 12 0.684082ZM12 2.73364C15.203 2.73364 15.585 2.74882 16.85 2.80101C18.02 2.85319 18.655 3.03727 19.077 3.19479C19.639 3.40069 20.037 3.6474 20.459 4.04497C20.878 4.4435 21.138 4.82209 21.355 5.35536C21.519 5.75578 21.715 6.35831 21.768 7.46849C21.825 8.66975 21.838 9.03032 21.838 12.0705C21.838 15.1107 21.823 15.4722 21.764 16.6725C21.703 17.7827 21.508 18.3852 21.343 18.7856C21.119 19.3189 20.864 19.6965 20.444 20.097C20.025 20.4945 19.62 20.7413 19.064 20.9472C18.644 21.1028 17.999 21.2887 16.829 21.339C15.555 21.3931 15.18 21.4055 11.97 21.4055C8.759 21.4055 8.384 21.3912 7.111 21.3352C5.94 21.2774 5.295 21.0923 4.875 20.9358C4.306 20.7232 3.915 20.4813 3.496 20.0827C3.075 19.6852 2.806 19.3009 2.596 18.7733C2.431 18.3748 2.237 17.7628 2.176 16.6526C2.131 15.457 2.115 15.0879 2.115 12.0563C2.115 9.02368 2.131 8.65362 2.176 7.44382C2.237 6.33364 2.431 5.72257 2.596 5.32405C2.806 4.78319 3.075 4.41313 3.496 4.01366C3.915 3.61608 4.306 3.35989 4.875 3.16158C5.295 3.00406 5.926 2.81903 7.096 2.7621C8.371 2.7194 8.746 2.70517 11.955 2.70517L12 2.73364ZM12 6.22357C8.595 6.22357 5.838 8.84245 5.838 12.0705C5.838 15.3014 8.598 17.9174 12 17.9174C15.405 17.9174 18.162 15.2985 18.162 12.0705C18.162 8.8396 15.402 6.22357 12 6.22357ZM12 15.866C9.79 15.866 8 14.1675 8 12.0705C8 9.9735 9.79 8.27502 12 8.27502C14.21 8.27502 16 9.9735 16 12.0705C16 14.1675 14.21 15.866 12 15.866ZM19.846 5.993C19.846 6.74735 19.2 7.35937 18.406 7.35937C17.611 7.35937 16.966 6.7464 16.966 5.993C16.966 5.2396 17.612 4.62758 18.406 4.62758C19.199 4.62663 19.846 5.2396 19.846 5.993Z" fill="white"/>
</svg>
