<svg width="21" height="28" viewBox="0 0 21 28" fill="none" xmlns="http://www.w3.org/2000/svg">
<path fill-rule="evenodd" clip-rule="evenodd" d="M14.1825 21.1953C16.7612 17.9412 19 14.0291 19 10.5C19 5.80558 15.1944 2 10.5 2C5.80558 2 2 5.80558 2 10.5C2 11.9402 2.51466 13.6525 3.43368 15.5125C4.34145 17.3496 5.57308 19.1902 6.83954 20.8487C8.10142 22.5011 9.36823 23.9343 10.3215 24.9557C10.4037 25.0437 10.4834 25.1286 10.5606 25.2103C10.6165 25.1555 10.6736 25.0991 10.7321 25.0411C11.6763 24.1044 12.9319 22.7735 14.1825 21.1953ZM21 10.5C21 19 10.5 28 10.5 28C10.5 28 0 18 0 10.5C0 4.70101 4.70101 0 10.5 0C16.299 0 21 4.70101 21 10.5Z" fill="#657176"/>
<path fill-rule="evenodd" clip-rule="evenodd" d="M10.5 11C11.3284 11 12 10.3284 12 9.5C12 8.67157 11.3284 8 10.5 8C9.67157 8 9 8.67157 9 9.5C9 10.3284 9.67157 11 10.5 11ZM14 9.5C14 11.433 12.433 13 10.5 13C8.567 13 7 11.433 7 9.5C7 7.567 8.567 6 10.5 6C12.433 6 14 7.567 14 9.5Z" fill="#657176"/>
</svg>
