<svg width="18" height="27" viewBox="0 0 18 27" fill="none" xmlns="http://www.w3.org/2000/svg">
<path d="M13.1416 5.14286C13.1416 7.43089 11.2868 9.28571 8.99874 9.28571C6.71071 9.28571 4.85589 7.43089 4.85589 5.14286C4.85589 2.85482 6.71071 1 8.99874 1C11.2868 1 13.1416 2.85482 13.1416 5.14286ZM1 13.8704C1 13.0092 1.07133 12.4029 1.17975 11.9862C1.28859 11.5679 1.416 11.4118 1.47449 11.3594C1.53208 11.3078 1.73756 11.1785 2.57647 11.4676C2.95456 11.5979 3.37782 11.784 3.86173 12.0068C3.97833 12.0605 4.09886 12.1166 4.2224 12.174C4.59615 12.3478 4.99751 12.5344 5.40141 12.708C6.4694 13.1672 7.7212 13.6125 9 13.6125C10.2788 13.6125 11.5306 13.1672 12.5986 12.708C13.0025 12.5344 13.4039 12.3478 13.7776 12.174C13.9011 12.1166 14.0217 12.0605 14.1383 12.0068C14.6222 11.784 15.0454 11.5979 15.4235 11.4676C16.2624 11.1785 16.4679 11.3078 16.5255 11.3594C16.584 11.4118 16.7114 11.5679 16.8202 11.9862C16.9287 12.4029 17 13.0093 17 13.8704C17 17.2836 15.8827 20.3614 14.2872 22.5686C12.6674 24.8096 10.681 26 9 26C7.31897 26 5.33264 24.8096 3.71276 22.5686C2.1173 20.3614 1 17.2836 1 13.8704Z" stroke="#246990" stroke-width="2"/>
</svg>
