<svg width="24" height="20" viewBox="0 0 24 20" fill="none" xmlns="http://www.w3.org/2000/svg">
<path d="M23.953 2.90483C23.068 3.27997 22.1231 3.53554 21.1281 3.65223C22.1421 3.06299 22.922 2.13428 23.291 1.0262C22.3401 1.56143 21.2861 1.95105 20.1642 2.16803C19.2682 1.24318 17.9912 0.664551 16.5733 0.664551C13.8564 0.664551 11.6535 2.7891 11.6535 5.40645C11.6535 5.78256 11.6985 6.14421 11.7805 6.49043C7.69068 6.3043 4.06583 4.41024 1.63993 1.54697C1.21295 2.24326 0.973959 3.05238 0.973959 3.93383C0.973959 5.58294 1.84392 7.03241 3.16187 7.88397C2.3549 7.85889 1.59593 7.6448 0.933961 7.2899V7.34873C0.933961 9.6488 2.62689 11.567 4.8798 12.0038C4.46681 12.1109 4.03083 12.1687 3.58385 12.1687C3.26986 12.1687 2.96888 12.1398 2.66789 12.0858C3.29886 13.9693 5.11279 15.3426 7.2717 15.3811C5.59177 16.6532 3.46286 17.4112 1.16995 17.4112C0.779967 17.4112 0.390984 17.389 0 17.3466C2.18891 18.6909 4.7678 19.4769 7.55669 19.4769C16.6103 19.4769 21.5551 12.2478 21.5551 5.98894C21.5551 5.78739 21.5551 5.5839 21.5401 5.38138C22.5011 4.71691 23.34 3.87693 24 2.92411L23.953 2.90483Z" fill="white"/>
</svg>
