<svg width="229" height="112" viewBox="0 0 229 112" fill="none" xmlns="http://www.w3.org/2000/svg">
<path fill-rule="evenodd" clip-rule="evenodd" d="M115.001 76.8799C111.989 76.8799 109.328 77.5442 107.37 78.549C105.896 79.3054 104.088 78.7237 103.332 77.2496C102.575 75.7755 103.157 73.9673 104.631 73.2108C107.537 71.7195 111.156 70.8799 115.001 70.8799C118.845 70.8799 122.464 71.7195 125.37 73.2108C126.844 73.9673 127.426 75.7755 126.67 77.2496C125.913 78.7237 124.105 79.3054 122.631 78.549C120.673 77.5442 118.012 76.8799 115.001 76.8799Z" fill="#657176"/>
<path d="M111.001 58.8799C111.001 60.5367 109.657 61.8799 108.001 61.8799C106.344 61.8799 105.001 60.5367 105.001 58.8799C105.001 57.223 106.344 55.8799 108.001 55.8799C109.657 55.8799 111.001 57.223 111.001 58.8799Z" fill="#657176"/>
<path d="M124.001 58.8799C124.001 60.5367 122.657 61.8799 121.001 61.8799C119.344 61.8799 118.001 60.5367 118.001 58.8799C118.001 57.223 119.344 55.8799 121.001 55.8799C122.657 55.8799 124.001 57.223 124.001 58.8799Z" fill="#657176"/>
<path d="M47.0001 27.7322V102.88C47.0001 106.194 49.6864 108.88 53.0001 108.88H177C180.314 108.88 183 106.194 183 102.88V33.7322C183 30.4185 180.314 27.7322 177 27.7322H163.316H143.632M47.0001 27.7322H143.632M47.0001 27.7322L47.0001 25.702C47 22.8319 49.0326 20.3636 51.8495 19.8132L136.481 3.27704C140.186 2.55305 143.632 5.39026 143.632 9.16568V27.7322" stroke="#657176" stroke-width="6"/>
<path d="M45.8577 65.6656C42.395 66.7234 36.1268 70.2751 31.562 73.014C28.5553 74.8181 24.5608 73.8076 22.4158 71.0337C18.722 66.2569 12.3413 59.8209 3.95996 58.3242" stroke="#657176" stroke-width="6" stroke-linecap="round"/>
<path d="M183 65.6656C186.462 66.7234 192.731 70.2751 197.295 73.014C200.302 74.8181 204.297 73.8076 206.442 71.0337C210.135 66.2569 216.516 59.8209 224.897 58.3242" stroke="#657176" stroke-width="6" stroke-linecap="round"/>
<path d="M2 67.3809C6.60573 68.2798 10.4987 71.1023 13.5203 74.1822" stroke="#657176" stroke-width="3" stroke-linecap="round"/>
<path d="M226.857 67.3809C222.252 68.2798 218.359 71.1023 215.337 74.1822" stroke="#657176" stroke-width="3" stroke-linecap="round"/>
<path d="M14.6865 54.3633C16.7402 54.7641 18.4761 56.0227 19.8235 57.396" stroke="#657176" stroke-width="3" stroke-linecap="round"/>
<path d="M214.171 54.3633C212.117 54.7641 210.381 56.0227 209.034 57.396" stroke="#657176" stroke-width="3" stroke-linecap="round"/>
</svg>
