<svg width="18" height="21" viewBox="0 0 18 21" fill="none" xmlns="http://www.w3.org/2000/svg">
<path d="M1 3.00337L0.478697 2.15C0.23652 2.29794 0.068606 2.5418 0.0168023 2.82082C-0.0350014 3.09984 0.0341849 3.38773 0.207118 3.61274L1 3.00337ZM17 3.00337L17.7929 3.61274C17.9658 3.38773 18.035 3.09984 17.9832 2.82082C17.9314 2.5418 17.7635 2.29794 17.5213 2.15L17 3.00337ZM6.33946 9.95075L5.54658 10.5601L6.33946 9.95075ZM10.0452 19.2165L9.39943 18.4529L10.0452 19.2165ZM10.5378 18.7999L9.89204 18.0363L10.5378 18.7999ZM11.6605 9.95075L10.8677 9.34137L11.6605 9.95075ZM9.89204 18.0363L9.39943 18.4529L10.6909 19.98L11.1835 19.5634L9.89204 18.0363ZM7.7537 17.6893V11.1695H5.7537V17.6893H7.7537ZM7.13234 9.34137L1.79288 2.39399L0.207118 3.61274L5.54658 10.5601L7.13234 9.34137ZM16.2071 2.39399L10.8677 9.34137L12.4534 10.5601L17.7929 3.61274L16.2071 2.39399ZM10.2463 11.1695V14.3452H12.2463V11.1695H10.2463ZM10.2463 14.3452V17.2727H12.2463V14.3452H10.2463ZM1 3.00337C0.434972 3.82844 0.435128 3.82855 0.435303 3.82867C0.435385 3.82872 0.435578 3.82885 0.435743 3.82897C0.436073 3.82919 0.436475 3.82947 0.436951 3.82979C0.437901 3.83044 0.439141 3.83129 0.440668 3.83233C0.443722 3.83441 0.447924 3.83726 0.45325 3.84086C0.463903 3.84807 0.479058 3.85829 0.498531 3.8713C0.537472 3.89734 0.593711 3.9346 0.665771 3.98148C0.809836 4.07522 1.01746 4.20765 1.27679 4.36587C1.79457 4.68177 2.52304 5.10329 3.36665 5.52578C5.01225 6.34993 7.25356 7.25993 9.24959 7.25993V5.25993C7.75136 5.25993 5.86788 4.54165 4.26225 3.73752C3.48024 3.34587 2.80149 2.95325 2.31844 2.65854C2.07737 2.51146 1.88618 2.38947 1.75654 2.30511C1.69175 2.26295 1.64241 2.23025 1.60998 2.20857C1.59378 2.19774 1.5818 2.18967 1.57425 2.18455C1.57047 2.182 1.5678 2.18018 1.56625 2.17913C1.56548 2.1786 1.56499 2.17827 1.56479 2.17813C1.56468 2.17806 1.56465 2.17804 1.56469 2.17807C1.56471 2.17808 1.5648 2.17814 1.56481 2.17814C1.56491 2.17821 1.56503 2.1783 1 3.00337ZM9.24959 7.25993C11.2575 7.25993 13.3795 6.34196 14.912 5.51065C15.6968 5.08491 16.3657 4.66021 16.8387 4.3418C17.0757 4.18229 17.2648 4.04863 17.3961 3.95377C17.4617 3.90632 17.513 3.86851 17.5487 3.84195C17.5665 3.82867 17.5804 3.8182 17.5903 3.81073C17.5952 3.807 17.5992 3.80402 17.6021 3.80182C17.6035 3.80071 17.6047 3.79981 17.6057 3.7991C17.6061 3.79874 17.6065 3.79843 17.6069 3.79818C17.607 3.79805 17.6072 3.79789 17.6073 3.79783C17.6075 3.79769 17.6077 3.79756 17 3.00337C16.3923 2.20918 16.3925 2.20907 16.3926 2.20898C16.3926 2.20896 16.3927 2.20888 16.3928 2.20885C16.3928 2.2088 16.3928 2.20879 16.3928 2.20882C16.3927 2.2089 16.3923 2.20917 16.3917 2.20964C16.3905 2.21056 16.3883 2.21225 16.3851 2.21468C16.3786 2.21954 16.3682 2.22736 16.354 2.23793C16.3256 2.25907 16.2821 2.29123 16.2245 2.33282C16.1094 2.41605 15.9386 2.53682 15.722 2.68261C15.2879 2.97481 14.6743 3.36425 13.9583 3.75265C12.4891 4.54962 10.7359 5.25993 9.24959 5.25993V7.25993ZM1 3.00337C1.5213 3.85674 1.52105 3.85689 1.52081 3.85704C1.52074 3.85708 1.52051 3.85722 1.52038 3.8573C1.52013 3.85746 1.51992 3.85758 1.51976 3.85768C1.51944 3.85787 1.51932 3.85795 1.51939 3.8579C1.51954 3.85782 1.52046 3.85726 1.52216 3.85624C1.52556 3.85421 1.53205 3.85036 1.54158 3.84481C1.56064 3.8337 1.59182 3.81579 1.63469 3.79205C1.72045 3.74454 1.85278 3.67377 2.02813 3.58738C2.3791 3.41446 2.90069 3.17981 3.56454 2.944C4.89449 2.47157 6.77971 2 9 2V0C6.49979 0 4.38501 0.530113 2.89508 1.05937C2.149 1.3244 1.55568 1.59059 1.14423 1.7933C0.938365 1.89473 0.777612 1.98047 0.665584 2.04252C0.609557 2.07356 0.565674 2.09869 0.534386 2.11693C0.518741 2.12605 0.506241 2.13345 0.496942 2.139C0.492292 2.14177 0.488442 2.14409 0.485399 2.14593C0.483878 2.14685 0.482558 2.14765 0.48144 2.14832C0.480882 2.14866 0.480374 2.14897 0.479916 2.14925C0.479688 2.14939 0.479383 2.14958 0.479268 2.14965C0.478976 2.14982 0.478697 2.15 1 3.00337ZM9 2C11.2203 2 13.1055 2.47157 14.4355 2.944C15.0993 3.17981 15.6209 3.41446 15.9719 3.58738C16.1472 3.67377 16.2796 3.74454 16.3653 3.79205C16.4082 3.81579 16.4394 3.8337 16.4584 3.84481C16.4679 3.85036 16.4744 3.85421 16.4778 3.85624C16.4795 3.85726 16.4805 3.85782 16.4806 3.8579C16.4807 3.85795 16.4806 3.85787 16.4802 3.85768C16.4801 3.85758 16.4799 3.85746 16.4796 3.8573C16.4795 3.85722 16.4793 3.85708 16.4792 3.85704C16.479 3.85689 16.4787 3.85674 17 3.00337C17.5213 2.15 17.521 2.14982 17.5207 2.14965C17.5206 2.14958 17.5203 2.14939 17.5201 2.14925C17.5196 2.14897 17.5191 2.14866 17.5186 2.14832C17.5174 2.14765 17.5161 2.14685 17.5146 2.14593C17.5116 2.14409 17.5077 2.14177 17.5031 2.139C17.4938 2.13345 17.4813 2.12605 17.4656 2.11693C17.4343 2.09869 17.3904 2.07356 17.3344 2.04252C17.2224 1.98047 17.0616 1.89473 16.8558 1.7933C16.4443 1.59059 15.851 1.3244 15.1049 1.05937C13.615 0.530113 11.5002 0 9 0V2ZM7.7537 11.1695C7.7537 10.5083 7.53526 9.86562 7.13234 9.34137L5.54658 10.5601C5.68088 10.7349 5.7537 10.9491 5.7537 11.1695H7.7537ZM9.39943 18.4529C8.74946 19.0026 7.7537 18.5406 7.7537 17.6893H5.7537C5.7537 20.243 8.74098 21.629 10.6909 19.98L9.39943 18.4529ZM11.1835 19.5634C11.8575 18.9934 12.2463 18.1555 12.2463 17.2727H10.2463C10.2463 17.567 10.1167 17.8463 9.89204 18.0363L11.1835 19.5634ZM10.8677 9.34137C10.4647 9.86562 10.2463 10.5083 10.2463 11.1695H12.2463C12.2463 10.9491 12.3191 10.7349 12.4534 10.5601L10.8677 9.34137Z" fill="#657176"/>
</svg>
