<svg width="47" height="41" viewBox="0 0 47 41" fill="none" xmlns="http://www.w3.org/2000/svg">
<path opacity="0.2" d="M34.3058 41C31.1585 40.1611 28.8155 38.3785 27.2768 35.6522C25.7381 32.8559 24.9688 29.7101 24.9688 26.2148C24.9688 19.9932 26.8921 14.6454 30.7388 10.1714C34.6555 5.69736 39.3415 2.30691 44.7969 0L47 3.77494V4.82353C45.1815 5.45269 43.3281 6.67604 41.4397 8.4936C39.6213 10.3112 38.1176 12.4783 36.9286 14.9949C35.8095 17.5115 35.25 20.0631 35.25 22.6496C35.25 25.0264 35.7746 27.0887 36.8237 28.8363C37.9427 30.5141 39.4464 31.4928 41.3348 31.7724L41.0201 33.6598L34.3058 41ZM9.33705 41C6.18973 40.1611 3.84673 38.3785 2.30804 35.6522C0.769345 32.8559 0 29.7101 0 26.2148C0 19.9932 1.92336 14.6454 5.77009 10.1714C9.68676 5.69736 14.3728 2.30691 19.8281 0L22.0312 3.77494V4.82353C20.2128 5.45269 18.3594 6.67604 16.471 8.4936C14.6525 10.3112 13.1488 12.4783 11.9598 14.9949C10.8408 17.5115 10.2813 20.0631 10.2813 22.6496C10.2813 25.0264 10.8058 27.0887 11.8549 28.8363C12.974 30.5141 14.4777 31.4928 16.3661 31.7724L16.0513 33.6598L9.33705 41Z" fill="white"/>
</svg>
