<svg width="20" height="15" fill="none" xmlns="http://www.w3.org/2000/svg"><path fill-rule="evenodd" clip-rule="evenodd" d="M1.43 0C.64 0 0 .64 0 1.43v12.14C0 14.36.64 15 1.43 15h17.14c.79 0 1.43-.64 1.43-1.43V1.43C20 .64 19.36 0 18.57 0H1.43zm6.85 1.43H6L1.43 6v2.27l6.85-6.85zm2.02 0L1.43 10.3v2.26L12.56 1.43H10.3zM4.7 13.57H2.44L14.58 1.43h2.27L4.7 13.57zm2.02 0H9L18.57 4V1.72L6.72 13.57zm6.56 0H11l7.56-7.56v2.27l-5.3 5.3zm2.02 0h3.27V10.3l-3.27 3.27zM1.43 1.43h2.56L1.43 3.99V1.43z" fill="#42708A"/></svg>