<svg width="21" height="22" viewBox="0 0 21 22" fill="none" xmlns="http://www.w3.org/2000/svg">
<path d="M11.9865 13.626C11.323 14.2895 10.895 14.7145 10.5392 14.986C10.2065 15.2398 10.0567 15.2636 9.96348 15.2636C9.87021 15.2636 9.7205 15.2398 9.38774 14.986C9.03191 14.7145 8.60392 14.2895 7.94042 13.626C7.27693 12.9625 6.85194 12.5345 6.58045 12.1787C6.32657 11.8459 6.3028 11.6962 6.3028 11.6029C6.3028 11.5097 6.32657 11.36 6.58045 11.0272C6.85194 10.6714 7.27693 10.2434 7.94042 9.57988L14.0833 3.43702C14.7468 2.77352 15.1748 2.34854 15.5306 2.07705C15.8634 1.82317 16.0131 1.7994 16.1063 1.7994L16.1063 0.799399L16.1063 1.7994C16.1996 1.7994 16.3493 1.82317 16.6821 2.07705C17.0379 2.34854 17.4659 2.77353 18.1294 3.43702C18.7929 4.10052 19.2179 4.5285 19.4894 4.88434C19.7432 5.21709 19.767 5.36681 19.767 5.46007L20.7622 5.46008L19.767 5.46008C19.767 5.55334 19.7432 5.70306 19.4894 6.03581C19.2179 6.39164 18.7929 6.81963 18.1294 7.48313L11.9865 13.626ZM7.30935 18.2847C7.27632 18.3312 7.21695 18.3956 6.91727 18.6952C6.84219 18.7703 6.82798 18.7841 6.8151 18.7958C6.73103 18.8719 6.63375 18.9321 6.52806 18.9732L6.89084 19.9051L6.52806 18.9732C6.51187 18.9795 6.49316 18.986 6.39243 19.0196L6.0524 19.133C4.42185 19.6765 3.30685 20.0454 2.49193 20.1903C1.66976 20.3366 1.49756 20.1894 1.43727 20.1291C1.37699 20.0689 1.22981 19.8967 1.37607 19.0745C1.52104 18.2596 1.88993 17.1446 2.43345 15.514L2.54679 15.174C2.58037 15.0733 2.5869 15.0545 2.5932 15.0384L1.66133 14.6756L2.5932 15.0384C2.63435 14.9327 2.69447 14.8354 2.7706 14.7513C2.78226 14.7384 2.79608 14.7242 2.87116 14.6491C3.17084 14.3495 3.23522 14.2901 3.2817 14.2571C3.6044 14.0278 4.03683 14.0278 4.35953 14.2571C4.40602 14.2901 4.47039 14.3495 4.77007 14.6491L6.91727 16.7963C7.21695 17.096 7.27632 17.1604 7.30935 17.2069C7.53861 17.5296 7.53861 17.962 7.30935 18.2847Z" stroke="white" stroke-width="2"/>
</svg>