<svg width="29" height="30" viewBox="0 0 29 30" fill="none" xmlns="http://www.w3.org/2000/svg">
  <g filter="url(#filter0_d)">
    <path fill-rule="evenodd" clip-rule="evenodd" d="M25 5C25 4.17157 24.3284 3.5 23.5 3.5H4V23C4 23.8284 4.67157 24.5 5.5 24.5C6.32843 24.5 7 23.8284 7 23V6.5H23.5C24.3284 6.5 25 5.82843 25 5Z" fill="#162630"/>
    <path d="M3 3.5V2.5H4H23.5C24.8807 2.5 26 3.61929 26 5C26 6.38071 24.8807 7.5 23.5 7.5H8V23C8 24.3807 6.88071 25.5 5.5 25.5C4.11929 25.5 3 24.3807 3 23V3.5Z" stroke="white" stroke-width="2"/>
  </g>
  <defs>
    <filter id="filter0_d" x="0" y="0.5" width="29" height="29" filterUnits="userSpaceOnUse" color-interpolation-filters="sRGB">
    <feFlood flood-opacity="0" result="BackgroundImageFix"/>
    <feColorMatrix in="SourceAlpha" type="matrix" values="0 0 0 0 0 0 0 0 0 0 0 0 0 0 0 0 0 0 127 0"/>
    <feOffset dy="1"/>
    <feGaussianBlur stdDeviation="1"/>
    <feColorMatrix type="matrix" values="0 0 0 0 0 0 0 0 0 0 0 0 0 0 0 0 0 0 0.25 0"/>
    <feBlend mode="normal" in2="BackgroundImageFix" result="effect1_dropShadow"/>
    <feBlend mode="normal" in="SourceGraphic" in2="effect1_dropShadow" result="shape"/>
    </filter>
  </defs>
</svg>
