<svg width="18" height="18" fill="none" xmlns="http://www.w3.org/2000/svg"><path d="M.419 16.087a1 1 0 101.414 1.414L.419 16.087zM10.499 6a1 1 0 10-2 0h2zm-2 5a1 1 0 102 0h-2zM12 9.5a1 1 0 100-2v2zm-5-2a1 1 0 000 2v-2zm6.996 5.26c-2.502 2.503-6.499 2.52-8.927.091l-1.415 1.414c3.233 3.233 8.497 3.17 11.757-.09l-1.415-1.415zm-8.927.091c-2.429-2.429-2.412-6.425.09-8.928L3.745 2.51c-3.26 3.26-3.324 8.523-.09 11.756l1.414-1.414zm.09-8.928c2.502-2.502 6.5-2.519 8.928-.09l1.414-1.414c-3.233-3.233-8.496-3.17-11.756.09L5.16 3.923zm8.928-.09c2.429 2.428 2.412 6.425-.09 8.928l1.414 1.414c3.26-3.26 3.323-8.523.09-11.756l-1.414 1.414zM3.654 12.85L.42 16.087l1.414 1.414 3.236-3.236-1.415-1.414zM8.5 6v2.5h2V6h-2zm0 2.5V11h2V8.5h-2zm3.5-1H9.5v2H12v-2zm-2.5 0H7v2h2.5v-2z" fill="#657176"/></svg>