<svg width="20" height="18" fill="none" xmlns="http://www.w3.org/2000/svg"><path fill-rule="evenodd" clip-rule="evenodd" d="M15 6H5v10h10V6zM5 4a2 2 0 00-2 2v10c0 1.1.9 2 2 2h10a2 2 0 002-2V6a2 2 0 00-2-2H5z" fill="#42708A"/><path fill-rule="evenodd" clip-rule="evenodd" d="M15 6H5v10h10V6zM5 4a2 2 0 00-2 2v10c0 1.1.9 2 2 2h10a2 2 0 002-2V6a2 2 0 00-2-2H5z" fill="#42708A"/><path fill-rule="evenodd" clip-rule="evenodd" d="M7 14V7h2v7H7zM11 14V7h2v7h-2zM12 4H8V2h4v2zM8 6a2 2 0 01-2-2V2c0-1.1.9-2 2-2h4a2 2 0 012 2v2a2 2 0 01-2 2H8z" fill="#42708A"/><path fill-rule="evenodd" clip-rule="evenodd" d="M1 6a1 1 0 010-2h18a1 1 0 110 2H1z" fill="#42708A"/></svg>