<svg width="20" height="18" fill="none" xmlns="http://www.w3.org/2000/svg"><path fill-rule="evenodd" clip-rule="evenodd" d="M9 1v7.17a3 3 0 000 5.66v2.37a1 1 0 102 0v-2.37a3 3 0 000-5.66V1a1 1 0 10-2 0zM3.99 8.83L4 9v7.2a1 1 0 11-2 0V9a1 1 0 01.01-.17A3 3 0 012 3.17V1a1 1 0 012 0v2.17a3 3 0 01-.01 5.66zm12.02 0A3 3 0 0116 3.17V1a1 1 0 112 0v2.17a3 3 0 01-.01 5.66L18 9v7.2a1 1 0 11-2 0V9a1 1 0 01.01-.17zM2 6a1 1 0 112 0 1 1 0 01-2 0zm8 4a1 1 0 100 2 1 1 0 000-2zm6-4a1 1 0 112 0 1 1 0 01-2 0z" fill="#42708A"/></svg>