<svg width="17" height="12" viewBox="0 0 17 12" fill="none" xmlns="http://www.w3.org/2000/svg">
  <path fill-rule="evenodd" clip-rule="evenodd" d="M0 1C0 0.447715 0.447715 0 1 0H15.4161C15.9684 0 16.4161 0.447715 16.4161 1C16.4161 1.55228 15.9684 2 15.4161 2H1C0.447715 2 0 1.55228 0 1ZM0 5.80537C0 5.25308 0.447715 4.80537 1 4.80537H15.4161C15.9684 4.80537 16.4161 5.25308 16.4161 5.80537C16.4161 6.35765 15.9684 6.80537 15.4161 6.80537H1C0.447715 6.80537 0 6.35765 0 5.80537ZM0 10.6107C0 10.0585 0.447715 9.61074 1 9.61074H15.4161C15.9684 9.61074 16.4161 10.0585 16.4161 10.6107C16.4161 11.163 15.9684 11.6107 15.4161 11.6107H1C0.447715 11.6107 0 11.163 0 10.6107Z" fill="#657176"/>
</svg>
