<svg width="20" height="16" fill="none" xmlns="http://www.w3.org/2000/svg"><path fill-rule="evenodd" clip-rule="evenodd" d="M17.14 4.87c0 1.15-.96 2.09-2.14 2.09a2.12 2.12 0 01-2.14-2.09c0-1.15.96-2.09 2.14-2.09 1.18 0 2.14.94 2.14 2.09zm-1.43 0a.7.7 0 01-.71.7.7.7 0 01-.71-.7c0-.38.32-.7.71-.7.4 0 .71.32.71.7z" fill="#42708A"/><path fill-rule="evenodd" clip-rule="evenodd" d="M1.43 0C.64 0 0 .62 0 1.4v13.2c0 .78.64 1.4 1.43 1.4h17.14c.79 0 1.43-.62 1.43-1.4V1.4c0-.78-.64-1.4-1.43-1.4H1.43zm17.14 1.4H1.43v11.65l3.4-6.62c.51-1 1.97-1.03 2.52-.05l2.52 4.41 1.75-1.28a1.46 1.46 0 011.77.04l5.18 4.16V1.39zm-1.12 13.2H2.23L6.1 7.07l2.52 4.4c.42.74 1.41.95 2.1.44l1.76-1.28 4.97 3.99z" fill="#42708A"/></svg>