<svg width="13" height="15" viewBox="0 0 13 15" fill="none" xmlns="http://www.w3.org/2000/svg">
<path fill-rule="evenodd" clip-rule="evenodd" d="M0.831756 0.885041L6.5 5.11496L12.1682 0.885042L0.831756 0.885041ZM6.02392 5.84001C6.30977 6.05333 6.69023 6.05333 6.97608 5.84001L12.6443 1.6101C13.3093 1.11387 12.9799 4.75083e-07 12.1682 4.04123e-07L0.831756 -5.86945e-07C0.0200696 -6.57904e-07 -0.309285 1.11387 0.355675 1.6101L6.02392 5.84001Z" fill="#657176"/>
<path fill-rule="evenodd" clip-rule="evenodd" d="M12.1682 14.115L6.5 9.88504L0.831758 14.115L12.1682 14.115ZM6.97608 9.15999C6.69023 8.94667 6.30977 8.94667 6.02392 9.15999L0.355674 13.3899C-0.309287 13.8861 0.0200697 15 0.831758 15L12.1682 15C12.9799 15 13.3093 13.8861 12.6443 13.3899L6.97608 9.15999Z" fill="#657176"/>
<path fill-rule="evenodd" clip-rule="evenodd" d="M13 7.5C13 7.77614 12.8122 8 12.5806 8L0.419355 8C0.187752 8 -3.39263e-08 7.77614 -2.18557e-08 7.5C-9.78513e-09 7.22386 0.187752 7 0.419355 7L12.5806 7C12.8122 7 13 7.22386 13 7.5Z" fill="#657176"/>
</svg>
