<svg width="82" height="64" viewBox="0 0 82 64" fill="none" xmlns="http://www.w3.org/2000/svg">
  <path d="M70.6897 23.8806C70.6897 27.5735 67.5248 30.5672 63.6207 30.5672C59.7166 30.5672 56.5517 27.5735 56.5517 23.8806C56.5517 20.1877 59.7166 17.194 63.6207 17.194C67.5248 17.194 70.6897 20.1877 70.6897 23.8806Z" fill="grey" />
  <path fill-rule="evenodd" clip-rule="evenodd" d="M10.382 63.9651C6.27886 63.8602 3.86502 63.4406 2.20848 61.7618C0 59.5235 0 55.9212 0 48.7164V15.2836C0 8.07883 0 4.47646 2.20848 2.23823C4.41696 0 7.97146 0 15.0805 0H66.9195C74.0285 0 77.583 0 79.7915 2.23823C82 4.47646 82 8.07883 82 15.2836V48.7164C82 55.9212 82 59.5235 79.7915 61.7618C78.3949 63.1772 76.4599 63.6975 73.4281 63.8888C73.4578 63.9258 73.4875 63.9629 73.5172 64H10.3678C10.3725 63.9884 10.3773 63.9767 10.382 63.9651ZM15.0805 1.91045H66.9195C70.5273 1.91045 73.0435 1.91451 74.942 2.17319C76.7863 2.42449 77.763 2.88413 78.4586 3.58912C79.1542 4.29411 79.6077 5.2839 79.8557 7.15302C80.1109 9.0771 80.1149 11.6272 80.1149 15.2836V48.7164C80.1149 52.3728 80.1109 54.9229 79.8557 56.847C79.6077 58.7161 79.1542 59.7059 78.4586 60.4109C77.763 61.1159 76.7863 61.5755 74.942 61.8268C74.0854 61.9435 73.1029 62.0084 71.9512 62.0445C71.69 61.7181 71.4329 61.3967 71.1796 61.08C56.77 43.0668 54.8602 40.6793 46.8541 47.2969C43.3116 50.2251 41.7302 46.5661 39.8028 42.1065C38.4122 38.889 36.8415 35.2548 34.2243 33.3771C26.3258 27.7107 16.0699 50.2018 11.1586 62.0702C9.51208 62.0434 8.1776 61.9794 7.05796 61.8268C5.21368 61.5755 4.23704 61.1159 3.54142 60.4109C2.8458 59.7059 2.39227 58.7161 2.14431 56.847C1.88906 54.9229 1.88506 52.3728 1.88506 48.7164V15.2836C1.88506 11.6272 1.88906 9.0771 2.14431 7.15302C2.39227 5.2839 2.8458 4.29411 3.54142 3.58912C4.23704 2.88413 5.21368 2.42449 7.05796 2.17319C8.95646 1.91451 11.4727 1.91045 15.0805 1.91045Z" fill="grey" />
</svg>