<svg width="30" height="19" viewBox="0 0 30 19" fill="none" xmlns="http://www.w3.org/2000/svg">
<path d="M2.38367 10.3478C2.1101 10.0164 1.8842 9.72823 1.71039 9.5C1.8842 9.27177 2.1101 8.98364 2.38367 8.65225C3.09664 7.78858 4.12701 6.63886 5.39658 5.49208C7.96996 3.16759 11.3661 1 15.0001 1C18.6341 1 22.0303 3.16759 24.6037 5.49208C25.8732 6.63886 26.9036 7.78858 27.6166 8.65225C27.8901 8.98364 28.116 9.27177 28.2898 9.5C28.116 9.72823 27.8901 10.0164 27.6166 10.3478C26.9036 11.2114 25.8732 12.3611 24.6037 13.5079C22.0303 15.8324 18.6341 18 15.0001 18C11.3661 18 7.96996 15.8324 5.39658 13.5079C4.12701 12.3611 3.09664 11.2114 2.38367 10.3478Z" stroke="white" stroke-width="2"/>
<path d="M24.7849 7.39157C24.7678 7.38396 24.7506 7.37636 24.7334 7.36876C22.5984 6.42725 19.3878 5.50865 15.0001 5.50865C10.6124 5.50865 7.40183 6.42725 5.26686 7.36876C5.24962 7.37636 5.23245 7.38396 5.21535 7.39157C5.56739 6.83548 5.97893 6.24423 6.4511 5.65427C8.37418 3.25142 11.1908 1 15.0001 1C18.8095 1 21.6261 3.25142 23.5491 5.65427C24.0213 6.24423 24.4328 6.83547 24.7849 7.39157Z" stroke="white" stroke-width="2"/>
<path d="M18.4705 8.94129C18.4705 10.858 16.9166 12.4119 14.9999 12.4119C13.0831 12.4119 11.5293 10.858 11.5293 8.94129C11.5293 7.02454 13.0831 5.4707 14.9999 5.4707C16.9166 5.4707 18.4705 7.02454 18.4705 8.94129Z" stroke="white" stroke-width="2"/>
</svg>
