<svg width="16" height="24" fill="none" xmlns="http://www.w3.org/2000/svg"><path d="M11.57 4.571a3.571 3.571 0 11-7.143 0 3.571 3.571 0 017.143 0zM1 12.33c0-.76.063-1.289.156-1.647.094-.359.199-.475.229-.502h0c.003-.003.133-.135.869.119.33.113.702.277 1.132.475l.32.148c.332.154.69.321 1.051.476.952.41 2.083.813 3.243.813 1.16 0 2.29-.404 3.243-.813.36-.155.72-.322 1.052-.476l.319-.148c.43-.198.802-.362 1.132-.475.736-.254.866-.122.87-.119h0c.03.027.134.143.228.502.093.358.156.887.156 1.647 0 3.01-.986 5.724-2.39 7.667C11.18 21.973 9.444 23 8 23c-1.444 0-3.18-1.027-4.61-3.004C1.986 18.053 1 15.34 1 12.329z" stroke="#fff" stroke-width="2"/></svg>