<svg xmlns="http://www.w3.org/2000/svg" shape-rendering="crispEdges" height="100" width="100" viewBox="0 0 21 21" preserveAspectRatio="none"><path fill="#FFF" d="M0 0h21v21H0z"/><path d="M0 0h7v1H0zm8 0h1v1H8zm2 0h3v1h-3zm4 0h7v1h-7zM0 1h1v1H0zm6 0h1v1H6zm4 0h2v1h-2zm4 0h1v1h-1zm6 0h1v1h-1zM0 2h1v1H0zm2 0h3v1H2zm4 0h1v1H6zm2 0h2v1H8zm3 0h1v1h-1zm3 0h1v1h-1zm2 0h3v1h-3zm4 0h1v1h-1zM0 3h1v1H0zm2 0h3v1H2zm4 0h1v1H6zm2 0h2v1H8zm4 0h1v1h-1zm2 0h1v1h-1zm2 0h3v1h-3zm4 0h1v1h-1zM0 4h1v1H0zm2 0h3v1H2zm4 0h1v1H6zm2 0h1v1H8zm3 0h1v1h-1zm3 0h1v1h-1zm2 0h3v1h-3zm4 0h1v1h-1zM0 5h1v1H0zm6 0h1v1H6zm3 0h4v1H9zm5 0h1v1h-1zm6 0h1v1h-1zM0 6h7v1H0zm8 0h1v1H8zm2 0h1v1h-1zm2 0h1v1h-1zm2 0h7v1h-7zm-3 1h2v1h-2zM0 8h4v1H0zm6 0h1v1H6zm2 0h6v1H8zm8 0h3v1h-3zm4 0h1v1h-1zM2 9h2v1H2zm3 0h1v1H5zm2 0h4v1H7zm5 0h1v1h-1zm4 0h1v1h-1zm2 0h2v1h-2zM0 10h2v1H0zm3 0h7v1H3zm8 0h1v1h-1zm4 0h1v1h-1zm2 0h1v1h-1zm2 0h2v1h-2zM0 11h2v1H0zm4 0h1v1H4zm4 0h1v1H8zm2 0h1v1h-1zm2 0h1v1h-1zm3 0h1v1h-1zm2 0h1v1h-1zM2 12h2v1H2zm4 0h2v1H6zm6 0h1v1h-1zm2 0h2v1h-2zm3 0h1v1h-1zm2 0h1v1h-1zM8 13h1v1H8zm2 0h1v1h-1zm2 0h3v1h-3zm5 0h1v1h-1zM0 14h7v1H0zm9 0h1v1H9zm2 0h1v1h-1zm4 0h2v1h-2zm3 0h1v1h-1zM0 15h1v1H0zm6 0h1v1H6zm3 0h3v1H9zm4 0h1v1h-1zm2 0h1v1h-1zm2 0h3v1h-3zM0 16h1v1H0zm2 0h3v1H2zm4 0h1v1H6zm3 0h1v1H9zm3 0h1v1h-1zm3 0h1v1h-1zm2 0h3v1h-3zM0 17h1v1H0zm2 0h3v1H2zm4 0h1v1H6zm2 0h2v1H8zm4 0h2v1h-2zm3 0h1v1h-1zm3 0h2v1h-2zM0 18h1v1H0zm2 0h3v1H2zm4 0h1v1H6zm2 0h6v1H8zm9 0h2v1h-2zM0 19h1v1H0zm6 0h1v1H6zm2 0h1v1H8zm3 0h1v1h-1zm2 0h2v1h-2zm3 0h1v1h-1zm4 0h1v1h-1zM0 20h7v1H0zm8 0h4v1H8zm6 0h2v1h-2zm4 0h1v1h-1z"/></svg>