<svg width="29" height="12" viewBox="0 0 29 12" fill="none" xmlns="http://www.w3.org/2000/svg">
<path d="M7.86479 5.4259V5.07716L7.69739 5.4259H6.24944L6.0681 5.04925V5.4259H3.35911L3.03828 4.66983H2.49704L2.15946 5.4259H0.753357V3.13818L1.78283 0.808612H3.75249L4.02869 1.46981V0.814197H6.43916L6.96923 1.92457L7.48815 0.808612H15.099C15.099 0.808612 15.4979 0.803036 15.7602 0.987169V0.808612H17.6768V1.05971C17.6768 1.05971 18.02 0.808612 18.5305 0.808612C19.0411 0.808612 21.9119 0.808612 21.9119 0.808612L22.2104 1.47819V0.808612H24.3782L24.7715 1.47819V0.808612H26.8444V5.42867H24.7157L24.2163 4.62241V5.4231H21.5715L21.2005 4.59729H20.6815L20.3328 5.4231H18.7314C18.7314 5.4231 18.1344 5.41473 17.6852 5.0939C17.6852 5.26129 17.6852 5.4231 17.6852 5.4231H14.4964C14.4964 5.4231 14.4964 4.50243 14.4964 4.34619C14.4964 4.18996 14.3764 4.20113 14.3764 4.20113H14.2592V5.4231H7.86479V5.4259Z" fill="white"/>
<path d="M6.27454 6.4248H10.465L11.0704 7.10833L11.6897 6.4248H14.912C14.912 6.4248 15.2134 6.43318 15.5007 6.58662V6.4248C15.5007 6.4248 18.006 6.4248 18.3687 6.4248C18.7314 6.4248 19.0383 6.60615 19.0383 6.60615V6.4248H22.7265V6.59221C22.7265 6.59221 22.9888 6.4248 23.3431 6.4248C23.6946 6.4248 25.7452 6.4248 25.7452 6.4248V6.59221C25.7452 6.59221 26.0465 6.4248 26.3673 6.4248C26.6882 6.4248 28.2533 6.4248 28.2533 6.4248V10.777C28.2533 10.777 28.005 11.0588 27.4917 11.0588H25.0059V10.9193C25.0059 10.9193 24.7687 11.0588 24.4088 11.0588C24.0489 11.0588 17.8052 11.0588 17.8052 11.0588C17.8052 11.0588 17.8052 10.0461 17.8052 9.93449C17.8052 9.8229 17.7577 9.80338 17.6573 9.80338H17.5652V11.0588H15.5007V9.81174C15.5007 9.81174 15.2719 9.93449 14.8897 9.93449C14.5075 9.93449 14.1476 9.93449 14.1476 9.93449V11.0588H11.6032L11.0229 10.353L10.4036 11.0588H6.27733V6.4248H6.27454Z" fill="white"/>
<path d="M19.4761 7.11914H22.107V7.82499H20.2824V8.43877H22.054V9.06091H20.2824V9.70817H22.107V10.3945H19.4761V7.11914Z" fill="#0078A9"/>
<path d="M27.1849 8.39733C28.1725 8.44754 28.2562 8.94136 28.2562 9.46865C28.2562 10.0824 27.7512 10.4116 27.2267 10.4116H25.5389V9.70858H26.8557C27.0789 9.70858 27.4109 9.70858 27.4109 9.39332C27.4109 9.24267 27.3523 9.14782 27.1151 9.12271C27.0091 9.10876 26.6185 9.08644 26.56 9.08365C25.6672 9.06133 25.4579 8.61495 25.4579 8.0765C25.4579 7.46272 25.8904 7.12793 26.4177 7.12793H28.1056V7.83099H26.8696C26.5879 7.83378 26.2865 7.7975 26.2865 8.11554C26.2865 8.31642 26.4372 8.35826 26.6269 8.375C26.6883 8.375 27.1263 8.39733 27.1849 8.39733Z" fill="#0078A9"/>
<path d="M24.1579 8.39733C25.1455 8.44754 25.2292 8.94136 25.2292 9.46865C25.2292 10.0824 24.7242 10.4116 24.1969 10.4116H22.509V9.70858H23.8259C24.049 9.70858 24.381 9.70858 24.381 9.39332C24.381 9.24267 24.3225 9.14782 24.0853 9.12271C23.9793 9.10876 23.5887 9.08644 23.5301 9.08365C22.6374 9.06133 22.4309 8.61495 22.4309 8.0765C22.4309 7.46272 22.8633 7.12793 23.3878 7.12793H25.0757V7.83099H23.8398C23.558 7.83378 23.2539 7.7975 23.2539 8.11554C23.2539 8.31642 23.4046 8.35826 23.5943 8.375C23.6613 8.375 24.0993 8.39733 24.1579 8.39733Z" fill="#0078A9"/>
<path d="M14.6219 7.12752H11.7985L10.8778 8.14304L9.98506 7.11914H6.81573V10.3945H9.88183L10.8471 9.31201L11.7901 10.4028H13.3329V9.28968H14.4154C14.8311 9.28968 15.5927 9.27574 15.5927 8.1263C15.5955 7.30887 15.018 7.12752 14.6219 7.12752ZM9.46335 9.70817H7.61086V9.06091H9.38523V8.43877H7.61086V7.82499L9.56657 7.83058L10.3505 8.72333L9.46335 9.70817ZM12.5378 10.0876L11.3828 8.72055L12.5378 7.43998V10.0876ZM14.3512 8.61733H13.3497V7.83058H14.354C14.6916 7.83058 14.7976 8.04539 14.7976 8.2072C14.7976 8.42761 14.6804 8.61733 14.3512 8.61733Z" fill="#0078A9"/>
<path d="M18.5084 8.91067C18.9464 8.69027 19.0636 8.40012 19.0636 8.00396C19.0636 7.3037 18.4945 7.12793 18.0983 7.12793H16.0087V10.4033H16.8122V9.24824H17.8639C18.1429 9.24824 18.2517 9.52724 18.2573 9.80344L18.2796 10.4033H19.0608L19.0329 9.7309C19.0329 9.20361 18.8878 8.95531 18.5084 8.91067ZM17.8137 8.57309H16.8122V7.83099H17.8165C18.1541 7.83099 18.2601 8.0458 18.2601 8.20762C18.2601 8.42523 18.1429 8.57309 17.8137 8.57309Z" fill="#0078A9"/>
<path d="M17.133 1.4668H16.3295V4.74492H17.133V1.4668Z" fill="#0078A9"/>
<path d="M9.74536 1.46973H12.3734V2.17558H10.5516V2.78936H12.3232V3.4115H10.5516V4.05875H12.3734V4.74507H9.74536V1.46973Z" fill="#0078A9"/>
<path d="M15.3528 3.25247C15.7908 3.03486 15.908 2.74192 15.908 2.34576C15.908 1.6427 15.3388 1.46973 14.9427 1.46973H12.853V4.74507H13.6565V3.59005H14.7083C14.9873 3.59005 15.0961 3.86625 15.1045 4.14524L15.1268 4.74507H15.908L15.8801 4.0727C15.8801 3.54541 15.7322 3.29711 15.3528 3.25247ZM14.6581 2.91491H13.6565V2.17278H14.6609C14.9985 2.17278 15.1017 2.38762 15.1017 2.54943C15.1045 2.76704 14.9873 2.91491 14.6581 2.91491Z" fill="#0078A9"/>
<path d="M7.89273 1.46973L6.9051 3.66816L5.92027 1.46973H4.65924V4.62509L3.25593 1.46973H2.19298L0.758972 4.74507H1.6071L1.91957 4.01412H3.52376L3.8418 4.74507H5.45994V2.31507L6.53405 4.74507H7.265L8.36422 2.35413V4.74507H9.16771V1.46973H7.89273ZM2.22646 3.30827L2.70632 2.16442L3.2057 3.30827H2.22646Z" fill="#0078A9"/>
<path d="M25.4329 1.4668V3.73498L24.077 1.4668H22.8885V4.54404L21.5186 1.46957H20.4557L19.3481 4.00559C19.3481 4.00559 18.8794 4.0056 18.832 3.99444C18.6367 3.95538 18.3354 3.81867 18.3326 3.24116V3.00401C18.3326 2.23679 18.7511 2.18101 19.2839 2.18101H19.7805V1.46957H18.7315C18.3661 1.46957 17.5709 1.74856 17.543 3.09329C17.5235 4.00001 17.9197 4.74769 18.8097 4.74769H19.8698L20.1851 4.01674H21.7893L22.1073 4.74769H23.6948V2.34839L25.1427 4.74769H26.2391V1.46957H25.4329V1.4668ZM20.492 3.30812L20.9718 2.16427L21.4768 3.30812H20.492Z" fill="#0078A9"/>
</svg>
