<svg width="22" height="14" viewBox="0 0 22 14" fill="none" xmlns="http://www.w3.org/2000/svg">
<path d="M15.1089 13.2163L15.4325 13.208L15.7534 13.1829L16.0658 13.1438L16.3755 13.088L16.6824 13.0183L16.9809 12.9346L17.2711 12.8341L17.5584 12.7197L17.8374 12.5942L18.108 12.4575L18.3703 12.3068L18.627 12.1422L18.8725 11.9665L19.1096 11.7795L19.3412 11.5815L19.5588 11.3722L19.7652 11.1546L19.9633 10.9258L20.1502 10.6887L20.326 10.4432L20.4906 10.1865L20.6412 9.92148L20.7807 9.65086L20.9063 9.37466L21.0179 9.0873L21.1155 8.79436L21.202 8.49584L21.2718 8.19174L21.3276 7.88207L21.3666 7.56681L21.3917 7.24876L21.4001 6.92234L21.3917 6.60151L21.3666 6.28346L21.3276 5.97099L21.2718 5.66132L21.202 5.36001L21.1155 5.06428L21.0179 4.77413L20.9063 4.48677L20.7807 4.21057L20.6412 3.93995L20.4906 3.6777L20.326 3.42382L20.1502 3.17831L19.9633 2.94117L19.7652 2.7124L19.5588 2.49479L19.3412 2.28833L19.1096 2.09025L18.8725 1.90333L18.627 1.72757L18.3703 1.56575L18.108 1.4151L17.8374 1.27281L17.5584 1.14727L17.2711 1.03568L16.9809 0.938028L16.6824 0.85433L16.3755 0.781794L16.0658 0.725997L15.7534 0.686939L15.4325 0.664619L15.1089 0.65625L14.7853 0.664619L14.4644 0.686939L14.152 0.725997L13.8423 0.781794L13.5354 0.85433L13.2397 0.938028L12.9467 1.03568L12.6622 1.14727L12.3832 1.27281L12.1125 1.4151L11.8503 1.56575L11.5936 1.72757L11.3481 1.90333L11.111 2.09025L10.885 2.28833L10.6674 2.49479L10.4581 2.7124L10.2601 2.94117L10.0731 3.17831L9.90017 3.42382L9.73557 3.6777L9.58491 3.93995L9.44821 4.21057L9.32266 4.48677L9.21107 4.77413L9.11064 5.06428L9.02693 5.36001L8.95718 5.66132L8.9014 5.97099L8.86233 6.28346L8.83722 6.60151L8.82886 6.92234L8.83722 7.24876L8.86233 7.56681L8.9014 7.88207L8.95718 8.19174L9.02693 8.49584L9.11064 8.79436L9.21107 9.0873L9.32266 9.37466L9.44821 9.65086L9.58491 9.92148L9.73557 10.1865L9.90017 10.4432L10.0731 10.6887L10.2601 10.9258L10.4581 11.1546L10.6674 11.3722L10.885 11.5815L11.111 11.7795L11.3481 11.9665L11.5936 12.1422L11.8503 12.3068L12.1125 12.4575L12.3832 12.5942L12.6622 12.7197L12.9467 12.8341L13.2397 12.9346L13.5354 13.0183L13.8423 13.088L14.152 13.1438L14.4644 13.1829L14.7853 13.208L15.1089 13.2163Z" fill="#EC1C2E"/>
<path d="M6.77814 13.2163L7.10178 13.208L7.4226 13.1829L7.73507 13.1438L8.04476 13.088L8.35164 13.0183L8.64737 12.9346L8.9403 12.8341L9.22488 12.7197L9.50387 12.5942L9.7745 12.4575L10.0367 12.3068L10.2934 12.1422L10.5389 11.9665L10.7761 11.7795L11.002 11.5815L11.2224 11.3722L11.4289 11.1546L11.627 10.9258L11.8111 10.6887L11.9869 10.4432L12.1515 10.1865L12.3021 9.92148L12.4388 9.65086L12.5644 9.37466L12.6788 9.0873L12.7764 8.79436L12.8601 8.49584L12.9299 8.19174L12.9856 7.88207L13.0247 7.56681L13.0498 7.24876L13.0554 6.92234L13.0498 6.60151L13.0247 6.28346L12.9856 5.97099L12.9299 5.66132L12.8601 5.36001L12.7764 5.06428L12.6788 4.77413L12.5644 4.48677L12.4388 4.21057L12.3021 3.93995L12.1515 3.6777L11.9869 3.42382L11.8111 3.17831L11.627 2.94117L11.4289 2.7124L11.2224 2.49479L11.002 2.28833L10.7761 2.09025L10.5389 1.90333L10.2934 1.72757L10.0367 1.56575L9.7745 1.4151L9.50387 1.27281L9.22488 1.14727L8.9403 1.03568L8.64737 0.938028L8.35164 0.85433L8.04476 0.781794L7.73507 0.725997L7.4226 0.686939L7.10178 0.664619L6.77814 0.65625L6.45452 0.664619L6.13368 0.686939L5.82121 0.725997L5.51154 0.781794L5.20465 0.85433L4.90613 0.938028L4.61597 1.03568L4.32862 1.14727L4.04963 1.27281L3.77901 1.4151L3.51398 1.56575L3.26009 1.72757L3.01458 1.90333L2.77745 2.09025L2.54588 2.28833L2.33105 2.49479L2.12181 2.7124L1.92374 2.94117L1.7368 3.17831L1.56106 3.42382L1.39645 3.6777L1.2458 3.93995L1.1063 4.21057L0.980755 4.48677L0.869152 4.77413L0.76872 5.06428L0.685027 5.36001L0.61528 5.66132L0.559478 5.97099L0.520416 6.28346L0.495316 6.60151L0.486938 6.92234L0.495316 7.24876L0.520416 7.56681L0.559478 7.88207L0.61528 8.19174L0.685027 8.49584L0.76872 8.79436L0.869152 9.0873L0.980755 9.37466L1.1063 9.65086L1.2458 9.92148L1.39645 10.1865L1.56106 10.4432L1.7368 10.6887L1.92374 10.9258L2.12181 11.1546L2.33105 11.3722L2.54588 11.5815L2.77745 11.7795L3.01458 11.9665L3.26009 12.1422L3.51398 12.3068L3.77901 12.4575L4.04963 12.5942L4.32862 12.7197L4.61597 12.8341L4.90613 12.9346L5.20465 13.0183L5.51154 13.088L5.82121 13.1438L6.13368 13.1829L6.45452 13.208L6.77814 13.2163Z" fill="#0084C4"/>
<path d="M10.1707 3.04684H13.3539V2.69531H10.4775L10.1707 3.04684Z" fill="#EC1C2E"/>
<path d="M9.66846 3.78917H13.3539V3.44043H9.89444L9.66846 3.78917Z" fill="#EC1C2E"/>
<path d="M9.2948 4.54489H13.3541V4.19336H9.46777L9.2948 4.54489Z" fill="#EC1C2E"/>
<path d="M9.05188 5.28721H13.3539V4.93848H9.16069L9.05188 5.28721Z" fill="#EC1C2E"/>
<path d="M8.89301 6.03233H13.354V5.68359H8.95717L8.89301 6.03233Z" fill="#EC1C2E"/>
<path d="M8.85954 7.4775H13.3541V7.12598H8.82886L8.85954 7.4775Z" fill="#EC1C2E"/>
<path d="M8.96841 8.26461H13.3541V7.91309H8.90424L8.96841 8.26461Z" fill="#EC1C2E"/>
<path d="M9.18036 8.90036H13.354V8.54883H9.07434L9.18036 8.90036Z" fill="#EC1C2E"/>
<path d="M9.4983 9.67588H13.3539V9.32715H9.32812L9.4983 9.67588Z" fill="#EC1C2E"/>
<path d="M9.9476 10.4629H13.354V10.1113H9.71045L9.9476 10.4629Z" fill="#EC1C2E"/>
<path d="M10.5083 11.2187H13.3233V10.8672H10.2014L10.5083 11.2187Z" fill="#EC1C2E"/>
<path d="M20.3652 10.7808L20.3848 10.725L20.4155 10.6748L20.4545 10.6274L20.4991 10.5911L20.5522 10.5632L20.608 10.5437L20.6665 10.5381L20.7279 10.5437L20.7865 10.5632L20.8395 10.5911L20.8842 10.6274L20.9204 10.6748L20.9511 10.725L20.9679 10.7808H20.9037L20.8925 10.7417L20.8702 10.6971L20.8395 10.6608L20.806 10.6329L20.7642 10.6106L20.7168 10.5939L20.6665 10.5911L20.6191 10.5939L20.5689 10.6106L20.5298 10.6329L20.4908 10.6608L20.4629 10.6971L20.4406 10.7417L20.4266 10.7808H20.3652Z" fill="#EC1C2E"/>
<path d="M20.5601 10.7804V10.7051H20.6773L20.7052 10.7079L20.7275 10.7107L20.747 10.7162L20.7638 10.7246L20.7749 10.7358L20.7861 10.7469L20.7917 10.7609L20.7945 10.7804H20.7415L20.7387 10.7692L20.7359 10.7609L20.7275 10.7525L20.7191 10.7469L20.7108 10.7441L20.6996 10.7413L20.6885 10.7386H20.6773H20.6131V10.7804H20.5601Z" fill="#EC1C2E"/>
<path d="M20.3619 10.8343L20.3647 10.784V10.7812H20.4261V10.7924L20.4205 10.8343H20.3619Z" fill="#EC1C2E"/>
<path d="M20.5601 10.8343V10.7812H20.6131V10.8259H20.6661H20.6857H20.7024L20.7136 10.8231L20.7247 10.8175L20.7303 10.8147L20.7359 10.8064L20.7415 10.7952V10.7812H20.7945L20.7917 10.8008L20.7889 10.8175L20.7833 10.8287L20.7749 10.8343H20.5601Z" fill="#EC1C2E"/>
<path d="M20.909 10.8343L20.9062 10.7924L20.9034 10.7812H20.9676V10.784L20.9732 10.8343H20.909Z" fill="#EC1C2E"/>
<path d="M20.362 10.834L20.3593 10.8451L20.3648 10.9065L20.3844 10.9651L20.4151 11.0153L20.4541 11.06L20.4987 11.0934L20.5518 11.1213L20.6076 11.1381L20.6662 11.1437L20.7275 11.1381L20.7861 11.1213L20.8391 11.0934L20.8838 11.06L20.92 11.0153L20.9507 10.9651L20.9675 10.9065L20.973 10.8451V10.834H20.9089V10.8451L20.9061 10.8982L20.8921 10.9484L20.8698 10.993L20.8391 11.0293L20.8056 11.06L20.7638 11.0823L20.7164 11.0962L20.6662 11.1018L20.6187 11.0962L20.5685 11.0823L20.5294 11.06L20.4904 11.0293L20.4625 10.993L20.4402 10.9484L20.4262 10.8982L20.4206 10.8451V10.834H20.362Z" fill="#EC1C2E"/>
<path d="M20.5601 10.834V10.9623H20.6131V10.8591H20.6661L20.7303 10.9623H20.7833L20.708 10.8591L20.7275 10.8563L20.7442 10.8535L20.761 10.8479L20.7722 10.8396L20.7749 10.834H20.5601Z" fill="#EC1C2E"/>
<path d="M13.7474 6.39487L13.7083 6.39208L13.6665 6.38929L13.6274 6.38093L13.5912 6.37813L13.5549 6.37256L13.5186 6.36697L13.4768 6.35861L13.4377 6.35302L13.3931 6.35024L13.3484 6.34466L13.2954 6.34187L13.2396 6.33907H13.1783L13.1113 6.34187L13.0332 6.34466L12.9523 6.35024L12.8909 6.35861L12.8351 6.37256L12.7849 6.38929L12.7402 6.40603L12.6984 6.42835L12.6621 6.45625L12.6287 6.48415L12.6063 6.51205L12.5868 6.54553L12.5728 6.5818L12.5673 6.61527V6.65154L12.5756 6.6906L12.5896 6.73245L12.6119 6.77151L12.6426 6.81057L12.7012 6.86358L12.7709 6.90821L12.8546 6.94448L12.9439 6.97517L13.036 7.00586L13.1336 7.03655L13.2313 7.07282L13.3261 7.11188L13.4154 7.16209L13.5019 7.22347L13.5744 7.2988L13.6358 7.39086L13.6832 7.50246L13.7167 7.63358L13.7251 7.78982L13.7167 7.97674L13.6916 8.11344L13.6553 8.23899L13.6079 8.35059L13.5465 8.44823L13.4768 8.53472L13.4015 8.61005L13.3177 8.67422L13.2257 8.73001L13.1308 8.77465L13.0332 8.81092L12.93 8.84161L12.8295 8.86393L12.7291 8.88066L12.6287 8.89183L12.5338 8.8974L12.4417 8.9002H12.3134L12.199 8.8974H12.093L11.9953 8.89462L11.9061 8.88903L11.828 8.88625L11.7554 8.88066L11.6885 8.8723L11.6271 8.86393L11.5685 8.85277L11.5155 8.84161L11.4625 8.82766L11.4123 8.81371L11.362 8.79976L11.3118 8.78023L11.2616 8.76349L11.3899 8.11344L11.4178 8.12181L11.4541 8.13018L11.496 8.14135L11.5434 8.1525L11.5992 8.16367L11.6605 8.17761L11.7275 8.19156L11.7973 8.20272L11.8726 8.21388L11.9507 8.22225L12.0316 8.23062L12.1153 8.23899L12.2018 8.24457L12.2883 8.24736H12.3748L12.4612 8.24178L12.545 8.22783L12.6119 8.20551L12.6649 8.17203L12.7068 8.13576L12.7375 8.09113L12.7598 8.04649L12.7793 8.00185L12.7905 7.95442L12.796 7.907V7.86514L12.7849 7.82609L12.7681 7.7954L12.7458 7.76192L12.7151 7.73123L12.6817 7.70612L12.6426 7.68101L12.598 7.65869L12.5505 7.63638L12.5003 7.61126L12.4445 7.59174L12.3915 7.57221L12.3357 7.54989L12.2771 7.52478L12.2158 7.50246L12.16 7.47735L12.1014 7.44945L12.0428 7.41876L11.987 7.38528L11.934 7.34902L11.8838 7.30996L11.8363 7.26532L11.7945 7.21789L11.7554 7.16488L11.7191 7.10629L11.6913 7.04213L11.6661 6.97517L11.6494 6.89705L11.6382 6.81615L11.6354 6.72408L11.6438 6.62923L11.6494 6.56785L11.6578 6.50926L11.6661 6.45625L11.6773 6.40045L11.6913 6.35024L11.7052 6.29723L11.7247 6.2498L11.7415 6.20237L11.7638 6.16052L11.7889 6.11588L11.814 6.07682L11.8447 6.03777L11.8754 6.0015L11.9061 5.96523L11.9423 5.93175L11.9814 5.90106L12.0232 5.87316L12.0651 5.84526L12.1125 5.82015L12.1627 5.79505L12.2158 5.77552L12.2715 5.75599L12.3273 5.73925L12.3887 5.72251L12.4557 5.70856L12.5254 5.69461L12.5952 5.68345L12.6677 5.67787L12.7486 5.6695L12.8295 5.66671L12.916 5.66113H13.0025H13.1113L13.2117 5.66392L13.301 5.66671L13.3819 5.6695L13.4544 5.67508L13.5214 5.67787L13.58 5.68345L13.633 5.68903L13.6804 5.69461L13.7223 5.70019L13.7613 5.70577L13.7948 5.71135L13.8227 5.71693L13.8506 5.71972L13.8729 5.7253H13.898L13.7474 6.39487Z" fill="white"/>
<path d="M13.7474 6.39487L13.7083 6.39208L13.6665 6.38929L13.6274 6.38093L13.5912 6.37813L13.5549 6.37256L13.5186 6.36697L13.4768 6.35861L13.4377 6.35302L13.3931 6.35024L13.3484 6.34466L13.2954 6.34187L13.2396 6.33907H13.1783L13.1113 6.34187L13.0332 6.34466L12.9523 6.35024L12.8909 6.35861L12.8351 6.37256L12.7849 6.38929L12.7402 6.40603L12.6984 6.42835L12.6621 6.45625L12.6287 6.48415L12.6063 6.51205L12.5868 6.54553L12.5728 6.5818L12.5673 6.61527V6.65154L12.5756 6.6906L12.5896 6.73245L12.6119 6.77151L12.6426 6.81057L12.7012 6.86358L12.7709 6.90821L12.8546 6.94448L12.9439 6.97517L13.036 7.00586L13.1336 7.03655L13.2313 7.07282L13.3261 7.11188L13.4154 7.16209L13.5019 7.22347L13.5744 7.2988L13.6358 7.39086L13.6832 7.50246L13.7167 7.63358L13.7251 7.78982L13.7167 7.97674L13.6916 8.11344L13.6553 8.23899L13.6079 8.35059L13.5465 8.44823L13.4768 8.53472L13.4015 8.61005L13.3177 8.67422L13.2257 8.73001L13.1308 8.77465L13.0332 8.81092L12.93 8.84161L12.8295 8.86393L12.7291 8.88066L12.6287 8.89183L12.5338 8.8974L12.4417 8.9002H12.3134L12.199 8.8974H12.093L11.9953 8.89462L11.9061 8.88903L11.828 8.88625L11.7554 8.88066L11.6885 8.8723L11.6271 8.86393L11.5685 8.85277L11.5155 8.84161L11.4625 8.82766L11.4123 8.81371L11.362 8.79976L11.3118 8.78023L11.2616 8.76349L11.3899 8.11344L11.4178 8.12181L11.4541 8.13018L11.496 8.14135L11.5434 8.1525L11.5992 8.16367L11.6605 8.17761L11.7275 8.19156L11.7973 8.20272L11.8726 8.21388L11.9507 8.22225L12.0316 8.23062L12.1153 8.23899L12.2018 8.24457L12.2883 8.24736H12.3748L12.4612 8.24178L12.545 8.22783L12.6119 8.20551L12.6649 8.17203L12.7068 8.13576L12.7375 8.09113L12.7598 8.04649L12.7793 8.00185L12.7905 7.95442L12.796 7.907V7.86514L12.7849 7.82609L12.7681 7.7954L12.7458 7.76192L12.7151 7.73123L12.6817 7.70612L12.6426 7.68101L12.598 7.65869L12.5505 7.63638L12.5003 7.61126L12.4445 7.59174L12.3915 7.57221L12.3357 7.54989L12.2771 7.52478L12.2158 7.50246L12.16 7.47735L12.1014 7.44945L12.0428 7.41876L11.987 7.38528L11.934 7.34902L11.8838 7.30996L11.8363 7.26532L11.7945 7.21789L11.7554 7.16488L11.7191 7.10629L11.6913 7.04213L11.6661 6.97517L11.6494 6.89705L11.6382 6.81615L11.6354 6.72408L11.6438 6.62923L11.6494 6.56785L11.6578 6.50926L11.6661 6.45625L11.6773 6.40045L11.6913 6.35024L11.7052 6.29723L11.7247 6.2498L11.7415 6.20237L11.7638 6.16052L11.7889 6.11588L11.814 6.07682L11.8447 6.03777L11.8754 6.0015L11.9061 5.96523L11.9423 5.93175L11.9814 5.90106L12.0232 5.87316L12.0651 5.84526L12.1125 5.82015L12.1627 5.79505L12.2158 5.77552L12.2715 5.75599L12.3273 5.73925L12.3887 5.72251L12.4557 5.70856L12.5254 5.69461L12.5952 5.68345L12.6677 5.67787L12.7486 5.6695L12.8295 5.66671L12.916 5.66113H13.0025H13.1113L13.2117 5.66392L13.301 5.66671L13.3819 5.6695L13.4544 5.67508L13.5214 5.67787L13.58 5.68345L13.633 5.68903L13.6804 5.69461L13.7223 5.70019L13.7613 5.70577L13.7948 5.71135L13.8227 5.71693L13.8506 5.71972L13.8729 5.7253H13.898L13.7474 6.39487Z" stroke="white" stroke-width="0.215"/>
<path d="M14.4283 5.01367H15.2569L15.1285 5.73625H15.6391L15.5247 6.39467L15.0002 6.38351L14.7268 8.02954L14.724 8.06302V8.0965L14.7268 8.12161L14.7352 8.14672L14.7463 8.16904L14.7603 8.18857L14.7798 8.20531L14.8021 8.21647L14.8272 8.23042L14.8523 8.23879L14.8802 8.24715L14.9081 8.25274L14.9416 8.25832L14.9751 8.2611L15.0086 8.2639H15.0448H15.1118L15.1676 8.25832L15.2234 8.24995L15.268 8.23879L15.3015 8.23042L15.3294 8.21926L15.3461 8.21089L15.3517 8.2081L15.268 8.77166L15.2485 8.78561L15.2234 8.79398L15.2011 8.80513L15.1788 8.81629L15.1564 8.82466L15.1313 8.83303L15.1062 8.8414L15.0783 8.84977L15.0476 8.85814L15.0169 8.86372L14.9835 8.8693L14.9444 8.87488L14.9053 8.88046L14.8663 8.88883L14.8189 8.89441L14.7686 8.89999H14.5455L14.4283 8.89162L14.3223 8.88046L14.2302 8.86372L14.1493 8.8414L14.0795 8.81629L14.0237 8.78561L13.9763 8.74934L13.9373 8.71028L13.9066 8.66564L13.8815 8.61821L13.8675 8.56799L13.8591 8.50941V8.45082V8.38386L13.8647 8.3169L13.8759 8.24158L14.4283 5.01367Z" fill="white"/>
<path d="M14.4283 5.01367H15.2569L15.1285 5.73625H15.6391L15.5247 6.39467L15.0002 6.38351L14.7268 8.02954L14.724 8.06303V8.0965L14.7268 8.12161L14.7352 8.14672L14.7463 8.16904L14.7603 8.18857L14.7798 8.20531L14.8021 8.21647L14.8272 8.23042L14.8523 8.23879L14.8802 8.24715L14.9081 8.25274L14.9416 8.25832L14.9751 8.2611L15.0086 8.2639H15.0448H15.1118L15.1676 8.25832L15.2234 8.24995L15.268 8.23879L15.3015 8.23042L15.3294 8.21926L15.3461 8.21089L15.3517 8.2081L15.268 8.77166L15.2485 8.78561L15.2234 8.79398L15.2011 8.80513L15.1788 8.81629L15.1564 8.82466L15.1313 8.83303L15.1062 8.8414L15.0783 8.84977L15.0476 8.85814L15.0169 8.86372L14.9835 8.8693L14.9444 8.87488L14.9053 8.88046L14.8663 8.88883L14.8189 8.89441L14.7686 8.89999H14.5455L14.4283 8.89162L14.3223 8.88046L14.2302 8.86372L14.1493 8.8414L14.0795 8.81629L14.0237 8.78561L13.9763 8.74934L13.9373 8.71028L13.9066 8.66564L13.8815 8.61821L13.8675 8.56799L13.8591 8.50941V8.45082V8.38386L13.8647 8.3169L13.8759 8.24158L14.4283 5.01367Z" stroke="white" stroke-width="0.215"/>
<path d="M9.38409 7.51976L9.37293 7.57277L9.37014 7.62299L9.37571 7.67878L9.38688 7.73179L9.40362 7.78759L9.42872 7.84339L9.45663 7.89918L9.4929 7.9494L9.53194 7.99962L9.57659 8.04705L9.62401 8.0889L9.67702 8.12796L9.73282 8.16143L9.78862 8.18655L9.85279 8.20886L9.91417 8.22281L9.9867 8.23118L10.062 8.24234L10.1374 8.25071L10.2155 8.25629H10.2936H10.3689L10.4498 8.2535L10.5279 8.24792L10.6089 8.23397L10.6925 8.22002L10.7734 8.20049L10.8571 8.1726L10.9381 8.14191L11.0273 8.10564L11.111 8.05821L11.1975 8.01078L11.0692 8.74173L11.0218 8.76684L10.9743 8.78916L10.9297 8.80869L10.885 8.82543L10.8404 8.84217L10.7958 8.85333L10.7483 8.86449L10.6953 8.87565L10.6423 8.88123L10.5837 8.88681L10.5196 8.89239L10.4526 8.89518L10.3773 8.89796H10.2964L10.2043 8.90076H10.1067H10.0341L9.9588 8.89796L9.88626 8.89239L9.81372 8.88402L9.73562 8.87565L9.66308 8.8617L9.58774 8.84496L9.51243 8.82822L9.43989 8.8059L9.37014 8.78358L9.2976 8.75568L9.22785 8.72499L9.1609 8.69152L9.09394 8.65246L9.03256 8.6134L8.97119 8.56597L8.91259 8.51854L8.85679 8.46274L8.80378 8.40695L8.75636 8.34278L8.70894 8.27582L8.66988 8.20607L8.63081 8.13074L8.60013 8.04705L8.56944 7.96335L8.54712 7.87129L8.52759 7.77643L8.51643 7.6732L8.50806 7.5644V7.45559L8.51085 7.33563L8.522 7.21008L8.52759 7.16823L8.53597 7.11802L8.54433 7.0678L8.5527 7.01479L8.56386 6.95899L8.5778 6.90041L8.59454 6.84182L8.61128 6.78044L8.63081 6.71627L8.65314 6.65211L8.68103 6.58794L8.70894 6.52656L8.74241 6.46239L8.77868 6.39822L8.81773 6.33405L8.85959 6.27268L8.90701 6.2113L8.95445 6.15271L9.01023 6.09413L9.06883 6.04112L9.1302 5.98532L9.19994 5.93789L9.27248 5.89046L9.35061 5.84862L9.43151 5.81235L9.52079 5.77608L9.61286 5.74539L9.71329 5.72028L9.81931 5.70075L9.93091 5.68401L10.0453 5.67843L10.1708 5.67285H10.2266L10.2852 5.67843L10.3438 5.68122L10.4052 5.6868L10.4638 5.69517L10.5279 5.70912L10.5865 5.72307L10.6451 5.73981L10.7065 5.75655L10.7651 5.78166L10.8237 5.80398L10.8795 5.83467L10.9325 5.86814L10.9883 5.90162L11.0357 5.94347L11.0859 5.98532L11.1306 6.03275L11.1752 6.08575L11.2143 6.14434L11.2477 6.20293L11.2812 6.26989L11.3119 6.33964L11.337 6.41496L11.3537 6.49587L11.3705 6.58236L11.3816 6.67442L11.3844 6.77207V6.87529L11.3789 6.9841L11.3677 7.09849L11.351 7.22124L11.3259 7.34958L11.2924 7.53092H9.14695L9.27528 6.9562H10.5614L10.567 6.87809V6.80555L10.5642 6.73859L10.5503 6.67721L10.5363 6.62142L10.514 6.56841L10.4861 6.52377L10.4554 6.48192L10.4219 6.44565L10.3829 6.41496L10.341 6.38986L10.2964 6.36754L10.2489 6.3508L10.2015 6.33964L10.1485 6.33405L10.0955 6.33127H10.0369L9.98392 6.33964L9.93091 6.3508L9.88068 6.36754L9.83325 6.38986L9.78862 6.41496L9.74398 6.44565L9.70493 6.48192L9.66866 6.52377L9.63518 6.56562L9.60448 6.61304L9.5738 6.66605L9.55147 6.71906L9.52917 6.77765L9.51243 6.83903L9.49846 6.90319L9.38409 7.51976Z" fill="white"/>
<path d="M9.38409 7.51976L9.37293 7.57277L9.37014 7.62299L9.37571 7.67878L9.38688 7.73179L9.40362 7.78759L9.42872 7.84339L9.45663 7.89918L9.4929 7.9494L9.53194 7.99962L9.57659 8.04705L9.62401 8.0889L9.67702 8.12796L9.73282 8.16143L9.78862 8.18655L9.85279 8.20886L9.91417 8.22281L9.9867 8.23118L10.062 8.24234L10.1374 8.25071L10.2155 8.25629H10.2936H10.3689L10.4498 8.2535L10.5279 8.24792L10.6089 8.23397L10.6925 8.22002L10.7734 8.20049L10.8571 8.1726L10.9381 8.14191L11.0273 8.10564L11.111 8.05821L11.1975 8.01078L11.0692 8.74173L11.0218 8.76684L10.9743 8.78916L10.9297 8.80869L10.885 8.82543L10.8404 8.84217L10.7958 8.85333L10.7483 8.86449L10.6953 8.87565L10.6423 8.88123L10.5837 8.88681L10.5196 8.89239L10.4526 8.89518L10.3773 8.89796H10.2964L10.2043 8.90076H10.1067H10.0341L9.9588 8.89796L9.88626 8.89239L9.81372 8.88402L9.73562 8.87565L9.66308 8.8617L9.58774 8.84496L9.51243 8.82822L9.43989 8.8059L9.37014 8.78358L9.2976 8.75568L9.22785 8.72499L9.1609 8.69152L9.09394 8.65246L9.03256 8.6134L8.97119 8.56597L8.91259 8.51854L8.85679 8.46274L8.80378 8.40695L8.75636 8.34278L8.70894 8.27582L8.66988 8.20607L8.63081 8.13074L8.60013 8.04705L8.56944 7.96335L8.54712 7.87129L8.52759 7.77643L8.51643 7.6732L8.50806 7.5644V7.45559L8.51085 7.33563L8.522 7.21008L8.52759 7.16823L8.53597 7.11802L8.54433 7.0678L8.5527 7.01479L8.56386 6.95899L8.5778 6.90041L8.59454 6.84182L8.61128 6.78044L8.63081 6.71627L8.65314 6.65211L8.68103 6.58794L8.70894 6.52656L8.74241 6.46239L8.77868 6.39822L8.81773 6.33405L8.85959 6.27268L8.90701 6.2113L8.95445 6.15271L9.01023 6.09413L9.06883 6.04112L9.1302 5.98532L9.19994 5.93789L9.27248 5.89046L9.35061 5.84862L9.43151 5.81235L9.52079 5.77608L9.61286 5.74539L9.71329 5.72028L9.81931 5.70075L9.93091 5.68401L10.0453 5.67843L10.1708 5.67285H10.2266L10.2852 5.67843L10.3438 5.68122L10.4052 5.6868L10.4638 5.69517L10.5279 5.70912L10.5865 5.72307L10.6451 5.73981L10.7065 5.75655L10.7651 5.78166L10.8237 5.80398L10.8795 5.83467L10.9325 5.86814L10.9883 5.90162L11.0357 5.94347L11.0859 5.98532L11.1306 6.03275L11.1752 6.08575L11.2143 6.14434L11.2477 6.20293L11.2812 6.26989L11.3119 6.33964L11.337 6.41496L11.3537 6.49587L11.3705 6.58236L11.3816 6.67442L11.3844 6.77207V6.87529L11.3789 6.9841L11.3677 7.09849L11.351 7.22124L11.3259 7.34958L11.2924 7.53092H9.14695L9.27528 6.9562H10.5614L10.567 6.87809V6.80555L10.5642 6.73859L10.5503 6.67721L10.5363 6.62142L10.514 6.56841L10.4861 6.52377L10.4554 6.48192L10.4219 6.44565L10.3829 6.41496L10.341 6.38986L10.2964 6.36754L10.2489 6.3508L10.2015 6.33964L10.1485 6.33405L10.0955 6.33127H10.0369L9.98392 6.33964L9.93091 6.3508L9.88068 6.36754L9.83325 6.38986L9.78862 6.41496L9.74398 6.44565L9.70493 6.48192L9.66866 6.52377L9.63518 6.56562L9.60448 6.61304L9.5738 6.66605L9.55147 6.71906L9.52917 6.77765L9.51243 6.83903L9.49846 6.90319L9.38409 7.51976Z" stroke="white" stroke-width="0.215"/>
<path d="M8.23463 8.24221L8.11745 8.90062H7.37254L7.38092 8.83924L7.38928 8.77786L7.39766 8.72207L7.40602 8.66906L7.4144 8.62721L7.41998 8.58815L7.42834 8.56304L7.43672 8.54909L7.39766 8.59652L7.34744 8.64116L7.29164 8.6858L7.22748 8.72486L7.16051 8.76391L7.08519 8.80297L7.00707 8.83366L6.92617 8.86435L6.84247 8.89225L6.75599 8.91457L6.6695 8.93131L6.58301 8.94526L6.49653 8.95084L6.41003 8.95363L6.32912 8.94526L6.24822 8.9341L6.14221 8.90899L6.05014 8.87551L5.96644 8.83645L5.89111 8.7946L5.82416 8.74718L5.76835 8.69138L5.72093 8.63558L5.67908 8.5742L5.64281 8.51283L5.61491 8.44866L5.59259 8.3817L5.57306 8.31474L5.5619 8.24778L5.55354 8.18083L5.54796 8.11387L5.54517 8.0497L5.55354 7.93532L5.57306 7.82651L5.60097 7.72049L5.64003 7.62006L5.68745 7.52799L5.74046 7.4415L5.80462 7.3606L5.87158 7.28527L5.9497 7.21552L6.02781 7.15694L6.11709 7.10114L6.20637 7.05371L6.30123 7.01186L6.39887 6.97839L6.49653 6.95607L6.59975 6.93653H6.60253L6.61649 6.93375L6.6388 6.93096L6.6695 6.92817L6.70577 6.92258L6.74761 6.9198L6.79226 6.91422L6.84247 6.90864L6.89269 6.90585L6.9429 6.89748L6.99312 6.89469L7.04334 6.8919L7.08798 6.88632L7.12982 6.88353H7.17168H7.20236H7.23863H7.2749H7.30838H7.34744H7.38092L7.4144 6.88632H7.44787H7.48135L7.50924 6.88911H7.53715L7.55948 6.8919H7.57899H7.59573H7.6069H7.61526H7.61805L7.62364 6.87237L7.64038 6.82215L7.64874 6.76356V6.71334L7.64596 6.67708L7.64038 6.64081L7.62922 6.60733L7.61526 6.57664L7.59852 6.54874L7.57621 6.52084L7.55668 6.49573L7.53157 6.47062L7.50367 6.4511L7.47856 6.43435L7.44787 6.41761L7.41719 6.40366L7.38371 6.39251L7.34744 6.38414L7.31396 6.37856L7.27769 6.37577L7.194 6.37298L7.10472 6.37577H7.01265L6.91779 6.38135L6.82294 6.38972L6.72808 6.39809L6.63323 6.40646L6.53837 6.41761L6.44909 6.43157L6.36539 6.44552L6.29006 6.45947L6.21754 6.4762L6.15336 6.49294L6.10035 6.50968L6.05572 6.52642L6.02504 6.54316L6.23705 5.8429L6.29844 5.81221L6.36539 5.7871L6.43235 5.76478L6.5021 5.74525L6.57464 5.7313L6.64718 5.71735L6.72808 5.70898L6.8062 5.70062L6.8899 5.69503L6.97359 5.69225L7.06007 5.68945H7.15215H7.24699H7.34186L7.44229 5.69225H7.54551L7.62922 5.70062L7.71849 5.71457L7.81056 5.73688L7.90263 5.76478L7.99747 5.79826L8.08955 5.8429L8.17603 5.89033L8.25695 5.94892L8.33506 6.01587L8.40201 6.08841L8.46061 6.16931L8.50524 6.2558L8.53871 6.35345L8.55824 6.45947L8.56104 6.57106L8.5443 6.69103L8.23463 8.24221Z" fill="white"/>
<path d="M8.23463 8.24221L8.11745 8.90062H7.37254L7.38092 8.83924L7.38928 8.77786L7.39766 8.72207L7.40602 8.66906L7.4144 8.62721L7.41998 8.58815L7.42834 8.56304L7.43672 8.54909L7.39766 8.59652L7.34744 8.64116L7.29164 8.6858L7.22748 8.72486L7.16051 8.76391L7.08519 8.80297L7.00707 8.83366L6.92617 8.86435L6.84247 8.89225L6.75599 8.91457L6.6695 8.93131L6.58301 8.94526L6.49653 8.95084L6.41003 8.95363L6.32912 8.94526L6.24822 8.9341L6.14221 8.90899L6.05014 8.87551L5.96644 8.83645L5.89111 8.7946L5.82416 8.74718L5.76835 8.69138L5.72093 8.63558L5.67908 8.5742L5.64281 8.51283L5.61491 8.44866L5.59259 8.3817L5.57306 8.31474L5.5619 8.24778L5.55354 8.18083L5.54796 8.11387L5.54517 8.0497L5.55354 7.93532L5.57306 7.82651L5.60097 7.72049L5.64003 7.62006L5.68745 7.52799L5.74046 7.4415L5.80462 7.3606L5.87158 7.28527L5.9497 7.21552L6.02781 7.15694L6.11709 7.10114L6.20637 7.05371L6.30123 7.01186L6.39887 6.97839L6.49653 6.95607L6.59975 6.93653H6.60253L6.61649 6.93375L6.6388 6.93096L6.6695 6.92817L6.70577 6.92258L6.74761 6.9198L6.79226 6.91422L6.84247 6.90864L6.89269 6.90585L6.9429 6.89748L6.99312 6.89469L7.04334 6.8919L7.08798 6.88632L7.12982 6.88353H7.17168H7.20236H7.23863H7.2749H7.30838H7.34744H7.38092L7.4144 6.88632H7.44787H7.48135L7.50924 6.88911H7.53715L7.55948 6.8919H7.57899H7.59573H7.6069H7.61526H7.61805L7.62364 6.87237L7.64038 6.82215L7.64874 6.76356V6.71334L7.64596 6.67708L7.64038 6.64081L7.62922 6.60733L7.61526 6.57664L7.59852 6.54874L7.57621 6.52084L7.55668 6.49573L7.53157 6.47062L7.50367 6.4511L7.47856 6.43435L7.44787 6.41761L7.41719 6.40366L7.38371 6.39251L7.34744 6.38414L7.31396 6.37856L7.27769 6.37577L7.194 6.37298L7.10472 6.37577H7.01265L6.91779 6.38135L6.82294 6.38972L6.72808 6.39809L6.63323 6.40646L6.53837 6.41761L6.44909 6.43157L6.36539 6.44552L6.29006 6.45947L6.21754 6.4762L6.15336 6.49294L6.10035 6.50968L6.05572 6.52642L6.02504 6.54316L6.23705 5.8429L6.29844 5.81221L6.36539 5.7871L6.43235 5.76478L6.5021 5.74525L6.57464 5.7313L6.64718 5.71735L6.72808 5.70898L6.8062 5.70062L6.8899 5.69503L6.97359 5.69225L7.06007 5.68945H7.15215H7.24699H7.34186L7.44229 5.69225H7.54551L7.62922 5.70062L7.71849 5.71457L7.81056 5.73688L7.90263 5.76478L7.99747 5.79826L8.08955 5.8429L8.17603 5.89033L8.25695 5.94892L8.33506 6.01587L8.40201 6.08841L8.46061 6.16931L8.50524 6.2558L8.53871 6.35345L8.55824 6.45947L8.56104 6.57106L8.5443 6.69103L8.23463 8.24221Z" stroke="white" stroke-width="0.215"/>
<path d="M7.52332 7.46609L7.52053 7.44935L7.50936 7.43819L7.48705 7.42704L7.46194 7.42146L7.42567 7.41587L7.3894 7.41309H7.34756H7.30012L7.25269 7.41867L7.20248 7.42424L7.15785 7.42982L7.10761 7.43819L7.06298 7.44656L7.02113 7.45493L6.98208 7.46609L6.94861 7.47725L6.93187 7.48004L6.90675 7.48841L6.87607 7.49957L6.84259 7.51352L6.80632 7.52747L6.76726 7.547L6.72819 7.56932L6.68913 7.59164L6.65008 7.61954L6.61381 7.65302L6.57754 7.68371L6.54686 7.72276L6.51895 7.76182L6.49664 7.80367L6.48268 7.8511L6.47153 7.90132L6.46594 8.00175L6.48268 8.07987L6.505 8.14404L6.54407 8.18868L6.5887 8.21936L6.63614 8.23889L6.68635 8.25005L6.73657 8.25284L6.82862 8.25005L6.90954 8.24168L6.98488 8.22773L7.05183 8.2082L7.11599 8.18868L7.17179 8.16357L7.21922 8.13567L7.26386 8.10498L7.30291 8.0715L7.33639 8.03802L7.3643 8.00454L7.3894 7.96827L7.40893 7.93479L7.42567 7.90132L7.43961 7.86784L7.44799 7.83715L7.45914 7.79251L7.47031 7.74508L7.48147 7.69486L7.48984 7.64465L7.49821 7.59443L7.50658 7.54979L7.51494 7.50515L7.52332 7.46609Z" fill="#0084C4"/>
<path d="M2.00756 8.89999H1.19849L1.87922 5.01367H3.28254L3.41925 7.32649L4.37618 5.01367H5.83251L5.15177 8.89999H4.34549L4.85605 5.99013H4.82257L3.6229 8.89999H2.71898L2.71062 8.77724L2.69109 8.45361L2.66597 7.99607L2.63529 7.46878L2.60181 6.9387L2.57669 6.47L2.55716 6.13242L2.5488 5.99013H2.54601H2.53765H2.52927H2.52091H2.51253H2.50695H2.51532L2.00756 8.89999Z" fill="white"/>
<path d="M2.00756 8.89999H1.19849L1.87922 5.01367H3.28254L3.41925 7.32649L4.37618 5.01367H5.83251L5.15177 8.89999H4.34549L4.85605 5.99013H4.82257L3.6229 8.89999H2.71898L2.71062 8.77724L2.69109 8.45361L2.66597 7.99607L2.63529 7.46878L2.60181 6.9387L2.57669 6.47L2.55716 6.13242L2.5488 5.99013H2.54601H2.53765H2.52927H2.52091H2.51253H2.50695H2.51532L2.00756 8.89999Z" stroke="white" stroke-width="0.215"/>
<path d="M15.491 8.90076H16.3307L16.6181 7.22403L16.6292 7.15708L16.6432 7.0929L16.6599 7.02874L16.6822 6.97015L16.7046 6.90878L16.7325 6.85297L16.7687 6.79997L16.8078 6.74975L16.8552 6.70232L16.9082 6.66048L16.9724 6.62421L17.0421 6.59073L17.1258 6.56562L17.2179 6.5433L17.3211 6.53214L17.4355 6.52377H17.4467L17.4606 6.52656H17.4774H17.4913L17.5081 6.52935L17.5192 6.53214L17.5276 6.53493H17.5304L17.5332 6.52098L17.5415 6.48471L17.5527 6.4317L17.5694 6.36474L17.589 6.28942L17.6113 6.20572L17.6392 6.12202L17.6699 6.04391L17.6922 5.98532L17.7201 5.92952L17.7452 5.87651L17.7759 5.82351L17.801 5.78166L17.8205 5.74539L17.8345 5.72307L17.8401 5.7147H17.8345L17.8233 5.70912H17.8094L17.7898 5.70354L17.7703 5.70075L17.7452 5.69796L17.7229 5.69238H17.7006L17.6113 5.70075L17.5276 5.70912L17.4523 5.72586L17.3797 5.74539L17.3155 5.7705L17.2542 5.79561L17.1984 5.82908L17.1454 5.86535L17.0952 5.90441L17.0477 5.94626L17.0031 5.99369L16.9585 6.04112L16.9138 6.09413L16.8719 6.14992L16.8301 6.20851L16.7855 6.2671L16.8831 5.73702L16.0434 5.72586L15.491 8.90076Z" fill="white"/>
<path d="M15.491 8.90076H16.3307L16.6181 7.22403L16.6292 7.15708L16.6432 7.0929L16.6599 7.02874L16.6822 6.97015L16.7046 6.90878L16.7325 6.85297L16.7687 6.79997L16.8078 6.74975L16.8552 6.70232L16.9082 6.66048L16.9724 6.62421L17.0421 6.59073L17.1258 6.56562L17.2179 6.5433L17.3211 6.53214L17.4355 6.52377H17.4467L17.4606 6.52656H17.4774H17.4913L17.5081 6.52935L17.5192 6.53214L17.5276 6.53493H17.5304L17.5332 6.52098L17.5415 6.48471L17.5527 6.4317L17.5694 6.36474L17.589 6.28942L17.6113 6.20572L17.6392 6.12202L17.6699 6.04391L17.6922 5.98532L17.7201 5.92952L17.7452 5.87651L17.7759 5.82351L17.801 5.78166L17.8205 5.74539L17.8345 5.72307L17.8401 5.7147H17.8345L17.8233 5.70912H17.8094L17.7898 5.70354L17.7703 5.70075L17.7452 5.69796L17.7229 5.69238H17.7006L17.6113 5.70075L17.5276 5.70912L17.4523 5.72586L17.3797 5.74539L17.3155 5.7705L17.2542 5.79561L17.1984 5.82908L17.1454 5.86535L17.0952 5.90441L17.0477 5.94626L17.0031 5.99369L16.9585 6.04112L16.9138 6.09413L16.8719 6.14992L16.8301 6.20851L16.7855 6.2671L16.8831 5.73702L16.0434 5.72586L15.491 8.90076Z" stroke="white" stroke-width="0.215"/>
<path d="M19.1264 5.69238L19.2185 5.69517L19.3078 5.70075L19.3971 5.70912L19.4835 5.72307L19.5672 5.73981L19.6481 5.75934L19.7235 5.78166L19.7988 5.80956L19.8713 5.84025L19.9411 5.87372L20.008 5.9072L20.0694 5.94626L20.1336 5.9909L20.1894 6.03554L20.2452 6.08297L20.2954 6.13597L20.3456 6.18898L20.3903 6.24757L20.4321 6.30337L20.4712 6.36754L20.5074 6.42891L20.5381 6.49866L20.5688 6.56562L20.5939 6.63816L20.619 6.71069L20.6358 6.78881L20.6525 6.86692L20.6665 6.94783L20.672 7.02595L20.6776 7.11244L20.6804 7.19892L20.6776 7.28541L20.672 7.39143L20.6581 7.49186L20.6441 7.58951L20.6246 7.68436L20.6051 7.77364L20.5772 7.86013L20.5493 7.94662L20.5186 8.02473L20.4823 8.10285L20.4433 8.17538L20.4014 8.24792L20.3568 8.31209L20.3093 8.37626L20.2591 8.43763L20.2033 8.49343L20.1503 8.54644L20.0917 8.59666L20.0304 8.64409L19.9662 8.68593L19.902 8.72499L19.8351 8.76405L19.7653 8.79474L19.6956 8.82543L19.6202 8.85333L19.5477 8.87844L19.4668 8.89796L19.3887 8.9147L19.3106 8.92865L19.2297 8.93982L19.146 8.94819L19.0623 8.95377H18.9758H18.8921L18.8084 8.94819L18.7275 8.93982L18.6466 8.92865L18.5685 8.91192L18.4903 8.89796L18.415 8.87565L18.3425 8.85054L18.2699 8.82543L18.203 8.79474L18.136 8.76126L18.0719 8.72499L18.0105 8.68593L17.9519 8.6413L17.8961 8.59666L17.8403 8.54644L17.7929 8.49343L17.7427 8.43763L17.698 8.38184L17.6562 8.31767L17.6171 8.25629L17.5808 8.18655L17.5502 8.1168L17.5222 8.04426L17.4971 7.96893L17.4748 7.88803L17.4553 7.80433L17.4413 7.72063L17.4302 7.63136L17.4246 7.54208L17.4218 7.44722L17.4246 7.34958L17.4302 7.24914L17.4413 7.15428L17.4553 7.06222L17.4748 6.97294L17.4944 6.88646L17.5195 6.80276L17.5474 6.72185L17.578 6.64373L17.6115 6.56562L17.6478 6.49587L17.6896 6.42612L17.7315 6.35917L17.7789 6.29779L17.8264 6.23362L17.8794 6.17782L17.9324 6.12202L17.9909 6.07181L18.0495 6.02438L18.1109 5.97974L18.1751 5.93789L18.2448 5.89883L18.3146 5.86257L18.3871 5.83188L18.4596 5.80398L18.535 5.77887L18.6131 5.75655L18.694 5.73702L18.7777 5.72028L18.8614 5.70912L18.9479 5.70075L19.0372 5.69517L19.1264 5.69238Z" fill="white"/>
<path d="M19.1264 5.69238L19.2185 5.69517L19.3078 5.70075L19.3971 5.70912L19.4835 5.72307L19.5672 5.73981L19.6481 5.75934L19.7235 5.78166L19.7988 5.80956L19.8713 5.84025L19.9411 5.87372L20.008 5.9072L20.0694 5.94626L20.1336 5.9909L20.1894 6.03554L20.2452 6.08297L20.2954 6.13597L20.3456 6.18898L20.3903 6.24757L20.4321 6.30337L20.4712 6.36754L20.5074 6.42891L20.5381 6.49866L20.5688 6.56562L20.5939 6.63816L20.619 6.71069L20.6358 6.78881L20.6525 6.86692L20.6665 6.94783L20.672 7.02595L20.6776 7.11244L20.6804 7.19892L20.6776 7.28541L20.672 7.39143L20.6581 7.49186L20.6441 7.58951L20.6246 7.68436L20.6051 7.77364L20.5772 7.86013L20.5493 7.94662L20.5186 8.02473L20.4823 8.10285L20.4433 8.17538L20.4014 8.24792L20.3568 8.31209L20.3093 8.37626L20.2591 8.43763L20.2033 8.49343L20.1503 8.54644L20.0917 8.59666L20.0304 8.64409L19.9662 8.68593L19.902 8.72499L19.8351 8.76405L19.7653 8.79474L19.6956 8.82543L19.6202 8.85333L19.5477 8.87844L19.4668 8.89796L19.3887 8.9147L19.3106 8.92865L19.2297 8.93982L19.146 8.94819L19.0623 8.95377H18.9758H18.8921L18.8084 8.94819L18.7275 8.93982L18.6466 8.92865L18.5685 8.91192L18.4903 8.89796L18.415 8.87565L18.3425 8.85054L18.2699 8.82543L18.203 8.79474L18.136 8.76126L18.0719 8.72499L18.0105 8.68593L17.9519 8.6413L17.8961 8.59666L17.8403 8.54644L17.7929 8.49343L17.7427 8.43763L17.698 8.38184L17.6562 8.31767L17.6171 8.25629L17.5808 8.18655L17.5502 8.1168L17.5222 8.04426L17.4971 7.96893L17.4748 7.88803L17.4553 7.80433L17.4413 7.72063L17.4302 7.63136L17.4246 7.54208L17.4218 7.44722L17.4246 7.34958L17.4302 7.24914L17.4413 7.15428L17.4553 7.06222L17.4748 6.97294L17.4944 6.88646L17.5195 6.80276L17.5474 6.72185L17.578 6.64373L17.6115 6.56562L17.6478 6.49587L17.6896 6.42612L17.7315 6.35917L17.7789 6.29779L17.8264 6.23362L17.8794 6.17782L17.9324 6.12202L17.9909 6.07181L18.0495 6.02438L18.1109 5.97974L18.1751 5.93789L18.2448 5.89883L18.3146 5.86257L18.3871 5.83188L18.4596 5.80398L18.535 5.77887L18.6131 5.75655L18.694 5.73702L18.7777 5.72028L18.8614 5.70912L18.9479 5.70075L19.0372 5.69517L19.1264 5.69238Z" stroke="white" stroke-width="0.215"/>
<path d="M20.3594 8.74121H20.6021V8.7719H20.5072V8.97556H20.4542V8.7719H20.3594V8.74121Z" fill="white"/>
<path d="M20.3594 8.74121H20.6021V8.7719H20.5072V8.97556H20.4542V8.7719H20.3594V8.74121Z" stroke="white" stroke-width="0.215"/>
<path d="M20.6329 8.74121H20.7083L20.7948 8.92256L20.8784 8.74121H20.9538V8.97556H20.9008V8.79422L20.8143 8.97556H20.7724L20.6887 8.79422V8.97556H20.6329V8.74121Z" fill="white"/>
<path d="M20.6329 8.74121H20.7083L20.7948 8.92256L20.8784 8.74121H20.9538V8.97556H20.9008V8.79422L20.8143 8.97556H20.7724L20.6887 8.79422V8.97556H20.6329V8.74121Z" stroke="white" stroke-width="0.215"/>
<path d="M18.4679 7.21016L18.4539 7.32733L18.4484 7.43335V7.531L18.4539 7.62027L18.4679 7.70397L18.4846 7.77651L18.507 7.84346L18.5376 7.90205L18.5711 7.95227L18.6102 7.99691L18.6548 8.03318L18.7023 8.06387L18.7525 8.08619L18.811 8.10292L18.8696 8.11129L18.9366 8.11408H19.0063L19.0733 8.10571L19.1375 8.08897L19.1988 8.06665L19.2574 8.03875L19.3132 8.00249L19.3635 7.95785L19.4137 7.90484L19.4583 7.84904L19.5002 7.78208L19.5364 7.70676L19.5699 7.62864L19.6006 7.53936L19.6285 7.44172L19.6508 7.3357L19.6675 7.22411L19.6787 7.13483L19.6843 7.05113V6.96744L19.6787 6.88932L19.6675 6.81678L19.6508 6.74704L19.6285 6.68287L19.6006 6.62149L19.5699 6.56848L19.5308 6.52384L19.489 6.482L19.4416 6.44852L19.3886 6.42341L19.33 6.40667L19.2686 6.39551H19.1988L19.1152 6.40109L19.037 6.41504L18.9645 6.44015L18.8947 6.47084L18.8334 6.51269L18.7776 6.55732L18.7246 6.61033L18.6799 6.66892L18.6353 6.7303L18.599 6.79725L18.5655 6.86142L18.5376 6.93117L18.5153 7.00092L18.493 7.07345L18.479 7.1432L18.4679 7.21016Z" fill="#EC1C2E"/>
</svg>
