<svg width="22" height="14" viewBox="0 0 22 14" fill="none" xmlns="http://www.w3.org/2000/svg">
<path fill-rule="evenodd" clip-rule="evenodd" d="M14.9775 13.2137L15.3011 13.2053L15.6219 13.183L15.9344 13.1412L16.2469 13.0881L16.5482 13.0184L16.8467 12.9319L17.1396 12.8343L17.427 12.7199L17.706 12.5943L17.9766 12.4548L18.2388 12.3042L18.4955 12.1396L18.741 11.9638L18.9782 11.7797L19.2069 11.5816L19.4245 11.3724L19.6338 11.1548L19.8319 10.9232L20.0188 10.6888L20.1945 10.4433L20.3564 10.1867L20.5098 9.92162L20.6465 9.651L20.7749 9.37201L20.8864 9.08744L20.9841 8.7945L21.0706 8.49598L21.1403 8.19189L21.1961 7.88221L21.2352 7.56695L21.2603 7.24891L21.2659 6.92528L21.2603 6.60165L21.2352 6.2836L21.1961 5.97113L21.1403 5.66425L21.0706 5.36294L20.9841 5.06442L20.8864 4.77427L20.7749 4.4897L20.6465 4.21071L20.5098 3.94009L20.3564 3.68063L20.1945 3.42396L20.0188 3.17845L19.8319 2.9441L19.6338 2.71533L19.4245 2.49493L19.2069 2.28848L18.9782 2.09318L18.741 1.90626L18.4955 1.7305L18.2388 1.56589L17.9766 1.41524L17.706 1.27854L17.427 1.1502L17.1396 1.03861L16.8467 0.940961L16.5482 0.854471L16.2469 0.784724L15.9344 0.728927L15.6219 0.689869L15.3011 0.667549L14.9775 0.65918L14.6566 0.667549L14.3358 0.689869L14.0233 0.728927L13.7136 0.784724L13.4095 0.854471L13.111 0.940961L12.8209 1.03861L12.5363 1.1502L12.2573 1.27854L11.9895 1.41524L11.7272 1.56589L11.4734 1.7305L11.2278 1.90626L10.9907 2.09318L10.7647 2.28848L10.5443 2.49493L10.3379 2.71533L10.1398 2.9441L9.95565 3.17845L9.77989 3.42396L9.61808 3.68063L9.46742 3.94009L9.32793 4.21071L9.20238 4.4897L9.09079 4.77427L8.99314 5.06442L8.90944 5.36294L8.8397 5.66425L8.7839 5.97113L8.74205 6.2836L8.71973 6.60165L8.71136 6.92528L8.71973 7.24891L8.74205 7.56695L8.7839 7.88221L8.8397 8.19189L8.90944 8.49598L8.99314 8.7945L9.09079 9.08744L9.20238 9.37201L9.32793 9.651L9.46742 9.92162L9.61808 10.1867L9.77989 10.4433L9.95565 10.6888L10.1398 10.9232L10.3379 11.1548L10.5443 11.3724L10.7647 11.5816L10.9907 11.7797L11.2278 11.9638L11.4734 12.1396L11.7272 12.3042L11.9895 12.4548L12.2573 12.5943L12.5363 12.7199L12.8209 12.8343L13.111 12.9319L13.4095 13.0184L13.7136 13.0881L14.0233 13.1412L14.3358 13.183L14.6566 13.2053L14.9775 13.2137Z" fill="#FBB231"/>
<path fill-rule="evenodd" clip-rule="evenodd" d="M6.57978 13.2137L6.90061 13.2053L7.22145 13.183L7.53392 13.1412L7.8436 13.0881L8.14491 13.0184L8.44342 12.9319L8.73357 12.8343L9.02093 12.7199L9.29713 12.5943L9.56775 12.4548L9.83 12.3042L10.0839 12.1396L10.3294 11.9638L10.5665 11.7797L10.7925 11.5816L11.0101 11.3724L11.2194 11.1548L11.4147 10.9232L11.6016 10.6888L11.7746 10.4433L11.9392 10.1867L12.0898 9.92162L12.2293 9.651L12.3549 9.37201L12.4664 9.08744L12.5641 8.7945L12.6478 8.49598L12.7175 8.19189L12.7733 7.88221L12.8124 7.56695L12.8375 7.24891L12.8459 6.92528L12.8375 6.60165L12.8124 6.2836L12.7733 5.97113L12.7175 5.66425L12.6478 5.36294L12.5641 5.06442L12.4664 4.77427L12.3549 4.4897L12.2293 4.21071L12.0898 3.94009L11.9392 3.68063L11.7746 3.42396L11.6016 3.17845L11.4147 2.9441L11.2194 2.71533L11.0101 2.49493L10.7925 2.28848L10.5665 2.09318L10.3294 1.90626L10.0839 1.7305L9.83 1.56589L9.56775 1.41524L9.29713 1.27854L9.02093 1.1502L8.73357 1.03861L8.44342 0.940961L8.14491 0.854471L7.8436 0.784724L7.53392 0.728927L7.22145 0.689869L6.90061 0.667549L6.57978 0.65918L6.25335 0.667549L5.93531 0.689869L5.62005 0.728927L5.31038 0.784724L5.00628 0.854471L4.70776 0.940961L4.41482 1.03861L4.13025 1.1502L3.85126 1.27854L3.58064 1.41524L3.31839 1.56589L3.06173 1.7305L2.81621 1.90626L2.57907 2.09318L2.3503 2.28848L2.13269 2.49493L1.92065 2.71533L1.72537 2.9441L1.53844 3.17845L1.36268 3.42396L1.20087 3.68063L1.04742 3.94009L0.910714 4.21071L0.782382 4.4897L0.670788 4.77427L0.570347 5.06442L0.486654 5.36294L0.416907 5.66425L0.361106 5.97113L0.319259 6.2836L0.296944 6.60165L0.288574 6.92528L0.296944 7.24891L0.319259 7.56695L0.361106 7.88221L0.416907 8.19189L0.486654 8.49598L0.570347 8.7945L0.670788 9.08744L0.782382 9.37201L0.910714 9.651L1.04742 9.92162L1.20087 10.1867L1.36268 10.4433L1.53844 10.6888L1.72537 10.9232L1.92065 11.1548L2.13269 11.3724L2.3503 11.5816L2.57907 11.7797L2.81621 11.9638L3.06173 12.1396L3.31839 12.3042L3.58064 12.4548L3.85126 12.5943L4.13025 12.7199L4.41482 12.8343L4.70776 12.9319L5.00628 13.0184L5.31038 13.0881L5.62005 13.1412L5.93531 13.183L6.25335 13.2053L6.57978 13.2137Z" fill="#EC1C2E"/>
<path fill-rule="evenodd" clip-rule="evenodd" d="M10.0422 3.06679H13.3789V2.72363H10.3324L10.0422 3.06679Z" fill="#FBB231"/>
<path fill-rule="evenodd" clip-rule="evenodd" d="M9.54266 3.82278H13.3788V3.48242H9.74354L9.54266 3.82278Z" fill="#FBB231"/>
<path fill-rule="evenodd" clip-rule="evenodd" d="M9.17163 4.57865H13.3788V4.23828H9.31949L9.17163 4.57865Z" fill="#FBB231"/>
<path fill-rule="evenodd" clip-rule="evenodd" d="M8.91492 5.33841H13.3787V4.99805H9.02093L8.91492 5.33841Z" fill="#FBB231"/>
<path fill-rule="evenodd" clip-rule="evenodd" d="M9.06287 9.0015H13.39V8.66113H8.95685L9.06287 9.0015Z" fill="#FBB231"/>
<path fill-rule="evenodd" clip-rule="evenodd" d="M9.38387 9.76029H13.3902V9.41992H9.22485L9.38387 9.76029Z" fill="#FBB231"/>
<path fill-rule="evenodd" clip-rule="evenodd" d="M9.83001 10.5161H13.3899V10.1758H9.61798L9.83001 10.5161Z" fill="#FBB231"/>
<path fill-rule="evenodd" clip-rule="evenodd" d="M10.4494 11.2748H13.3899V10.9316H10.1509L10.4494 11.2748Z" fill="#FBB231"/>
<path fill-rule="evenodd" clip-rule="evenodd" d="M8.76428 6.09427H13.3788V5.75391H8.82845L8.76428 6.09427Z" fill="#FBB231"/>
<path fill-rule="evenodd" clip-rule="evenodd" d="M11.5765 8.24466H13.337V7.9043H11.6407L11.5765 8.24466Z" fill="#FBB231"/>
<path fill-rule="evenodd" clip-rule="evenodd" d="M11.716 7.48867H13.3369V7.14551H11.7802L11.716 7.48867Z" fill="#FBB231"/>
<path fill-rule="evenodd" clip-rule="evenodd" d="M8.64728 7.14551H9.10482V7.48867H8.66959L8.64728 7.14551Z" fill="#FBB231"/>
<path fill-rule="evenodd" clip-rule="evenodd" d="M7.79352 6.73307H7.76562L7.73493 6.72748L7.70703 6.7247L7.67913 6.71912L7.65402 6.71633L7.62612 6.71075L7.60101 6.70796L7.57032 6.70238L7.53964 6.69959L7.50616 6.6968L7.4671 6.69401L7.42804 6.69122H7.3834L7.33597 6.69401L7.28018 6.69959L7.2188 6.70238L7.17695 6.70796L7.1351 6.71633L7.09884 6.72748L7.06814 6.74143L7.03746 6.75539L7.01234 6.77212L6.99003 6.79444L6.9705 6.81118L6.95655 6.83629L6.94818 6.85861L6.94259 6.88372V6.90883L6.94818 6.93673L6.95655 6.96463L6.97329 6.99252L6.9956 7.02042L7.03746 7.05948L7.09046 7.09296L7.14905 7.11807L7.21321 7.14318L7.28018 7.16271L7.34993 7.18782L7.41967 7.21293L7.48663 7.24082L7.5508 7.27709L7.60938 7.32173L7.66239 7.37474L7.70703 7.43891L7.74051 7.51981L7.76282 7.61467L7.77119 7.72905L7.76282 7.86297L7.74888 7.96341L7.72377 8.04989L7.6875 8.1308L7.64565 8.20055L7.59822 8.26192L7.54243 8.31493L7.48383 8.35957L7.41688 8.40142L7.34993 8.43211L7.28018 8.46001L7.20764 8.48233L7.13231 8.49907L7.06257 8.51022L6.99282 8.51859L6.92307 8.52139L6.85611 8.52418H6.76405L6.68035 8.52139H6.60502L6.53527 8.51859H6.4739L6.41531 8.51302L6.36509 8.50744L6.31487 8.50186L6.27024 8.49907L6.23118 8.4907L6.19212 8.48233L6.15585 8.47396L6.11958 8.46559L6.0861 8.45164L6.05263 8.43769L6.01636 8.42653L6.11121 7.95783L6.13074 7.96341L6.15306 7.96899L6.18374 7.97736L6.22001 7.98573L6.25628 7.9941L6.29813 8.00247L6.34556 8.01362L6.39578 8.02199L6.44879 8.03036L6.50459 8.03873L6.56038 8.04431L6.62176 8.05268H6.68314L6.74451 8.05548H6.80589L6.86727 8.05268L6.92865 8.04153L6.97608 8.02479L7.01513 7.99967L7.04583 7.97178L7.06535 7.94109L7.08209 7.90761L7.09325 7.87413L7.10162 7.84065L7.10721 7.77927L7.08767 7.72627L7.0514 7.68442L6.9984 7.64815L6.93423 7.61746L6.86169 7.58398L6.77799 7.55608L6.6943 7.52261L6.61061 7.48355L6.5297 7.43891L6.45716 7.38311L6.38741 7.31894L6.3344 7.23804L6.29813 7.14318L6.27861 7.02879L6.28139 6.89209L6.28976 6.81118L6.3065 6.73307L6.32603 6.66053L6.35114 6.59357L6.38462 6.5294L6.42368 6.4736L6.46832 6.4206L6.52133 6.37317L6.5827 6.33411L6.64966 6.30063L6.72778 6.26715L6.81147 6.24483L6.90633 6.2253L7.01234 6.21136L7.12394 6.20299L7.24948 6.2002H7.3276L7.40014 6.20299L7.4671 6.20578H7.52569L7.57869 6.21136L7.62612 6.21415L7.66797 6.21973L7.70703 6.22251L7.7433 6.2281L7.77399 6.23368L7.80189 6.23925L7.82699 6.24205L7.84653 6.24762L7.86606 6.25042L7.88558 6.2532L7.90232 6.25599L7.79352 6.73307Z" fill="white"/>
<path d="M7.79352 6.73307H7.76562L7.73493 6.72748L7.70703 6.7247L7.67913 6.71912L7.65402 6.71633L7.62612 6.71075L7.60101 6.70796L7.57032 6.70238L7.53964 6.69959L7.50616 6.6968L7.4671 6.69401L7.42804 6.69122H7.3834L7.33597 6.69401L7.28018 6.69959L7.2188 6.70238L7.17695 6.70796L7.1351 6.71633L7.09884 6.72748L7.06814 6.74143L7.03746 6.75539L7.01234 6.77212L6.99003 6.79444L6.9705 6.81118L6.95655 6.83629L6.94818 6.85861L6.94259 6.88372V6.90883L6.94818 6.93673L6.95655 6.96463L6.97329 6.99252L6.9956 7.02042L7.03746 7.05948L7.09046 7.09296L7.14905 7.11807L7.21321 7.14318L7.28018 7.16271L7.34993 7.18782L7.41967 7.21293L7.48663 7.24082L7.5508 7.27709L7.60938 7.32173L7.66239 7.37474L7.70703 7.43891L7.74051 7.51981L7.76282 7.61467L7.77119 7.72905L7.76282 7.86297L7.74888 7.96341L7.72377 8.04989L7.6875 8.1308L7.64565 8.20055L7.59822 8.26192L7.54243 8.31493L7.48383 8.35957L7.41688 8.40142L7.34993 8.43211L7.28018 8.46001L7.20764 8.48233L7.13231 8.49907L7.06257 8.51022L6.99282 8.51859L6.92307 8.52139L6.85611 8.52418H6.76405L6.68035 8.52139H6.60502L6.53527 8.51859H6.4739L6.41531 8.51302L6.36509 8.50744L6.31487 8.50186L6.27024 8.49907L6.23118 8.4907L6.19212 8.48233L6.15585 8.47396L6.11958 8.46559L6.0861 8.45164L6.05263 8.43769L6.01636 8.42653L6.11121 7.95783L6.13074 7.96341L6.15306 7.96899L6.18374 7.97736L6.22001 7.98573L6.25628 7.9941L6.29813 8.00247L6.34556 8.01362L6.39578 8.02199L6.44879 8.03036L6.50459 8.03873L6.56038 8.04431L6.62176 8.05268H6.68314L6.74451 8.05548H6.80589L6.86727 8.05268L6.92865 8.04153L6.97608 8.02479L7.01513 7.99967L7.04583 7.97178L7.06535 7.94109L7.08209 7.90761L7.09325 7.87413L7.10162 7.84065L7.10721 7.77927L7.08767 7.72627L7.0514 7.68442L6.9984 7.64815L6.93423 7.61746L6.86169 7.58398L6.77799 7.55608L6.6943 7.52261L6.61061 7.48355L6.5297 7.43891L6.45716 7.38311L6.38741 7.31894L6.3344 7.23804L6.29813 7.14318L6.27861 7.02879L6.28139 6.89209L6.28976 6.81118L6.3065 6.73307L6.32603 6.66053L6.35114 6.59357L6.38462 6.5294L6.42368 6.4736L6.46832 6.4206L6.52133 6.37317L6.5827 6.33411L6.64966 6.30063L6.72778 6.26715L6.81147 6.24483L6.90633 6.2253L7.01234 6.21136L7.12394 6.20299L7.24948 6.2002H7.3276L7.40014 6.20299L7.4671 6.20578H7.52569L7.57869 6.21136L7.62612 6.21415L7.66797 6.21973L7.70703 6.22251L7.7433 6.2281L7.77399 6.23368L7.80189 6.23925L7.82699 6.24205L7.84653 6.24762L7.86606 6.25042L7.88558 6.2532L7.90232 6.25599L7.79352 6.73307Z" stroke="white" stroke-width="0.216" stroke-miterlimit="2.6131"/>
<path fill-rule="evenodd" clip-rule="evenodd" d="M8.29582 5.73145H8.88449L8.79521 6.24478H9.14952L9.0742 6.72465L8.70036 6.71348L8.49669 7.89361V7.93825L8.50506 7.97173L8.52738 7.99962L8.55528 8.02474L8.59434 8.03868L8.63619 8.05263L8.68082 8.05821L8.73383 8.06379L8.77847 8.061L8.82032 8.05821L8.85938 8.05263L8.89286 8.04147L8.92076 8.03311L8.94028 8.02752L8.95424 8.02474L8.95702 8.02194L8.88449 8.41532L8.86775 8.42648L8.8538 8.43485L8.83985 8.44322L8.82311 8.45159L8.80916 8.45717L8.79242 8.46554L8.7729 8.47112L8.75336 8.4767L8.73383 8.48228L8.71152 8.48785L8.6864 8.49065L8.66129 8.49622L8.6334 8.50181L8.59992 8.5046L8.56644 8.50739L8.53017 8.51297H8.37115L8.28466 8.50739L8.21212 8.49902L8.14517 8.48507L8.08658 8.47112L8.03636 8.45159L7.9973 8.42927L7.96104 8.40416L7.93314 8.37626L7.9136 8.34836L7.89687 8.31209L7.8885 8.27582L7.88013 8.23677V8.19213V8.1447L7.8857 8.09727L7.89129 8.04147L8.29582 5.73145Z" fill="white"/>
<path d="M8.29582 5.73145H8.88449L8.79521 6.24478H9.14952L9.0742 6.72465L8.70036 6.71348L8.49669 7.89361V7.93825L8.50506 7.97173L8.52738 7.99962L8.55528 8.02474L8.59434 8.03868L8.63619 8.05263L8.68082 8.05821L8.73383 8.06379L8.77847 8.061L8.82032 8.05821L8.85938 8.05263L8.89286 8.04147L8.92076 8.03311L8.94028 8.02752L8.95424 8.02474L8.95702 8.02194L8.88449 8.41532L8.86775 8.42648L8.8538 8.43485L8.83985 8.44322L8.82311 8.45159L8.80916 8.45717L8.79242 8.46554L8.7729 8.47112L8.75336 8.4767L8.73383 8.48228L8.71152 8.48785L8.6864 8.49065L8.66129 8.49622L8.6334 8.50181L8.59992 8.5046L8.56644 8.50739L8.53017 8.51297H8.37115L8.28466 8.50739L8.21212 8.49902L8.14517 8.48507L8.08658 8.47112L8.03636 8.45159L7.9973 8.42927L7.96104 8.40416L7.93314 8.37626L7.9136 8.34836L7.89687 8.31209L7.8885 8.27582L7.88013 8.23677V8.19213V8.1447L7.8857 8.09727L7.89129 8.04147L8.29582 5.73145Z" stroke="white" stroke-width="0.216" stroke-miterlimit="2.6131"/>
<path d="M9.6182 7.52261L9.61261 7.55888L9.60983 7.59514L9.61261 7.63699L9.62098 7.67605L9.63772 7.7179L9.65446 7.75417L9.67678 7.79601L9.70189 7.83228L9.73257 7.86855L9.76327 7.89924L9.79675 7.92993L9.83581 7.95504L9.87486 7.98015L9.91671 7.99967L9.95856 8.01362L10.0004 8.02199L10.0562 8.03036L10.1092 8.03594L10.165 8.04153L10.218 8.04711L10.2738 8.04989H10.3324L10.3854 8.04711L10.444 8.04153L10.4998 8.03316L10.5584 8.02479L10.617 8.01084L10.6756 7.9913L10.7342 7.96899L10.7955 7.94388L10.8541 7.9104L10.9155 7.87413L10.8318 8.39584L10.7983 8.41258L10.7648 8.42932L10.7286 8.44048L10.6979 8.45443L10.6672 8.46559L10.6309 8.47396L10.5974 8.48233L10.5612 8.4907L10.5249 8.49627L10.4831 8.50186L10.4384 8.50465L10.3882 8.50744L10.3324 8.51022H10.2766L10.2097 8.51302H10.1399L10.0367 8.51022L9.93066 8.50186L9.82465 8.48512L9.71863 8.46001L9.6154 8.42932L9.51776 8.38747L9.42011 8.33446L9.33084 8.27309L9.24993 8.20055L9.17739 8.11406L9.11601 8.01642L9.06579 7.90482L9.02953 7.77927L9.00721 7.63699L8.99884 7.48075L9.00999 7.30778L9.01836 7.24082L9.03232 7.16271L9.04906 7.07901L9.07137 6.98973L9.10206 6.90046L9.14112 6.80839L9.18855 6.71633L9.24993 6.62705L9.31688 6.54056L9.40059 6.45966L9.49265 6.38991L9.59867 6.32574L9.72142 6.27274L9.85812 6.23368L10.0116 6.20856L10.1845 6.2002L10.2654 6.20299L10.3519 6.21136L10.4384 6.2253L10.5277 6.24762L10.6114 6.27831L10.6951 6.31737L10.7704 6.36759L10.8402 6.42618L10.9043 6.49872L10.9573 6.5852L10.9992 6.68006L11.0271 6.79444L11.0466 6.91999V7.06506L11.0327 7.22408L11.002 7.40264L10.9908 7.53376H9.44522L9.54286 7.11528H10.4719L10.4747 7.06227L10.4719 7.01205L10.4691 6.96463L10.4607 6.92278L10.4468 6.88372L10.43 6.84745L10.4105 6.81397L10.3882 6.78607L10.3631 6.76097L10.3352 6.73865L10.3045 6.71912L10.271 6.70238L10.2376 6.69122L10.2041 6.68006L10.1678 6.67448L10.1315 6.67169H10.0897L10.0506 6.68006L10.0171 6.68843L9.98088 6.69959L9.94461 6.71633L9.91113 6.73585L9.88044 6.76097L9.85255 6.78607L9.82465 6.81397L9.79954 6.84745L9.77721 6.88093L9.75769 6.9172L9.73816 6.95347L9.72421 6.9981L9.71026 7.03996L9.70189 7.08459L9.6182 7.52261Z" stroke="white" stroke-width="0.216" stroke-miterlimit="2.6131"/>
<path fill-rule="evenodd" clip-rule="evenodd" d="M14.6677 6.37325L14.6398 6.35651L14.6147 6.34535L14.584 6.32861L14.5505 6.31466L14.5198 6.30351L14.4835 6.28956L14.4473 6.27561L14.411 6.26444L14.3692 6.25329L14.3301 6.24492L14.2855 6.23655L14.2408 6.23097L14.1906 6.22539L14.1432 6.2226H14.093H14.0399H13.9869L13.9311 6.22539L13.8753 6.23376L13.814 6.24213L13.7554 6.25887L13.6968 6.28398L13.6382 6.31188L13.5768 6.35093L13.521 6.39836L13.4652 6.45137L13.4122 6.52112L13.362 6.59923L13.3146 6.6913L13.2699 6.79731L13.2309 6.91728L13.1974 7.0512L13.1835 7.12652L13.1751 7.20185L13.1723 7.27718V7.34972L13.1807 7.41946L13.1946 7.48921L13.2141 7.55058L13.2365 7.61475L13.2672 7.67334L13.3062 7.72635L13.3508 7.77657L13.4011 7.8212L13.4597 7.85747L13.5238 7.89095L13.5964 7.91885L13.6773 7.93838L13.7052 7.94396L13.7359 7.94954L13.7749 7.95512L13.8168 7.95791L13.8642 7.96349H13.9116H13.9646L14.0176 7.95791L14.0734 7.95233L14.1292 7.94117L14.1822 7.92722L14.2352 7.91048L14.2883 7.88537L14.3357 7.85747L14.3803 7.824L14.4222 7.78773L14.3273 8.35129L14.3134 8.36244L14.3022 8.37639L14.2855 8.39034L14.2659 8.4015L14.2436 8.42103L14.2129 8.43498L14.1794 8.44893L14.1404 8.46288L14.093 8.47683L14.0372 8.48799L13.973 8.49636L13.9005 8.50473L13.8168 8.50752L13.7219 8.51031L13.6131 8.50752L13.4959 8.50194L13.3983 8.49078L13.3006 8.47125L13.203 8.43777L13.1053 8.39593L13.0133 8.3457L12.924 8.28154L12.8375 8.209L12.7594 8.12251L12.6896 8.02766L12.6311 7.92164L12.5808 7.80447L12.5418 7.67334L12.5167 7.53385L12.5083 7.38319L12.5139 7.2158L12.5362 7.04004L12.5529 6.95355L12.5725 6.86985L12.592 6.78616L12.6143 6.70804L12.6366 6.6355L12.6645 6.56018L12.6924 6.49043L12.7231 6.42626L12.7538 6.3593L12.7845 6.29793L12.8208 6.23934L12.8598 6.18354L12.8989 6.13053L12.9407 6.08031L12.9826 6.03289L13.0272 5.98825L13.0746 5.9464L13.1249 5.90734L13.1751 5.87107L13.2281 5.83759L13.2867 5.80411L13.3425 5.77621L13.4011 5.75111L13.4624 5.72879L13.5294 5.70647L13.5936 5.68973L13.6633 5.67578L13.7359 5.66183L13.8056 5.65067L13.8837 5.6423L13.959 5.63951L14.0399 5.63672L14.1069 5.63951L14.1739 5.6423L14.2352 5.65067L14.2994 5.65904L14.358 5.66741L14.4166 5.67857L14.4724 5.68973L14.5226 5.70368L14.57 5.71484L14.6147 5.72879L14.6537 5.73995L14.6872 5.7539L14.7179 5.76506L14.743 5.77342L14.7625 5.78179L14.7737 5.78459L14.6677 6.37325Z" fill="white"/>
<path d="M14.6677 6.37325L14.6398 6.35651L14.6147 6.34535L14.584 6.32861L14.5505 6.31466L14.5198 6.30351L14.4835 6.28956L14.4473 6.27561L14.411 6.26444L14.3692 6.25329L14.3301 6.24492L14.2855 6.23655L14.2408 6.23097L14.1906 6.22539L14.1432 6.2226H14.093H14.0399H13.9869L13.9311 6.22539L13.8753 6.23376L13.814 6.24213L13.7554 6.25887L13.6968 6.28398L13.6382 6.31188L13.5768 6.35093L13.521 6.39836L13.4652 6.45137L13.4122 6.52112L13.362 6.59923L13.3146 6.6913L13.2699 6.79731L13.2309 6.91728L13.1974 7.0512L13.1835 7.12652L13.1751 7.20185L13.1723 7.27718V7.34972L13.1807 7.41946L13.1946 7.48921L13.2141 7.55058L13.2365 7.61475L13.2672 7.67334L13.3062 7.72635L13.3508 7.77657L13.4011 7.8212L13.4597 7.85747L13.5238 7.89095L13.5964 7.91885L13.6773 7.93838L13.7052 7.94396L13.7359 7.94954L13.7749 7.95512L13.8168 7.95791L13.8642 7.96349H13.9116H13.9646L14.0176 7.95791L14.0734 7.95233L14.1292 7.94117L14.1822 7.92722L14.2352 7.91048L14.2883 7.88537L14.3357 7.85747L14.3803 7.824L14.4222 7.78773L14.3273 8.35129L14.3134 8.36244L14.3022 8.37639L14.2855 8.39034L14.2659 8.4015L14.2436 8.42103L14.2129 8.43498L14.1794 8.44893L14.1404 8.46288L14.093 8.47683L14.0372 8.48799L13.973 8.49636L13.9005 8.50473L13.8168 8.50752L13.7219 8.51031L13.6131 8.50752L13.4959 8.50194L13.3983 8.49078L13.3006 8.47125L13.203 8.43777L13.1053 8.39593L13.0133 8.3457L12.924 8.28154L12.8375 8.209L12.7594 8.12251L12.6896 8.02766L12.6311 7.92164L12.5808 7.80447L12.5418 7.67334L12.5167 7.53385L12.5083 7.38319L12.5139 7.2158L12.5362 7.04004L12.5529 6.95355L12.5725 6.86985L12.592 6.78616L12.6143 6.70804L12.6366 6.6355L12.6645 6.56018L12.6924 6.49043L12.7231 6.42626L12.7538 6.3593L12.7845 6.29793L12.8208 6.23934L12.8598 6.18354L12.8989 6.13053L12.9407 6.08031L12.9826 6.03289L13.0272 5.98825L13.0746 5.9464L13.1249 5.90734L13.1751 5.87107L13.2281 5.83759L13.2867 5.80411L13.3425 5.77621L13.4011 5.75111L13.4624 5.72879L13.5294 5.70647L13.5936 5.68973L13.6633 5.67578L13.7359 5.66183L13.8056 5.65067L13.8837 5.6423L13.959 5.63951L14.0399 5.63672L14.1069 5.63951L14.1739 5.6423L14.2352 5.65067L14.2994 5.65904L14.358 5.66741L14.4166 5.67857L14.4724 5.68973L14.5226 5.70368L14.57 5.71484L14.6147 5.72879L14.6537 5.73995L14.6872 5.7539L14.7179 5.76506L14.743 5.77342L14.7625 5.78179L14.7737 5.78459L14.6677 6.37325Z" stroke="white" stroke-width="0.216" stroke-miterlimit="2.6131"/>
<path fill-rule="evenodd" clip-rule="evenodd" d="M19.8819 8.51255H19.296L19.3379 8.2782V8.25588L19.3044 8.29773L19.2681 8.33679L19.2319 8.37026L19.1928 8.40095L19.1565 8.42885L19.1175 8.45117L19.0784 8.4707L19.0394 8.49023L19.0003 8.50418L18.9584 8.51534L18.9194 8.5265L18.8748 8.53208L18.8329 8.53766L18.7938 8.54324H18.752H18.7102L18.5985 8.53487L18.4981 8.51255L18.4033 8.47628L18.3196 8.42885L18.2442 8.36748L18.1745 8.29494L18.1159 8.21682L18.0657 8.12754L18.0238 8.03269L17.9904 7.93225L17.9652 7.82902L17.9485 7.72022L17.9429 7.61141L17.9457 7.50261L17.9541 7.3938L17.9736 7.28779L18.0071 7.16224L18.0434 7.04228L18.088 6.93626L18.141 6.83304L18.1968 6.73818L18.261 6.65169L18.3251 6.57637L18.3949 6.50662L18.4702 6.44524L18.5483 6.39223L18.6292 6.3448L18.7102 6.31133L18.7938 6.28064L18.8775 6.26111L18.964 6.24995L19.0505 6.24437L19.1119 6.24716L19.1705 6.25274L19.2263 6.2639L19.2765 6.27785L19.3239 6.29458L19.3686 6.31412L19.4104 6.33644L19.4495 6.36154L19.4829 6.38665L19.5136 6.41455L19.5415 6.44245L19.5666 6.46756L19.589 6.49546L19.6057 6.52336L19.6252 6.54847L19.6364 6.57357L19.7843 5.74219H20.3618L19.8819 8.51255Z" fill="white"/>
<path d="M19.8819 8.51255H19.296L19.3379 8.2782V8.25588L19.3044 8.29773L19.2681 8.33679L19.2319 8.37026L19.1928 8.40095L19.1565 8.42885L19.1175 8.45117L19.0784 8.4707L19.0394 8.49023L19.0003 8.50418L18.9584 8.51534L18.9194 8.5265L18.8748 8.53208L18.8329 8.53766L18.7938 8.54324H18.752H18.7102L18.5985 8.53487L18.4981 8.51255L18.4033 8.47628L18.3196 8.42885L18.2442 8.36748L18.1745 8.29494L18.1159 8.21682L18.0657 8.12754L18.0238 8.03269L17.9904 7.93225L17.9652 7.82902L17.9485 7.72022L17.9429 7.61141L17.9457 7.50261L17.9541 7.3938L17.9736 7.28779L18.0071 7.16224L18.0434 7.04228L18.088 6.93626L18.141 6.83304L18.1968 6.73818L18.261 6.65169L18.3251 6.57637L18.3949 6.50662L18.4702 6.44524L18.5483 6.39223L18.6292 6.3448L18.7102 6.31133L18.7938 6.28064L18.8775 6.26111L18.964 6.24995L19.0505 6.24437L19.1119 6.24716L19.1705 6.25274L19.2263 6.2639L19.2765 6.27785L19.3239 6.29458L19.3686 6.31412L19.4104 6.33644L19.4495 6.36154L19.4829 6.38665L19.5136 6.41455L19.5415 6.44245L19.5666 6.46756L19.589 6.49546L19.6057 6.52336L19.6252 6.54847L19.6364 6.57357L19.7843 5.74219H20.3618L19.8819 8.51255Z" stroke="white" stroke-width="0.216" stroke-miterlimit="2.6131"/>
<path fill-rule="evenodd" clip-rule="evenodd" d="M18.9224 7.99917L18.981 7.99638L19.0368 7.98243L19.087 7.96848L19.1372 7.94617L19.1819 7.92106L19.2237 7.88758L19.2628 7.85131L19.2991 7.81225L19.3325 7.7704L19.3604 7.72576L19.3883 7.67555L19.4134 7.62533L19.433 7.57232L19.4497 7.51652L19.4664 7.46072L19.4748 7.40214L19.486 7.34355L19.4916 7.28217V7.22358V7.165L19.4832 7.11199L19.4748 7.05619L19.4609 7.00597L19.4441 6.95854L19.4218 6.9167L19.3967 6.87485L19.3716 6.84137L19.3381 6.81068L19.3018 6.78557L19.2628 6.76883L19.2237 6.76046L19.1791 6.75488L19.1233 6.76046L19.0703 6.76883L19.0201 6.78557L18.9726 6.8051L18.9308 6.833L18.8862 6.86648L18.8499 6.90275L18.8136 6.94459L18.7829 6.98923L18.755 7.03945L18.7243 7.08967L18.702 7.14547L18.6825 7.20126L18.6657 7.25985L18.649 7.32123L18.6351 7.38261L18.6239 7.47468L18.6295 7.5779L18.6434 7.68112L18.6713 7.77877L18.7132 7.86805L18.769 7.93779L18.8387 7.98243L18.9224 7.99917Z" fill="#FBB231"/>
<path fill-rule="evenodd" clip-rule="evenodd" d="M5.91865 8.04139L5.83216 8.51288H5.29929L5.31324 8.42639L5.3244 8.34827L5.33277 8.28969L5.34114 8.25621L5.31324 8.28969L5.27697 8.32317L5.23791 8.35664L5.19327 8.38454L5.14306 8.41523L5.09005 8.44034L5.03425 8.46545L4.97845 8.48777L4.91708 8.5073L4.8557 8.52125L4.79432 8.5352L4.73015 8.54357L4.66877 8.54636L4.60739 8.54915L4.54881 8.54357L4.49022 8.5352L4.41489 8.51567L4.34794 8.49335L4.28935 8.46545L4.23634 8.43476L4.18891 8.40128L4.14706 8.36222L4.11359 8.32317L4.08289 8.28132L4.05778 8.23668L4.03826 8.18925L4.02151 8.14182L4.00757 8.09719L3.9992 8.04697L3.99362 7.99954L3.98804 7.95211V7.90468L3.99362 7.82098L4.00757 7.74287L4.02989 7.67033L4.05778 7.5978L4.09126 7.53084L4.12753 7.46946L4.17217 7.41087L4.22239 7.35787L4.27819 7.30765L4.33677 7.26301L4.39815 7.22395L4.45953 7.19047L4.52928 7.15978L4.59902 7.13746L4.67156 7.11793L4.7441 7.10398H4.74968L4.75805 7.10119H4.77479L4.79711 7.0984L4.82222 7.09282H4.85291L4.8836 7.08725L4.91986 7.08445L4.95613 7.07888L4.9924 7.07608L5.03146 7.0733L5.06494 7.06771H5.09842L5.1291 7.06493L5.15979 7.06213H5.18211H5.23233L5.28255 7.06493L5.32997 7.06771H5.37461H5.41368L5.44436 7.07051L5.46389 7.0733H5.47226L5.47505 7.05656L5.489 7.02029L5.49737 6.97565L5.50295 6.93659L5.49459 6.88916L5.47505 6.84731L5.44995 6.80826L5.41646 6.77757L5.37461 6.74967L5.32997 6.73014L5.27976 6.71619L5.22675 6.7134L5.16537 6.71061L5.10121 6.70782H5.03704L4.97008 6.71061L4.90034 6.71619L4.83059 6.72177L4.76363 6.72735L4.69946 6.73572L4.63529 6.74409L4.57392 6.75525L4.51812 6.76641L4.4679 6.77757L4.42048 6.78873L4.38141 6.80268L4.35351 6.81663L4.3284 6.83058L4.47906 6.32003L4.52649 6.30049L4.57392 6.28376L4.62413 6.26702L4.67436 6.25865L4.72457 6.24749L4.78037 6.23912L4.83617 6.23075L4.89197 6.22517L4.95335 6.22238L5.01472 6.21959L5.0761 6.2168H5.14306H5.21001H5.27976L5.35509 6.21959L5.42762 6.22238L5.489 6.22517L5.55038 6.23633L5.61733 6.25028L5.6843 6.26981L5.75125 6.29491L5.81542 6.3256L5.8768 6.36187L5.93818 6.40093L5.98839 6.44836L6.03582 6.49858L6.08046 6.55716L6.11115 6.61854L6.13068 6.68829L6.14463 6.76083V6.83895L6.13068 6.92543L5.91865 8.04139Z" fill="white"/>
<path d="M5.91865 8.04139L5.83216 8.51288H5.29929L5.31324 8.42639L5.3244 8.34827L5.33277 8.28969L5.34114 8.25621L5.31324 8.28969L5.27697 8.32317L5.23791 8.35664L5.19327 8.38454L5.14306 8.41523L5.09005 8.44034L5.03425 8.46545L4.97845 8.48777L4.91708 8.5073L4.8557 8.52125L4.79432 8.5352L4.73015 8.54357L4.66877 8.54636L4.60739 8.54915L4.54881 8.54357L4.49022 8.5352L4.41489 8.51567L4.34794 8.49335L4.28935 8.46545L4.23634 8.43476L4.18891 8.40128L4.14706 8.36222L4.11359 8.32317L4.08289 8.28132L4.05778 8.23668L4.03826 8.18925L4.02151 8.14182L4.00757 8.09718L3.9992 8.04697L3.99362 7.99954L3.98804 7.95211V7.90468L3.99362 7.82098L4.00757 7.74287L4.02989 7.67033L4.05778 7.5978L4.09126 7.53084L4.12753 7.46946L4.17217 7.41087L4.22239 7.35787L4.27819 7.30765L4.33677 7.26301L4.39815 7.22395L4.45953 7.19047L4.52928 7.15978L4.59902 7.13746L4.67156 7.11793L4.7441 7.10398H4.74968L4.75805 7.10119H4.77479L4.79711 7.0984L4.82222 7.09282H4.85291L4.8836 7.08725L4.91986 7.08445L4.95613 7.07888L4.9924 7.07608L5.03146 7.0733L5.06494 7.06771H5.09842L5.1291 7.06493L5.15979 7.06213H5.18211H5.23233L5.28255 7.06493L5.32997 7.06771H5.37461H5.41368L5.44436 7.07051L5.46389 7.0733H5.47226L5.47505 7.05656L5.489 7.02029L5.49737 6.97565L5.50295 6.93659L5.49459 6.88916L5.47505 6.84731L5.44995 6.80826L5.41646 6.77757L5.37461 6.74967L5.32997 6.73014L5.27976 6.71619L5.22675 6.7134L5.16537 6.71061L5.10121 6.70782H5.03704L4.97008 6.71061L4.90034 6.71619L4.83059 6.72177L4.76363 6.72735L4.69946 6.73572L4.63529 6.74409L4.57392 6.75525L4.51812 6.76641L4.4679 6.77757L4.42048 6.78873L4.38141 6.80268L4.35351 6.81663L4.3284 6.83058L4.47906 6.32003L4.52649 6.30049L4.57392 6.28376L4.62413 6.26702L4.67436 6.25865L4.72457 6.24749L4.78037 6.23912L4.83617 6.23075L4.89197 6.22517L4.95335 6.22238L5.01472 6.21959L5.0761 6.2168H5.14306H5.21001H5.27976L5.35509 6.21959L5.42762 6.22238L5.489 6.22517L5.55038 6.23633L5.61733 6.25028L5.6843 6.26981L5.75125 6.29491L5.81542 6.3256L5.8768 6.36187L5.93818 6.40093L5.98839 6.44836L6.03582 6.49858L6.08046 6.55716L6.11115 6.61854L6.13068 6.68829L6.14463 6.76083V6.83895L6.13068 6.92543L5.91865 8.04139Z" stroke="white" stroke-width="0.216" stroke-miterlimit="2.6131"/>
<path fill-rule="evenodd" clip-rule="evenodd" d="M5.40818 7.48842L5.4054 7.48004L5.39703 7.46889L5.38307 7.46052L5.36355 7.45773L5.33843 7.45494L5.31332 7.45215H5.27985H5.24916L5.21569 7.45494L5.17942 7.45773L5.14594 7.46052L5.11245 7.4661L5.07898 7.47168L5.04829 7.47726L5.02318 7.48284L5.00086 7.48842L4.98691 7.494L4.97017 7.49958L4.94507 7.50795L4.92274 7.5191L4.89484 7.53305L4.86695 7.547L4.83905 7.56095L4.81115 7.57769L4.78045 7.60001L4.75256 7.61954L4.72745 7.64744L4.70513 7.67255L4.68282 7.69766L4.66886 7.72834L4.65491 7.76183L4.64933 7.7953L4.64655 7.86784L4.65771 7.92643L4.68002 7.96828L4.70792 7.99896L4.73861 8.02128L4.77488 8.03245L4.80836 8.04082H4.84183H4.906L4.9618 8.03245L5.0176 8.02408L5.06781 8.01292L5.10967 7.99896L5.14872 7.97944L5.18499 7.95991L5.21847 7.93759L5.24358 7.91527L5.26869 7.89016L5.29101 7.86784L5.30775 7.83994L5.32169 7.81484L5.33565 7.78972L5.3468 7.76741L5.35239 7.7423L5.36913 7.68371L5.38307 7.61117L5.39703 7.54422L5.40818 7.48842Z" fill="#EC1C2E"/>
<path fill-rule="evenodd" clip-rule="evenodd" d="M1.46313 8.51297H0.88562L1.36827 5.73145H2.36705L2.4647 7.38306L3.1566 5.73145H4.2028L3.71178 8.51297H3.13427L3.49975 6.43449H3.47743L2.61536 8.51297H1.96531L1.95973 8.42648L1.94578 8.19492L1.92625 7.8685L1.90393 7.48908L1.88441 7.11244L1.86487 6.77765L1.85092 6.53772L1.84534 6.43449H1.83977H1.82581H1.81466L1.46313 8.51297Z" fill="white"/>
<path d="M1.46313 8.51297H0.88562L1.36827 5.73145H2.36705L2.4647 7.38306L3.1566 5.73145H4.2028L3.71178 8.51297H3.13427L3.49975 6.43449H3.47743L2.61536 8.51297H1.96531L1.95973 8.42648L1.94578 8.19492L1.92625 7.8685L1.90393 7.48908L1.88441 7.11244L1.86487 6.77765L1.85092 6.53772L1.84534 6.43449H1.83977H1.82581H1.81466L1.46313 8.51297Z" stroke="white" stroke-width="0.216" stroke-miterlimit="2.6131"/>
<path fill-rule="evenodd" clip-rule="evenodd" d="M16.4282 8.04139L16.3417 8.51288H15.8089L15.8145 8.42639L15.8172 8.35107V8.29248L15.82 8.26737L15.7921 8.29806L15.7614 8.33153L15.7224 8.35944L15.6805 8.39012L15.6359 8.41802L15.5857 8.44313L15.5327 8.46824L15.4797 8.49056L15.4211 8.5073L15.3625 8.52404L15.3039 8.5352L15.2453 8.54357L15.1839 8.54636L15.1254 8.54915L15.0668 8.54357L15.0082 8.5352L14.9328 8.51567L14.8659 8.49335L14.8073 8.46545L14.7515 8.43476L14.7041 8.40128L14.665 8.36222L14.6315 8.32317L14.6009 8.28132L14.5757 8.23668L14.5562 8.18925L14.5395 8.14182L14.5283 8.09719L14.5199 8.04697L14.5144 7.99954L14.5088 7.95211V7.90468L14.5144 7.82098L14.5255 7.74287L14.5451 7.67033L14.573 7.5978L14.6036 7.53084L14.6455 7.46946L14.6901 7.41087L14.7376 7.35787L14.7934 7.30765L14.8519 7.26301L14.9133 7.22395L14.9775 7.19047L15.0444 7.15978L15.1142 7.13746L15.1839 7.11793L15.2565 7.10398H15.2593L15.2704 7.10119H15.2844L15.3067 7.0984L15.3346 7.09282H15.3625L15.396 7.08725L15.4294 7.08445L15.4657 7.07888L15.502 7.07608L15.5383 7.0733L15.5745 7.06771H15.608L15.6387 7.06493L15.6694 7.06213H15.6917H15.7419L15.7921 7.06493L15.8424 7.06771H15.887H15.9288L15.9623 7.07051L15.9819 7.0733H15.9902L15.9958 7.05656L16.0014 7.02029L16.007 6.97565L16.0097 6.93659L16.0042 6.88916L15.9874 6.84731L15.9595 6.80826L15.926 6.77757L15.887 6.74967L15.8451 6.73014L15.7977 6.71619L15.7475 6.7134L15.6861 6.71061L15.6247 6.70782H15.5578L15.4908 6.71061L15.4211 6.71619L15.3513 6.72177L15.2844 6.72735L15.2202 6.73572L15.156 6.74409L15.0947 6.75525L15.0389 6.76641L14.9887 6.77757L14.9412 6.78873L14.9049 6.80268L14.8743 6.81663L14.8519 6.83058L14.9998 6.32003L15.0444 6.30049L15.0947 6.28376L15.1421 6.26702L15.1923 6.25865L15.2453 6.24749L15.3011 6.23912L15.3541 6.23075L15.4127 6.22517L15.4713 6.22238L15.5327 6.21959L15.5941 6.2168H15.661H15.7252H15.7921L15.8647 6.21959L15.9372 6.22238L15.9958 6.22517L16.06 6.23633L16.1241 6.25028L16.1939 6.26981L16.258 6.29491L16.325 6.3256L16.3892 6.36187L16.4478 6.40093L16.5008 6.44836L16.5482 6.49858L16.59 6.55716L16.6235 6.61854L16.6458 6.68829L16.6626 6.76083V6.83895L16.6514 6.92543L16.4282 8.04139Z" fill="white"/>
<path fill-rule="evenodd" clip-rule="evenodd" d="M16.3419 8.52645L16.3531 8.5153L16.4424 8.0438L16.4145 8.04102L16.328 8.50972L16.3419 8.49856V8.52645H16.3531V8.5153L16.3419 8.52645Z" fill="white"/>
<path fill-rule="evenodd" clip-rule="evenodd" d="M15.7978 8.51297L15.809 8.52692H16.3419V8.49902H15.809L15.8229 8.51297H15.7978L15.795 8.52692H15.809L15.7978 8.51297Z" fill="white"/>
<path fill-rule="evenodd" clip-rule="evenodd" d="M15.8312 8.27553L15.8117 8.25879L15.8033 8.29227L15.8005 8.35086V8.42618L15.7977 8.51267H15.8228L15.8256 8.42618L15.8312 8.35086L15.8284 8.29227V8.27553L15.8089 8.25879L15.8312 8.27553Z" fill="white"/>
<path fill-rule="evenodd" clip-rule="evenodd" d="M15.0081 8.54615L15.0667 8.55452L15.1252 8.5601H15.1838L15.2452 8.55452L15.3066 8.54615L15.3652 8.53499L15.4238 8.51825L15.4823 8.50151L15.5354 8.48198L15.5911 8.45687L15.6442 8.42897L15.686 8.40107L15.7306 8.37038L15.7697 8.34249L15.8032 8.30622L15.8311 8.27553L15.8088 8.25879L15.7836 8.28948L15.753 8.32017L15.7139 8.35086L15.6748 8.37875L15.6302 8.40386L15.58 8.42897L15.527 8.45687L15.474 8.4764L15.421 8.49314L15.3596 8.50988L15.301 8.52104L15.2452 8.52941L15.1838 8.53499H15.1252L15.0667 8.52941L15.0108 8.52104L15.0081 8.54615Z" fill="white"/>
<path fill-rule="evenodd" clip-rule="evenodd" d="M14.4949 7.9043L14.4977 7.95172L14.5005 7.99915L14.5089 8.04937L14.5173 8.0968L14.5256 8.14423L14.5452 8.19166L14.5619 8.24188L14.5898 8.28651L14.6205 8.33115L14.654 8.37021L14.6958 8.41206L14.746 8.44554L14.799 8.47901L14.8604 8.50691L14.9302 8.52644L15.0083 8.54597L15.0111 8.52086L14.9357 8.50133L14.8688 8.48181L14.813 8.45391L14.7572 8.42322L14.7125 8.38974L14.6735 8.35347L14.64 8.31441L14.6121 8.27256L14.587 8.22793L14.5703 8.18329L14.5507 8.14144L14.5424 8.09401L14.534 8.04379L14.5256 7.99915L14.5228 7.95172L14.5256 7.9043H14.4949Z" fill="white"/>
<path fill-rule="evenodd" clip-rule="evenodd" d="M15.2566 7.09277L15.1812 7.10394L15.1087 7.12346L15.039 7.14578L14.972 7.17647L14.905 7.20995L14.8437 7.2518L14.7851 7.29644L14.7293 7.34945L14.6791 7.39966L14.6344 7.46104L14.5926 7.52521L14.5619 7.59495L14.534 7.6647L14.5145 7.74282L14.5005 7.82094L14.4949 7.90463H14.5256V7.82094L14.5396 7.74561L14.5591 7.67307L14.587 7.60332L14.6177 7.53637L14.6568 7.47778L14.7014 7.41919L14.746 7.36619L14.8018 7.31876L14.8604 7.27412L14.919 7.23506L14.9832 7.20158L15.0473 7.17368L15.1171 7.14857L15.184 7.12904L15.2566 7.11789V7.09277Z" fill="white"/>
<path fill-rule="evenodd" clip-rule="evenodd" d="M15.6917 7.04785H15.6694L15.6387 7.05064L15.608 7.05343L15.5745 7.05622L15.5383 7.05901L15.502 7.0618L15.4657 7.06738L15.4294 7.07017L15.396 7.07575L15.3625 7.07854L15.3346 7.08133L15.3067 7.08412L15.2844 7.08691L15.2676 7.0897L15.2593 7.09249H15.2565V7.1176H15.2593L15.2732 7.11481L15.2844 7.11202H15.3067L15.3346 7.10644L15.3625 7.10365L15.396 7.10086L15.4294 7.09528L15.4657 7.09249L15.502 7.08691L15.5383 7.08412L15.5745 7.08133L15.608 7.07854L15.6387 7.07575H15.6694H15.6917V7.04785Z" fill="white"/>
<path fill-rule="evenodd" clip-rule="evenodd" d="M15.9762 7.07017L15.9902 7.05901H15.9818L15.9623 7.05622H15.9288L15.8869 7.05064H15.8423H15.7921L15.7419 7.04785H15.6917V7.07575H15.7419H15.7921L15.8423 7.08133H15.8869H15.9288L15.9623 7.08412H15.9818H15.9902L16.0041 7.07575L15.9902 7.08412L16.0013 7.08691L16.0041 7.07575L15.9762 7.07017Z" fill="white"/>
<path fill-rule="evenodd" clip-rule="evenodd" d="M15.9988 6.93652H15.996V6.97558L15.9876 7.01743L15.982 7.05649L15.9764 7.07044L16.0043 7.07602L16.0071 7.05928L16.0127 7.02022L16.0183 6.97558L16.0267 6.93652H16.0239H15.9988Z" fill="white"/>
<path fill-rule="evenodd" clip-rule="evenodd" d="M15.7474 6.72433V6.72712L15.7949 6.72991L15.8395 6.74107L15.8813 6.7606L15.9176 6.7857L15.9483 6.81639L15.9734 6.85266L15.9902 6.89172L15.9985 6.93636H16.0236L16.0153 6.88614L15.9985 6.83871L15.9678 6.79965L15.9344 6.76617L15.8953 6.73548L15.8479 6.71596L15.8004 6.7048L15.7474 6.69922V6.72433Z" fill="white"/>
<path fill-rule="evenodd" clip-rule="evenodd" d="M14.8379 6.82727L14.8602 6.83843L14.8797 6.83007L14.9076 6.81332L14.9439 6.80216L14.9913 6.78821L15.0415 6.77706L15.0973 6.76869L15.1587 6.75753L15.2201 6.74916L15.2843 6.74079L15.3512 6.73242L15.421 6.72684L15.4907 6.72405H15.5577H15.6246H15.686H15.7474V6.69894H15.686L15.6246 6.69336H15.5577L15.4907 6.69894L15.421 6.70173L15.3512 6.70731L15.2843 6.71568L15.2201 6.72405L15.1531 6.73242L15.0918 6.74079L15.036 6.75194L14.9858 6.76311L14.9383 6.77706L14.8993 6.78821L14.8686 6.80216L14.8435 6.8189L14.863 6.83007L14.8379 6.82727Z" fill="white"/>
<path fill-rule="evenodd" clip-rule="evenodd" d="M14.9941 6.30566L14.9858 6.31682L14.8379 6.82737L14.863 6.83016L15.0109 6.31961L15.0025 6.33077L14.9941 6.30566L14.9885 6.30845L14.9858 6.31682L14.9941 6.30566Z" fill="white"/>
<path fill-rule="evenodd" clip-rule="evenodd" d="M15.9371 6.2087L15.8646 6.20591L15.792 6.20312H15.7251H15.6609H15.594L15.5326 6.20591L15.4712 6.2087L15.4126 6.21428L15.354 6.21707L15.2982 6.22544L15.2452 6.23381L15.1922 6.24497L15.1392 6.25613L15.089 6.27008L15.0416 6.28682L14.9941 6.30635L15.0025 6.33146L15.0499 6.31193L15.0974 6.29519L15.1448 6.28124L15.195 6.27008L15.248 6.25892L15.301 6.25055L15.354 6.24218L15.4126 6.23939L15.4712 6.23381H15.5326H15.594H15.6609H15.7251H15.792H15.8646H15.9371V6.2087Z" fill="white"/>
<path fill-rule="evenodd" clip-rule="evenodd" d="M16.6625 6.92501L16.6737 6.83853V6.76041L16.6597 6.68508L16.6346 6.61533L16.6011 6.54837L16.5593 6.48979L16.5091 6.43678L16.456 6.38935L16.3947 6.35029L16.3305 6.31124L16.2635 6.28334L16.1966 6.25823L16.1268 6.2387L16.0627 6.22196L15.9957 6.21359L15.9371 6.20801V6.23312L15.9957 6.2387L16.0571 6.24986L16.1241 6.2638L16.1882 6.28334L16.2552 6.30844L16.3193 6.33634L16.3807 6.37261L16.4393 6.41167L16.4923 6.4591L16.5398 6.50653L16.5816 6.56233L16.6095 6.6237L16.6346 6.69066L16.6486 6.76041V6.83853L16.6374 6.92222L16.6625 6.92501Z" fill="white"/>
<path fill-rule="evenodd" clip-rule="evenodd" d="M16.4421 8.04439L16.6625 6.92564L16.6374 6.92285L16.4142 8.0416L16.4421 8.04439Z" fill="white"/>
<path fill-rule="evenodd" clip-rule="evenodd" d="M15.915 7.48926L15.9122 7.4781L15.9038 7.46694L15.8871 7.46136L15.8676 7.45578L15.8452 7.45299L15.8173 7.4502H15.7839L15.7532 7.45299L15.7197 7.45578L15.6862 7.46136L15.65 7.46415L15.6193 7.46973L15.5886 7.47531L15.5607 7.48088L15.5328 7.48647L15.5105 7.48926L15.4965 7.49205L15.4798 7.49763L15.4574 7.506L15.4351 7.51437L15.4072 7.52552L15.3821 7.53947L15.3514 7.55342L15.3263 7.57295L15.2984 7.59248L15.2705 7.6148L15.2454 7.63712L15.2231 7.66502L15.2036 7.69571L15.1896 7.7264L15.1757 7.76267L15.1701 7.79614L15.1673 7.86868L15.1785 7.92727L15.1952 7.96912L15.2203 7.9998L15.2538 8.02212L15.2901 8.03329L15.3263 8.04166H15.3598H15.424L15.4826 8.03329L15.5384 8.02492L15.5886 8.00817L15.6332 7.99143L15.6751 7.97191L15.7113 7.95238L15.7476 7.92727L15.7755 7.90216L15.8006 7.87705L15.8257 7.84915L15.8452 7.82125L15.8592 7.79614L15.8703 7.77104L15.8787 7.74593L15.8843 7.72361L15.8927 7.66502L15.9038 7.60364L15.9122 7.54226L15.915 7.48926Z" fill="#FBB231"/>
<path fill-rule="evenodd" clip-rule="evenodd" d="M20.2782 8.22305L20.2838 8.17562L20.3005 8.11703L20.3284 8.06681L20.3647 8.02217L20.4093 7.98591L20.4595 7.9608L20.5153 7.94406L20.5739 7.93848L20.6353 7.94406L20.6883 7.9608L20.7413 7.98591L20.786 8.02217L20.8194 8.06681L20.8501 8.11703L20.8669 8.17562L20.8724 8.22305H20.8083L20.8055 8.18399L20.7915 8.13935L20.772 8.0975L20.7441 8.05844L20.7106 8.03054L20.6716 8.00822L20.6241 7.99428L20.5739 7.9887L20.5265 7.99428L20.4791 8.00822L20.44 8.03054L20.4065 8.05844L20.3786 8.0975L20.3563 8.13935L20.3452 8.18399L20.3396 8.22305H20.2782Z" fill="white"/>
<path fill-rule="evenodd" clip-rule="evenodd" d="M20.4681 8.22222V8.09668H20.5853H20.6104L20.6355 8.10226L20.6523 8.10784L20.6662 8.11621L20.6774 8.13016L20.6858 8.14132L20.6885 8.15527L20.6913 8.17201L20.6885 8.19153L20.6858 8.20549L20.6802 8.21944L20.6746 8.22222H20.5853L20.5937 8.21944H20.6076L20.6216 8.21385L20.6327 8.20827L20.6411 8.2027L20.6439 8.19712L20.6495 8.18596V8.17201L20.6467 8.16085L20.6439 8.15248L20.6355 8.1469L20.63 8.14411L20.6188 8.14132H20.6076H20.5993H20.5853H20.5211V8.22222H20.4681Z" fill="white"/>
<path fill-rule="evenodd" clip-rule="evenodd" d="M20.2783 8.22266L20.2755 8.23661L20.2839 8.29798L20.3006 8.35378L20.3285 8.404L20.3648 8.44585L20.4094 8.48212L20.4596 8.51001L20.5154 8.52675L20.574 8.53513L20.6354 8.52675L20.6884 8.51001L20.7414 8.48212L20.7861 8.44585L20.8195 8.404L20.8502 8.35378L20.867 8.29798L20.8726 8.23661V8.22266H20.8084L20.8112 8.23661L20.8056 8.28682L20.7916 8.33425L20.7721 8.37331L20.7442 8.40958L20.7107 8.43748L20.6717 8.46259L20.6242 8.47654L20.574 8.48212L20.5266 8.47654L20.4792 8.46259L20.4401 8.43748L20.4066 8.40958L20.3787 8.37331L20.3564 8.33425L20.3453 8.28682L20.3397 8.23661V8.22266H20.2783Z" fill="white"/>
<path fill-rule="evenodd" clip-rule="evenodd" d="M20.4681 8.22266V8.35099H20.5211V8.24498H20.5742L20.6383 8.35099H20.6802L20.6188 8.24498H20.6327L20.6467 8.24219L20.6606 8.23661L20.6718 8.22824L20.6746 8.22266H20.5853L20.5742 8.22545H20.5211V8.22266H20.4681Z" fill="white"/>
<path d="M20.2755 8.237L20.2811 8.17562L20.2978 8.11703L20.3285 8.06681L20.3648 8.02217L20.4094 7.98591L20.4596 7.9608L20.5154 7.94406L20.574 7.93848L20.6326 7.94406L20.6884 7.9608L20.7386 7.98591L20.7833 8.02217L20.8195 8.06681L20.8502 8.11703L20.867 8.17562L20.8726 8.237L20.867 8.29837L20.8502 8.35417L20.8195 8.40439L20.7833 8.44624L20.7386 8.48251L20.6884 8.51041L20.6326 8.52714L20.574 8.53272L20.5154 8.52714L20.4596 8.51041L20.4094 8.48251L20.3648 8.44624L20.3285 8.40439L20.2978 8.35417L20.2811 8.29837L20.2755 8.237ZM20.521 8.35138H20.468V8.0975H20.5852L20.6103 8.10029L20.6326 8.10308L20.6494 8.10866L20.6633 8.11703L20.6745 8.13098L20.6828 8.14493L20.6884 8.15888L20.6912 8.17283L20.6884 8.19236L20.6828 8.20631L20.6773 8.22026L20.6689 8.23142L20.6577 8.23979L20.6438 8.24537L20.6298 8.25095H20.6159L20.6801 8.35696H20.6382L20.574 8.25095H20.521V8.35138ZM20.574 8.22584L20.5936 8.22026L20.6075 8.21747L20.6215 8.21468L20.6326 8.2091L20.641 8.20352L20.6466 8.19794L20.6494 8.18678V8.17283L20.6466 8.16167L20.641 8.1533L20.6354 8.15051L20.6298 8.14493L20.6187 8.14214L20.6075 8.13935H20.5963H20.5824H20.5182V8.22305H20.574V8.22584ZM20.574 8.48251L20.6242 8.47693L20.6717 8.46298L20.7107 8.44066L20.7442 8.40997L20.7721 8.3737L20.7944 8.33464L20.8084 8.28721L20.8112 8.237L20.8084 8.18678L20.7944 8.13935L20.7721 8.0975L20.7442 8.06123L20.7107 8.03054L20.6717 8.00822L20.6242 7.99428L20.574 7.9887L20.5266 7.99428L20.4792 8.00822L20.4401 8.03054L20.4066 8.06123L20.3787 8.0975L20.3564 8.13935L20.3425 8.18678L20.3369 8.237L20.3425 8.28721L20.3564 8.33464L20.3787 8.3737L20.4066 8.40997L20.4401 8.44066L20.4792 8.46298L20.5266 8.47693L20.574 8.48251Z" stroke="white" stroke-width="0.216" stroke-miterlimit="2.6131"/>
<path fill-rule="evenodd" clip-rule="evenodd" d="M16.5873 8.51316H17.1844L17.3992 7.30792L17.4076 7.2605L17.4187 7.21586L17.4327 7.16843L17.4494 7.121L17.4717 7.07636L17.4968 7.03172L17.5247 6.98709L17.5582 6.94803L17.5945 6.91176L17.6391 6.87828L17.6866 6.84759L17.7424 6.81969L17.8037 6.80017L17.8707 6.78342L17.946 6.76948L18.0269 6.76668H18.0576H18.0744H18.0799L18.1748 6.22266L18.1162 6.22544L18.0604 6.23382L18.0074 6.24219L17.9544 6.25893L17.9098 6.27566L17.8651 6.29519L17.8205 6.3203L17.7814 6.34541L17.7424 6.37331L17.7089 6.404L17.6726 6.43748L17.6391 6.47096L17.6084 6.50723L17.575 6.54907L17.5443 6.58534L17.5164 6.62719L17.5778 6.24498H16.9835L16.5873 8.51316Z" fill="white"/>
<path d="M16.5873 8.51316H17.1844L17.3992 7.30792L17.4076 7.2605L17.4187 7.21586L17.4327 7.16843L17.4494 7.121L17.4717 7.07636L17.4968 7.03172L17.5247 6.98709L17.5582 6.94803L17.5945 6.91176L17.6391 6.87828L17.6866 6.84759L17.7424 6.81969L17.8037 6.80017L17.8707 6.78342L17.946 6.76948L18.0269 6.76668H18.0576H18.0744H18.0799L18.1748 6.22266L18.1162 6.22544L18.0604 6.23382L18.0074 6.24219L17.9544 6.25893L17.9098 6.27566L17.8651 6.29519L17.8205 6.3203L17.7814 6.34541L17.7424 6.37331L17.7089 6.404L17.6726 6.43748L17.6391 6.47096L17.6084 6.50723L17.575 6.54907L17.5443 6.58534L17.5164 6.62719L17.5778 6.24498H16.9835L16.5873 8.51316Z" stroke="white" stroke-width="0.216" stroke-miterlimit="2.6131"/>
<path fill-rule="evenodd" clip-rule="evenodd" d="M10.9796 8.51316H11.5766H11.5878L11.7914 7.30792L11.7998 7.2605L11.8082 7.21586L11.8193 7.17401L11.8361 7.12937L11.8528 7.08752L11.8723 7.04847L11.8974 7.00941L11.9281 6.97314L11.9616 6.94245L12.0007 6.90897L12.0481 6.88386L12.0983 6.86154L12.1569 6.84201L12.2239 6.82527L12.2936 6.81411L12.3773 6.80854H12.3829L12.3912 6.81132H12.4024H12.4136L12.4247 6.81411L12.4331 6.8169L12.4387 6.81969H12.4415V6.81132L12.4498 6.78622L12.4582 6.74716L12.4694 6.69973L12.4833 6.64393L12.4973 6.58534L12.5168 6.52675L12.5363 6.46817L12.5531 6.42632L12.5754 6.38726L12.5949 6.34541L12.6172 6.31193L12.634 6.27845L12.6507 6.25335L12.6619 6.23939L12.6646 6.23382H12.6619L12.6535 6.23103L12.6451 6.22824L12.6284 6.22544H12.6144L12.5977 6.22266H12.5837H12.567L12.5028 6.22544L12.4415 6.23382L12.3885 6.24219L12.3382 6.25613L12.288 6.27288L12.2434 6.29519L12.2043 6.31472L12.1653 6.33983L12.129 6.36773L12.0955 6.39842L12.0648 6.4319L12.0313 6.46817L12.0007 6.50443L11.97 6.54349L11.9393 6.58534L11.9058 6.62719L11.9839 6.24498H11.3757L10.9796 8.51316Z" fill="white"/>
<path d="M10.9796 8.51316H11.5766H11.5878L11.7914 7.30792L11.7998 7.2605L11.8082 7.21586L11.8193 7.17401L11.8361 7.12937L11.8528 7.08752L11.8723 7.04847L11.8974 7.00941L11.9281 6.97314L11.9616 6.94245L12.0007 6.90897L12.0481 6.88386L12.0983 6.86154L12.1569 6.84201L12.2239 6.82527L12.2936 6.81411L12.3773 6.80854H12.3829L12.3912 6.81132H12.4024H12.4136L12.4247 6.81411L12.4331 6.8169L12.4387 6.81969H12.4415V6.81132L12.4498 6.78622L12.4582 6.74716L12.4694 6.69973L12.4833 6.64393L12.4973 6.58534L12.5168 6.52675L12.5363 6.46817L12.5531 6.42632L12.5754 6.38726L12.5949 6.34541L12.6172 6.31193L12.634 6.27845L12.6507 6.25335L12.6619 6.23939L12.6646 6.23382H12.6619L12.6535 6.23103L12.6451 6.22824L12.6284 6.22544H12.6144L12.5977 6.22266H12.5837H12.567L12.5028 6.22544L12.4415 6.23382L12.3885 6.24219L12.3382 6.25613L12.288 6.27288L12.2434 6.29519L12.2043 6.31472L12.1653 6.33983L12.129 6.36773L12.0955 6.39842L12.0648 6.4319L12.0313 6.46817L12.0007 6.50443L11.97 6.54349L11.9393 6.58534L11.9058 6.62719L11.9839 6.24498H11.3757L10.9796 8.51316Z" stroke="white" stroke-width="0.216" stroke-miterlimit="2.6131"/>
<path fill-rule="evenodd" clip-rule="evenodd" d="M20.2838 10.742V10.7309L20.3006 10.6779L20.3285 10.6276L20.3647 10.5858L20.4094 10.5523L20.4596 10.5272L20.5154 10.5133L20.574 10.5049L20.6353 10.5133L20.6884 10.5272L20.7414 10.5523L20.786 10.5858L20.8195 10.6276L20.8502 10.6779L20.8669 10.7309V10.742H20.8055L20.7916 10.6974L20.772 10.6555L20.7441 10.6193L20.7107 10.5914L20.6716 10.5663L20.6242 10.5523L20.574 10.5467L20.5265 10.5523L20.4791 10.5663L20.44 10.5914L20.4066 10.6193L20.3787 10.6555L20.3564 10.6974L20.3452 10.742H20.2838Z" fill="#FBB231"/>
<path fill-rule="evenodd" clip-rule="evenodd" d="M20.4681 10.7423V10.667H20.5853H20.6104L20.6355 10.6726L20.6523 10.6754L20.6662 10.6837L20.6774 10.6949L20.6858 10.7061L20.6885 10.7228L20.6913 10.7423H20.6495V10.7312L20.6467 10.72L20.6439 10.7116L20.6355 10.7061L20.63 10.7033L20.6188 10.7005L20.6076 10.6977H20.5993H20.5853H20.5211V10.7423H20.4681Z" fill="#FBB231"/>
<path fill-rule="evenodd" clip-rule="evenodd" d="M20.2755 10.7868L20.2839 10.7422H20.3453L20.3397 10.7868H20.2755Z" fill="#FBB231"/>
<path fill-rule="evenodd" clip-rule="evenodd" d="M20.4681 10.7868V10.7422H20.5211V10.784H20.5742L20.5937 10.7785L20.6076 10.7757L20.6216 10.7729L20.6327 10.7673L20.6411 10.7617L20.6439 10.7561L20.6495 10.745V10.7422H20.6913L20.6885 10.7561L20.6858 10.7673L20.6802 10.7785L20.6718 10.7868H20.4681Z" fill="#FBB231"/>
<path fill-rule="evenodd" clip-rule="evenodd" d="M20.8111 10.7868L20.8055 10.7422H20.8669L20.8724 10.7868H20.8111Z" fill="#FBB231"/>
<path fill-rule="evenodd" clip-rule="evenodd" d="M20.2755 10.7871V10.7927L20.2839 10.8541L20.3006 10.9127L20.3285 10.9629L20.3648 11.0075L20.4094 11.0438L20.4596 11.0689L20.5154 11.0856L20.574 11.094L20.6354 11.0856L20.6884 11.0689L20.7414 11.0438L20.7861 11.0075L20.8195 10.9629L20.8502 10.9127L20.867 10.8541L20.8726 10.7927V10.7871H20.8112V10.7927L20.8056 10.8457L20.7916 10.8903L20.7721 10.9322L20.7442 10.9685L20.7107 10.9964L20.6717 11.0215L20.6242 11.0354L20.574 11.041L20.5266 11.0354L20.4792 11.0215L20.4401 10.9964L20.4066 10.9685L20.3787 10.9322L20.3564 10.8903L20.3453 10.8457L20.3397 10.7927V10.7871H20.2755Z" fill="#FBB231"/>
<path fill-rule="evenodd" clip-rule="evenodd" d="M20.4681 10.7871V10.9099H20.5211V10.8038H20.5742L20.6383 10.9099H20.6802L20.6188 10.8038H20.6327L20.6467 10.8011L20.6606 10.7955L20.6718 10.7871H20.4681Z" fill="#FBB231"/>
<path fill-rule="evenodd" clip-rule="evenodd" d="M11.0467 6.91999L11.0299 6.79444L10.9992 6.68285L10.9574 6.5852L10.9044 6.5015L10.8402 6.42897L10.7705 6.37038L10.6951 6.32016L10.6114 6.2811L10.5277 6.24762L10.4412 6.2253L10.3548 6.21136L10.2683 6.20299L10.1846 6.2002L10.0116 6.20856L9.86095 6.23368L9.72424 6.27274L9.60149 6.32574L9.49548 6.38991L9.40062 6.46245L9.31692 6.54335L9.24997 6.62705L9.19138 6.71633L9.14395 6.80839L9.10489 6.90046L9.0742 6.98974L9.05189 7.07901L9.03514 7.15992L9.02399 7.23804L9.01562 7.30499L9.00446 7.47797L9.01003 7.6342L9.03236 7.77649L9.06863 7.90203L9.11884 8.01362L9.18022 8.11127L9.25275 8.19776L9.33645 8.27029L9.42573 8.33167L9.52059 8.38468L9.62102 8.42653L9.72424 8.45722L9.83026 8.48233L9.93628 8.49627L10.0423 8.50744L10.1455 8.51022H10.2153L10.2822 8.50744H10.338L10.3938 8.50465L10.4412 8.50186L10.4859 8.49907L10.5277 8.49349L10.5668 8.48791L10.6031 8.48233L10.6365 8.47396L10.67 8.4628L10.7007 8.45164L10.7314 8.43769L10.7649 8.42653L10.7984 8.40979L10.8318 8.39305L10.9155 7.87134L10.8542 7.90761L10.7956 7.94109L10.7342 7.9662L10.6756 7.98852L10.6198 8.00804L10.5612 8.01921L10.5026 8.03036L10.4468 8.03873L10.3882 8.04431L10.3324 8.04711H10.2739L10.2181 8.04431L10.1623 8.03873L10.1065 8.03316L10.0535 8.02757L9.99766 8.01921L9.95581 8.01084L9.91396 7.99689L9.87211 7.97736L9.83305 7.95504L9.79399 7.92993L9.76051 7.89924L9.72983 7.86855L9.69914 7.83228L9.67403 7.79601L9.65171 7.75696L9.63497 7.7179L9.62102 7.67884L9.61265 7.63978L9.60987 7.60072L9.61265 7.56445L9.61823 7.53656H10.9909L11.002 7.40822L11.0327 7.22967L11.0467 7.06785V6.91999ZM10.4719 7.11528H9.69914V7.11249L9.70472 7.0818L9.71309 7.03716L9.72704 6.99532L9.74098 6.95347L9.76051 6.91441L9.78004 6.87814L9.80236 6.84466L9.82748 6.81397L9.85537 6.78328L9.88327 6.75817L9.91675 6.73585L9.94744 6.71633L9.98371 6.69959L10.02 6.68843L10.0562 6.68006L10.0953 6.67448L10.1344 6.67169L10.1734 6.67727L10.2097 6.68285L10.2432 6.69122L10.2766 6.70238L10.3073 6.71912L10.338 6.73865L10.3659 6.76097L10.391 6.78607L10.4133 6.81676L10.4357 6.84745L10.4496 6.88372L10.4636 6.92278L10.4719 6.96463L10.4775 7.01205L10.4803 7.06227L10.4719 7.11528Z" fill="white"/>
</svg>
