<svg width="21" height="8" viewBox="0 0 21 8" fill="none" xmlns="http://www.w3.org/2000/svg">
<path d="M9.10284 7.21989H7.39264L8.46117 0.655273H10.1714L9.10284 7.21989Z" fill="#0066B2"/>
<path d="M5.95595 0.655273L4.32665 5.17211L4.13415 4.19843L3.55943 1.24673C3.55943 1.24673 3.48969 0.655273 2.74758 0.655273H0.0525396L0.0218506 0.766867C0.0218506 0.766867 0.844869 0.937051 1.81017 1.51735L3.2944 7.22268H5.07434L7.79449 0.658062H5.95595V0.655273Z" fill="#0066B2"/>
<path d="M19.4003 7.21989H20.971L19.6012 0.655273H18.2258C17.5925 0.655273 17.4362 1.1435 17.4362 1.1435L14.8863 7.21989H16.669L17.0261 6.24342H19.1995L19.4003 7.21989ZM17.5199 4.8987L18.4183 2.4408L18.9233 4.8987H17.5199Z" fill="#0066B2"/>
<path d="M15.0233 2.23434L15.266 0.825444C15.266 0.825444 14.5127 0.538086 13.7288 0.538086C12.8806 0.538086 10.8663 0.90914 10.8663 2.71141C10.8663 4.40766 13.2322 4.42998 13.2322 5.31996C13.2322 6.20993 11.1119 6.05091 10.4116 5.49014L10.1577 6.9632C10.1577 6.9632 10.9221 7.33426 12.0883 7.33426C13.2545 7.33426 15.0149 6.72886 15.0149 5.08561C15.0149 3.3782 12.6296 3.21917 12.6296 2.47706C12.6268 1.73495 14.2923 1.82981 15.0233 2.23434Z" fill="#0066B2"/>
<path d="M4.13171 4.19843L3.55699 1.24673C3.55699 1.24673 3.48725 0.655273 2.74513 0.655273H0.0500982L0.0194092 0.766867C0.0194092 0.766867 1.31392 1.0347 2.55542 2.04185C3.7467 3.00157 4.13171 4.19843 4.13171 4.19843Z" fill="#F9A533"/>
</svg>
