<?xml version="1.0" encoding="UTF-8" standalone="no"?>
<svg
   xmlns="http://www.w3.org/2000/svg"
   width="37"
   height="42"
   viewBox="0 0 37 42"
   version="1.1"
   id="svg6"
   style="fill:none">
  <path
     d="m 13.704575,8.0815724 0.7071,-0.7071 -0.7071,-0.70711 -0.7071,0.70711 z m 16.2328,16.2327696 0.7071,0.7071 c 0.1875,-0.1875 0.2929,-0.4419 0.2929,-0.7071 0,-0.2652 -0.1054,-0.5196 -0.2929,-0.7071 z M 7.9826746,0.94543537 c -0.3905,-0.3905241 -1.0237,-0.3905241 -1.4142,0 -0.3905,0.39052503 -0.3905,1.02368703 0,1.41421703 z m -5.1791,22.36890663 c -0.5523,0 -1,0.4477 -1,1 0,0.5523 0.4477,1 1,1 z M 12.997475,8.7886824 l 16.2328,16.2327596 1.4142,-1.4142 -16.2328,-16.2327696 z m 16.2328,14.8185596 -9.6102,9.6102 1.4142,1.4142 9.6102,-9.6102 z m -19.5097004,9.6102 -4.9191,-4.9191 -1.4142,1.4142 4.9191,4.9191 z m -4.9191,-14.8186 9.6102004,-9.6101596 -1.4142,-1.41421 -9.6102004,9.6101696 z M 30.644475,23.607242 7.9826746,0.94543537 6.5684746,2.3596524 29.230275,25.021442 Z m -0.7071,-0.2929 H 2.8035746 v 2 H 29.937375 Z m -25.1359004,4.984 c -2.7336,-2.7337 -2.7336,-7.1658 0,-9.8995 l -1.4142,-1.4142 c -3.51468002,3.5147 -3.51469002,9.2132 0,12.7279 z m 14.8186004,4.9191 c -2.7337,2.7336 -7.1658,2.7336 -9.8995004,0 l -1.4142,1.4142 c 3.5147004,3.5147 9.2132004,3.5147 12.7279004,0 z"
     id="path2"
     style="fill:#657176" />
  <path
     d="m 30.046875,33.546542 c 1.4569,-1.6345 1.6149,-4.2404 1.4678,-5.8759 -0.0188,-0.2091 0.2597,-0.3277 0.381,-0.1563 1.9146,2.7057 4.5564,7.8538 2.7633,11.2066 -2.4417,4.5656 -8.4103,0.3044 -4.6121,-5.1744 z"
     id="path4"
     style="stroke:#657176;stroke-width:2" />
</svg>
