<svg width="35" height="23" viewBox="0 0 35 23" fill="none" xmlns="http://www.w3.org/2000/svg">
<path d="M1 13.9231L13.1941 1H24.3278H33.3077M1 13.9231V22H5.30769M1 13.9231H5.30769M33.3077 1L22.5385 13.9231M33.3077 1V8L22.5385 22M22.5385 13.9231V22M22.5385 13.9231H18.2308M22.5385 22H18.2308M5.30769 13.9231V22M5.30769 13.9231H9.61539M5.30769 22H9.61539M9.61539 22V13.9231M9.61539 22H13.9231M9.61539 13.9231H13.9231M13.9231 13.9231V22M13.9231 13.9231H18.2308M13.9231 22H18.2308M18.2308 22V13.9231" stroke="#657176" stroke-width="2" stroke-linecap="round" stroke-linejoin="round"/>
</svg>
