<svg width="32" height="32" viewBox="0 0 32 32" fill="none" xmlns="http://www.w3.org/2000/svg">
<path d="M16.2174 31L1 11.76M16.2174 31L10.5652 11.76M16.2174 31L31 11.76M16.2174 31L21.4348 11.76M1 11.76L6.21739 5M1 11.76H10.5652M6.21739 5L10.5652 11.76M6.21739 5H16.2174M10.5652 11.76L16.2174 5M10.5652 11.76H21.4348M16.2174 5L21.4348 11.76M16.2174 5H25.7826M31 11.76L25.7826 5M31 11.76H21.4348M25.7826 5L23.6087 8.38L21.4348 11.76" stroke="#657176" stroke-width="2" stroke-linecap="round" stroke-linejoin="round"/>
<path d="M6 1H25" stroke="#657176" stroke-width="2" stroke-linecap="round"/>
</svg>
