<svg width="37" height="41" viewBox="0 0 37 41" fill="none" xmlns="http://www.w3.org/2000/svg">
<path d="M23.5625 17.3713C23.172 17.7618 23.172 18.395 23.5625 18.7855C23.9531 19.176 24.5862 19.176 24.9767 18.7855L23.5625 17.3713ZM25.8097 21.4162C25.4192 21.8068 25.4192 22.4399 25.8097 22.8305C26.2002 23.221 26.8334 23.221 27.2239 22.8305L25.8097 21.4162ZM28.5064 24.1129C28.1158 24.5034 28.1158 25.1366 28.5064 25.5271C28.8969 25.9176 29.53 25.9176 29.9206 25.5271L28.5064 24.1129ZM32.0324 22.0622L31.5852 21.1677L32.0324 22.0622ZM31.9906 21.9019L31.0508 21.5601L31.9906 21.9019ZM26.5588 33.8739L27.3062 34.5383L26.5588 33.8739ZM27.8651 7.29189L27.158 6.58479L27.8651 7.29189ZM34.3593 25.0983L35.1067 25.7627L34.3593 25.0983ZM6.02054 15.1585L5.54774 16.0397L6.02054 15.1585ZM29.2916 19.17L28.3349 18.8788L29.2916 19.17ZM31.4606 10.8874L30.7535 10.1803L31.4606 10.8874ZM5.54774 16.0397C7.20507 16.929 8.98454 18.1401 9.62996 18.7855L11.0442 17.3713C10.1877 16.5148 8.19977 15.193 6.49335 14.2773L5.54774 16.0397ZM16.8735 19.6978L28.5723 7.999L27.158 6.58479L15.4593 18.2835L16.8735 19.6978ZM30.7535 10.1803L25.3603 15.5735L26.7745 16.9878L32.1678 11.5945L30.7535 10.1803ZM25.3603 15.5735L23.5625 17.3713L24.9767 18.7855L26.7745 16.9878L25.3603 15.5735ZM28.5064 18.7196L25.8097 21.4162L27.2239 22.8305L29.9206 20.1338L28.5064 18.7196ZM31.203 21.4162L28.5064 24.1129L29.9206 25.5271L32.6172 22.8305L31.203 21.4162ZM33.6119 24.434L25.8114 33.2096L27.3062 34.5383L35.1067 25.7627L33.6119 24.434ZM4.58517 18.5752L2.37066 16.7298L1.0903 18.2662L3.3048 20.1116L4.58517 18.5752ZM28.3349 18.8788L28.2568 19.1356L30.1701 19.7179L30.2483 19.4611L28.3349 18.8788ZM31.0508 21.5601L30.9703 21.7816L32.8499 22.4651L32.9304 22.2436L31.0508 21.5601ZM32.3573 23.0178L32.4796 22.9566L31.5852 21.1677L31.4629 21.2289L32.3573 23.0178ZM14.1902 33.5511L10.5826 29.9435L9.16843 31.3577L12.776 34.9653L14.1902 33.5511ZM32.4796 22.9566C33.246 22.5734 34.087 23.323 33.7942 24.1282L35.6738 24.8117C36.5844 22.3074 33.9686 19.976 31.5852 21.1677L32.4796 22.9566ZM29.6607 20.3211C30.4711 19.9159 31.3605 20.7086 31.0508 21.5601L32.9304 22.2436C33.8579 19.693 31.1937 17.3185 28.7662 18.5323L29.6607 20.3211ZM25.8114 33.2096C22.7572 36.6454 17.4408 36.8017 14.1902 33.5511L12.776 34.9653C16.8403 39.0296 23.4876 38.8342 27.3062 34.5383L25.8114 33.2096ZM8.21391 25.1501C7.87137 22.5811 6.57625 20.2344 4.58517 18.5752L3.3048 20.1116C4.91065 21.4498 5.95519 23.3425 6.23146 25.4145L8.21391 25.1501ZM28.5723 7.999C29.1746 7.39665 30.1512 7.39665 30.7535 7.999L32.1678 6.58479C30.7844 5.20139 28.5414 5.20139 27.158 6.58479L28.5723 7.999ZM6.23146 25.4145C6.53143 27.6642 7.56352 29.7528 9.16843 31.3577L10.5826 29.9435C9.28825 28.6491 8.45585 26.9646 8.21391 25.1501L6.23146 25.4145ZM9.62996 18.7855C10.5445 19.7001 11.7654 20.4418 13.0405 20.7173C14.3378 20.9976 15.7708 20.8004 16.8735 19.6978L15.4593 18.2835C14.9548 18.788 14.2768 18.9383 13.4629 18.7624C12.6269 18.5818 11.7367 18.0639 11.0442 17.3713L9.62996 18.7855ZM35.1067 25.7627C35.3541 25.4844 35.5465 25.1617 35.6738 24.8117L33.7942 24.1282C33.7533 24.2407 33.6914 24.3445 33.6119 24.434L35.1067 25.7627ZM2.46457 16.0549C3.52837 15.5821 4.64721 15.5565 5.54774 16.0397L6.49335 14.2773C4.92926 13.4381 3.14442 13.5641 1.65229 14.2273L2.46457 16.0549ZM26.4613 17.1998C27.5457 16.735 28.6784 17.7501 28.3349 18.8788L30.2483 19.4611C31.087 16.7052 28.3213 14.2267 25.6735 15.3615L26.4613 17.1998ZM30.7535 7.999C31.3559 8.60135 31.3559 9.57794 30.7535 10.1803L32.1678 11.5945C33.5512 10.2111 33.5512 7.96818 32.1678 6.58479L30.7535 7.999ZM1.65229 14.2273C0.0266761 14.9498 -0.276324 17.1274 1.0903 18.2662L2.37066 16.7298C2.14231 16.5395 2.19294 16.1756 2.46457 16.0549L1.65229 14.2273Z" fill="#657176"/>
<path d="M11.2358 6.59866L15.525 10.1942L24.7192 1" stroke="#657176" stroke-width="2" stroke-linecap="round"/>
</svg>
