<svg width="19" height="19" viewBox="0 0 19 19" fill="none" xmlns="http://www.w3.org/2000/svg">
<path d="M0.832411 16.5015C0.441887 16.892 0.441887 17.5252 0.832411 17.9157C1.22294 18.3062 1.8561 18.3062 2.24662 17.9157L0.832411 16.5015ZM14.4102 13.1751C11.9081 15.6772 7.91107 15.6944 5.48241 13.2657L4.0682 14.6799C7.30118 17.9129 12.5647 17.849 15.8244 14.5893L14.4102 13.1751ZM5.48241 13.2657C3.05375 10.8371 3.07097 6.84007 5.57307 4.33797L4.15886 2.92376C0.899181 6.18343 0.835217 11.447 4.0682 14.6799L5.48241 13.2657ZM5.57307 4.33797C8.07517 1.83587 12.0722 1.81865 14.5008 4.24731L15.915 2.8331C12.6821 -0.399883 7.41853 -0.335919 4.15886 2.92376L5.57307 4.33797ZM14.5008 4.24731C16.9295 6.67597 16.9123 10.673 14.4102 13.1751L15.8244 14.5893C19.0841 11.3296 19.148 6.06608 15.915 2.8331L14.5008 4.24731ZM4.0682 13.2657L0.832411 16.5015L2.24662 17.9157L5.48241 14.6799L4.0682 13.2657Z" fill="#42708A"/>
</svg>
